<?xml version="1.0" encoding="utf-8" standalone="no"?>
<!DOCTYPE svg PUBLIC "-//W3C//DTD SVG 1.1//EN"
  "http://www.w3.org/Graphics/SVG/1.1/DTD/svg11.dtd">
<svg xmlns:xlink="http://www.w3.org/1999/xlink" width="513.4pt" height="337.646362pt" viewBox="0 0 513.4 337.646362" xmlns="http://www.w3.org/2000/svg" version="1.1">
 <metadata>
  <rdf:RDF xmlns:dc="http://purl.org/dc/elements/1.1/" xmlns:cc="http://creativecommons.org/ns#" xmlns:rdf="http://www.w3.org/1999/02/22-rdf-syntax-ns#">
   <cc:Work>
    <dc:type rdf:resource="http://purl.org/dc/dcmitype/StillImage"/>
    <dc:date>2026-07-04T17:54:41.177249</dc:date>
    <dc:format>image/svg+xml</dc:format>
    <dc:creator>
     <cc:Agent>
      <dc:title>Matplotlib v3.10.0, https://matplotlib.org/</dc:title>
     </cc:Agent>
    </dc:creator>
   </cc:Work>
  </rdf:RDF>
 </metadata>
 <defs>
  <style type="text/css">*{stroke-linejoin: round; stroke-linecap: butt}</style>
 </defs>
 <g id="figure_1">
  <g id="patch_1">
   <path d="M 0 337.646362 
L 513.4 337.646362 
L 513.4 -0 
L 0 -0 
z
" style="fill: #fcfcfb"/>
  </g>
  <g id="axes_1">
   <g id="patch_2">
    <path d="M 7.2 305.114331 
L 506.2 305.114331 
L 506.2 7.782331 
L 7.2 7.782331 
z
" style="fill: #fcfcfb"/>
   </g>
   <g id="matplotlib.axis_1">
    <g id="xtick_1">
     <g id="line2d_1"/>
     <g id="text_1">
      <!-- 0 -->
      <g style="fill: #898781" transform="translate(27.379396 315.070425) scale(0.09 -0.09)">
       <defs>
        <path id="Helvetica-30" d="M 1731 4475 
Q 2600 4475 2988 3759 
Q 3288 3206 3288 2244 
Q 3288 1331 3016 734 
Q 2622 -122 1728 -122 
Q 922 -122 528 578 
Q 200 1163 200 2147 
Q 200 2909 397 3456 
Q 766 4475 1731 4475 
z
M 1725 391 
Q 2163 391 2422 778 
Q 2681 1166 2681 2222 
Q 2681 2984 2493 3476 
Q 2306 3969 1766 3969 
Q 1269 3969 1039 3501 
Q 809 3034 809 2125 
Q 809 1441 956 1025 
Q 1181 391 1725 391 
z
" transform="scale(0.015625)"/>
       </defs>
       <use xlink:href="#Helvetica-30"/>
      </g>
     </g>
    </g>
    <g id="xtick_2">
     <g id="line2d_2"/>
     <g id="text_2">
      <!-- 1 -->
      <g style="fill: #898781" transform="translate(140.788487 315.070425) scale(0.09 -0.09)">
       <defs>
        <path id="Helvetica-31" d="M 613 3169 
L 613 3600 
Q 1222 3659 1462 3798 
Q 1703 3938 1822 4456 
L 2266 4456 
L 2266 0 
L 1666 0 
L 1666 3169 
L 613 3169 
z
" transform="scale(0.015625)"/>
       </defs>
       <use xlink:href="#Helvetica-31"/>
      </g>
     </g>
    </g>
    <g id="xtick_3">
     <g id="line2d_3"/>
     <g id="text_3">
      <!-- 2 -->
      <g style="fill: #898781" transform="translate(254.197578 315.070425) scale(0.09 -0.09)">
       <defs>
        <path id="Helvetica-32" d="M 200 0 
Q 231 578 439 1006 
Q 647 1434 1250 1784 
L 1850 2131 
Q 2253 2366 2416 2531 
Q 2672 2791 2672 3125 
Q 2672 3516 2437 3745 
Q 2203 3975 1813 3975 
Q 1234 3975 1013 3538 
Q 894 3303 881 2888 
L 309 2888 
Q 319 3472 525 3841 
Q 891 4491 1816 4491 
Q 2584 4491 2939 4075 
Q 3294 3659 3294 3150 
Q 3294 2613 2916 2231 
Q 2697 2009 2131 1694 
L 1703 1456 
Q 1397 1288 1222 1134 
Q 909 863 828 531 
L 3272 531 
L 3272 0 
L 200 0 
z
" transform="scale(0.015625)"/>
       </defs>
       <use xlink:href="#Helvetica-32"/>
      </g>
     </g>
    </g>
    <g id="xtick_4">
     <g id="line2d_4"/>
     <g id="text_4">
      <!-- 3 -->
      <g style="fill: #898781" transform="translate(367.606669 315.070425) scale(0.09 -0.09)">
       <defs>
        <path id="Helvetica-33" d="M 1663 -122 
Q 869 -122 511 314 
Q 153 750 153 1375 
L 741 1375 
Q 778 941 903 744 
Q 1122 391 1694 391 
Q 2138 391 2406 628 
Q 2675 866 2675 1241 
Q 2675 1703 2392 1887 
Q 2109 2072 1606 2072 
Q 1550 2072 1492 2070 
Q 1434 2069 1375 2066 
L 1375 2563 
Q 1463 2553 1522 2550 
Q 1581 2547 1650 2547 
Q 1966 2547 2169 2647 
Q 2525 2822 2525 3272 
Q 2525 3606 2287 3787 
Q 2050 3969 1734 3969 
Q 1172 3969 956 3594 
Q 838 3388 822 3006 
L 266 3006 
Q 266 3506 466 3856 
Q 809 4481 1675 4481 
Q 2359 4481 2734 4176 
Q 3109 3872 3109 3294 
Q 3109 2881 2888 2625 
Q 2750 2466 2531 2375 
Q 2884 2278 3082 2001 
Q 3281 1725 3281 1325 
Q 3281 684 2859 281 
Q 2438 -122 1663 -122 
z
" transform="scale(0.015625)"/>
       </defs>
       <use xlink:href="#Helvetica-33"/>
      </g>
     </g>
    </g>
    <g id="xtick_5">
     <g id="line2d_5"/>
     <g id="text_5">
      <!-- 4 -->
      <g style="fill: #898781" transform="translate(481.01576 315.070425) scale(0.09 -0.09)">
       <defs>
        <path id="Helvetica-34" d="M 2116 1584 
L 2116 3613 
L 681 1584 
L 2116 1584 
z
M 2125 0 
L 2125 1094 
L 163 1094 
L 163 1644 
L 2213 4488 
L 2688 4488 
L 2688 1584 
L 3347 1584 
L 3347 1094 
L 2688 1094 
L 2688 0 
L 2125 0 
z
" transform="scale(0.015625)"/>
       </defs>
       <use xlink:href="#Helvetica-34"/>
      </g>
     </g>
    </g>
    <g id="text_6">
     <!-- Step $n$ -->
     <g style="fill: #52514e" transform="translate(241.85 328.346362) scale(0.1 -0.1)">
      <defs>
       <path id="Helvetica-53" d="M 894 1481 
Q 916 1091 1078 847 
Q 1388 391 2169 391 
Q 2519 391 2806 491 
Q 3363 684 3363 1184 
Q 3363 1559 3128 1719 
Q 2891 1875 2384 1991 
L 1763 2131 
Q 1153 2269 900 2434 
Q 463 2722 463 3294 
Q 463 3913 891 4309 
Q 1319 4706 2103 4706 
Q 2825 4706 3329 4357 
Q 3834 4009 3834 3244 
L 3250 3244 
Q 3203 3613 3050 3809 
Q 2766 4169 2084 4169 
Q 1534 4169 1293 3937 
Q 1053 3706 1053 3400 
Q 1053 3063 1334 2906 
Q 1519 2806 2169 2656 
L 2813 2509 
Q 3278 2403 3531 2219 
Q 3969 1897 3969 1284 
Q 3969 522 3414 194 
Q 2859 -134 2125 -134 
Q 1269 -134 784 303 
Q 300 738 309 1481 
L 894 1481 
z
M 2150 4716 
L 2150 4716 
z
" transform="scale(0.015625)"/>
       <path id="Helvetica-74" d="M 525 4281 
L 1094 4281 
L 1094 3347 
L 1628 3347 
L 1628 2888 
L 1094 2888 
L 1094 703 
Q 1094 528 1213 469 
Q 1278 434 1431 434 
Q 1472 434 1519 436 
Q 1566 438 1628 444 
L 1628 0 
Q 1531 -28 1426 -40 
Q 1322 -53 1200 -53 
Q 806 -53 665 148 
Q 525 350 525 672 
L 525 2888 
L 72 2888 
L 72 3347 
L 525 3347 
L 525 4281 
z
" transform="scale(0.015625)"/>
       <path id="Helvetica-65" d="M 1806 3422 
Q 2163 3422 2497 3255 
Q 2831 3088 3006 2822 
Q 3175 2569 3231 2231 
Q 3281 2000 3281 1494 
L 828 1494 
Q 844 984 1069 676 
Q 1294 369 1766 369 
Q 2206 369 2469 659 
Q 2619 828 2681 1050 
L 3234 1050 
Q 3213 866 3089 639 
Q 2966 413 2813 269 
Q 2556 19 2178 -69 
Q 1975 -119 1719 -119 
Q 1094 -119 659 336 
Q 225 791 225 1609 
Q 225 2416 662 2919 
Q 1100 3422 1806 3422 
z
M 2703 1941 
Q 2669 2306 2544 2525 
Q 2313 2931 1772 2931 
Q 1384 2931 1121 2651 
Q 859 2372 844 1941 
L 2703 1941 
z
M 1753 3428 
L 1753 3428 
z
" transform="scale(0.015625)"/>
       <path id="Helvetica-70" d="M 1825 378 
Q 2219 378 2480 708 
Q 2741 1038 2741 1694 
Q 2741 2094 2625 2381 
Q 2406 2934 1825 2934 
Q 1241 2934 1025 2350 
Q 909 2038 909 1556 
Q 909 1169 1025 897 
Q 1244 378 1825 378 
z
M 369 3331 
L 916 3331 
L 916 2888 
Q 1084 3116 1284 3241 
Q 1569 3428 1953 3428 
Q 2522 3428 2919 2992 
Q 3316 2556 3316 1747 
Q 3316 653 2744 184 
Q 2381 -113 1900 -113 
Q 1522 -113 1266 53 
Q 1116 147 931 375 
L 931 -1334 
L 369 -1334 
L 369 3331 
z
" transform="scale(0.015625)"/>
       <path id="Helvetica-20" transform="scale(0.015625)"/>
       <path id="DejaVuSans-Oblique-6e" d="M 3566 2113 
L 3156 0 
L 2578 0 
L 2988 2091 
Q 3016 2238 3031 2350 
Q 3047 2463 3047 2528 
Q 3047 2791 2881 2937 
Q 2716 3084 2419 3084 
Q 1956 3084 1622 2776 
Q 1288 2469 1184 1941 
L 800 0 
L 225 0 
L 903 3500 
L 1478 3500 
L 1363 2950 
Q 1603 3253 1940 3418 
Q 2278 3584 2650 3584 
Q 3113 3584 3367 3334 
Q 3622 3084 3622 2631 
Q 3622 2519 3608 2391 
Q 3594 2263 3566 2113 
z
" transform="scale(0.015625)"/>
      </defs>
      <use xlink:href="#Helvetica-53" transform="translate(0 0.3125)"/>
      <use xlink:href="#Helvetica-74" transform="translate(66.699219 0.3125)"/>
      <use xlink:href="#Helvetica-65" transform="translate(94.482422 0.3125)"/>
      <use xlink:href="#Helvetica-70" transform="translate(150.097656 0.3125)"/>
      <use xlink:href="#Helvetica-20" transform="translate(205.712891 0.3125)"/>
      <use xlink:href="#DejaVuSans-Oblique-6e" transform="translate(233.496094 0.3125)"/>
     </g>
    </g>
   </g>
   <g id="matplotlib.axis_2"/>
   <g id="line2d_6">
    <path d="M 29.881818 156.448331 
L 143.290909 190.236058 
" clip-path="url(#p6765da2e3c)" style="fill: none; stroke: #c3c2b7; stroke-width: 1.2; stroke-linecap: square"/>
   </g>
   <g id="line2d_7">
    <path d="M 29.881818 156.448331 
L 143.290909 122.660604 
" clip-path="url(#p6765da2e3c)" style="fill: none; stroke: #c3c2b7; stroke-width: 1.2; stroke-linecap: square"/>
   </g>
   <g id="line2d_8">
    <path d="M 143.290909 190.236058 
L 256.7 224.023786 
" clip-path="url(#p6765da2e3c)" style="fill: none; stroke: #c3c2b7; stroke-width: 1.2; stroke-linecap: square"/>
   </g>
   <g id="line2d_9">
    <path d="M 143.290909 190.236058 
L 256.7 156.448331 
" clip-path="url(#p6765da2e3c)" style="fill: none; stroke: #c3c2b7; stroke-width: 1.2; stroke-linecap: square"/>
   </g>
   <g id="line2d_10">
    <path d="M 143.290909 122.660604 
L 256.7 156.448331 
" clip-path="url(#p6765da2e3c)" style="fill: none; stroke: #c3c2b7; stroke-width: 1.2; stroke-linecap: square"/>
   </g>
   <g id="line2d_11">
    <path d="M 143.290909 122.660604 
L 256.7 88.872876 
" clip-path="url(#p6765da2e3c)" style="fill: none; stroke: #c3c2b7; stroke-width: 1.2; stroke-linecap: square"/>
   </g>
   <g id="line2d_12">
    <path d="M 256.7 224.023786 
L 370.109091 257.811513 
" clip-path="url(#p6765da2e3c)" style="fill: none; stroke: #c3c2b7; stroke-width: 1.2; stroke-linecap: square"/>
   </g>
   <g id="line2d_13">
    <path d="M 256.7 224.023786 
L 370.109091 190.236058 
" clip-path="url(#p6765da2e3c)" style="fill: none; stroke: #c3c2b7; stroke-width: 1.2; stroke-linecap: square"/>
   </g>
   <g id="line2d_14">
    <path d="M 256.7 156.448331 
L 370.109091 190.236058 
" clip-path="url(#p6765da2e3c)" style="fill: none; stroke: #c3c2b7; stroke-width: 1.2; stroke-linecap: square"/>
   </g>
   <g id="line2d_15">
    <path d="M 256.7 156.448331 
L 370.109091 122.660604 
" clip-path="url(#p6765da2e3c)" style="fill: none; stroke: #c3c2b7; stroke-width: 1.2; stroke-linecap: square"/>
   </g>
   <g id="line2d_16">
    <path d="M 256.7 88.872876 
L 370.109091 122.660604 
" clip-path="url(#p6765da2e3c)" style="fill: none; stroke: #c3c2b7; stroke-width: 1.2; stroke-linecap: square"/>
   </g>
   <g id="line2d_17">
    <path d="M 256.7 88.872876 
L 370.109091 55.085149 
" clip-path="url(#p6765da2e3c)" style="fill: none; stroke: #c3c2b7; stroke-width: 1.2; stroke-linecap: square"/>
   </g>
   <g id="line2d_18">
    <path d="M 370.109091 257.811513 
L 483.518182 291.59924 
" clip-path="url(#p6765da2e3c)" style="fill: none; stroke: #c3c2b7; stroke-width: 1.2; stroke-linecap: square"/>
   </g>
   <g id="line2d_19">
    <path d="M 370.109091 257.811513 
L 483.518182 224.023786 
" clip-path="url(#p6765da2e3c)" style="fill: none; stroke: #c3c2b7; stroke-width: 1.2; stroke-linecap: square"/>
   </g>
   <g id="line2d_20">
    <path d="M 370.109091 190.236058 
L 483.518182 224.023786 
" clip-path="url(#p6765da2e3c)" style="fill: none; stroke: #c3c2b7; stroke-width: 1.2; stroke-linecap: square"/>
   </g>
   <g id="line2d_21">
    <path d="M 370.109091 190.236058 
L 483.518182 156.448331 
" clip-path="url(#p6765da2e3c)" style="fill: none; stroke: #c3c2b7; stroke-width: 1.2; stroke-linecap: square"/>
   </g>
   <g id="line2d_22">
    <path d="M 370.109091 122.660604 
L 483.518182 156.448331 
" clip-path="url(#p6765da2e3c)" style="fill: none; stroke: #c3c2b7; stroke-width: 1.2; stroke-linecap: square"/>
   </g>
   <g id="line2d_23">
    <path d="M 370.109091 122.660604 
L 483.518182 88.872876 
" clip-path="url(#p6765da2e3c)" style="fill: none; stroke: #c3c2b7; stroke-width: 1.2; stroke-linecap: square"/>
   </g>
   <g id="line2d_24">
    <path d="M 370.109091 55.085149 
L 483.518182 88.872876 
" clip-path="url(#p6765da2e3c)" style="fill: none; stroke: #c3c2b7; stroke-width: 1.2; stroke-linecap: square"/>
   </g>
   <g id="line2d_25">
    <path d="M 370.109091 55.085149 
L 483.518182 21.297422 
" clip-path="url(#p6765da2e3c)" style="fill: none; stroke: #c3c2b7; stroke-width: 1.2; stroke-linecap: square"/>
   </g>
   <g id="patch_3">
    <path d="M 7.2 305.114331 
L 506.2 305.114331 
" style="fill: none; stroke: #c3c2b7; stroke-linejoin: miter; stroke-linecap: square"/>
   </g>
   <g id="PathCollection_1">
    <defs>
     <path id="m6b05e2c44a" d="M 0 2.54951 
C 0.676138 2.54951 1.324674 2.280877 1.802776 1.802776 
C 2.280877 1.324674 2.54951 0.676138 2.54951 0 
C 2.54951 -0.676138 2.280877 -1.324674 1.802776 -1.802776 
C 1.324674 -2.280877 0.676138 -2.54951 0 -2.54951 
C -0.676138 -2.54951 -1.324674 -2.280877 -1.802776 -1.802776 
C -2.280877 -1.324674 -2.54951 -0.676138 -2.54951 0 
C -2.54951 0.676138 -2.280877 1.324674 -1.802776 1.802776 
C -1.324674 2.280877 -0.676138 2.54951 0 2.54951 
z
" style="stroke: #fcfcfb"/>
    </defs>
    <g clip-path="url(#p6765da2e3c)">
     <use xlink:href="#m6b05e2c44a" x="29.881818" y="156.448331" style="fill: #2a78d6; stroke: #fcfcfb"/>
     <use xlink:href="#m6b05e2c44a" x="143.290909" y="190.236058" style="fill: #2a78d6; stroke: #fcfcfb"/>
     <use xlink:href="#m6b05e2c44a" x="143.290909" y="122.660604" style="fill: #2a78d6; stroke: #fcfcfb"/>
     <use xlink:href="#m6b05e2c44a" x="256.7" y="224.023786" style="fill: #2a78d6; stroke: #fcfcfb"/>
     <use xlink:href="#m6b05e2c44a" x="256.7" y="156.448331" style="fill: #2a78d6; stroke: #fcfcfb"/>
     <use xlink:href="#m6b05e2c44a" x="256.7" y="88.872876" style="fill: #2a78d6; stroke: #fcfcfb"/>
     <use xlink:href="#m6b05e2c44a" x="370.109091" y="257.811513" style="fill: #2a78d6; stroke: #fcfcfb"/>
     <use xlink:href="#m6b05e2c44a" x="370.109091" y="190.236058" style="fill: #2a78d6; stroke: #fcfcfb"/>
     <use xlink:href="#m6b05e2c44a" x="370.109091" y="122.660604" style="fill: #2a78d6; stroke: #fcfcfb"/>
     <use xlink:href="#m6b05e2c44a" x="370.109091" y="55.085149" style="fill: #2a78d6; stroke: #fcfcfb"/>
     <use xlink:href="#m6b05e2c44a" x="483.518182" y="291.59924" style="fill: #2a78d6; stroke: #fcfcfb"/>
     <use xlink:href="#m6b05e2c44a" x="483.518182" y="224.023786" style="fill: #2a78d6; stroke: #fcfcfb"/>
     <use xlink:href="#m6b05e2c44a" x="483.518182" y="156.448331" style="fill: #2a78d6; stroke: #fcfcfb"/>
     <use xlink:href="#m6b05e2c44a" x="483.518182" y="88.872876" style="fill: #2a78d6; stroke: #fcfcfb"/>
     <use xlink:href="#m6b05e2c44a" x="483.518182" y="21.297422" style="fill: #2a78d6; stroke: #fcfcfb"/>
    </g>
   </g>
   <g id="text_7">
    <!-- 100 -->
    <g style="fill: #52514e" transform="translate(22.791623 148.448331) scale(0.085 -0.085)">
     <use xlink:href="#Helvetica-31"/>
     <use xlink:href="#Helvetica-30" transform="translate(55.615234 0)"/>
     <use xlink:href="#Helvetica-30" transform="translate(111.230469 0)"/>
    </g>
   </g>
   <g id="text_8">
    <!-- 87 -->
    <g style="fill: #52514e" transform="translate(138.564112 182.236058) scale(0.085 -0.085)">
     <defs>
      <path id="Helvetica-38" d="M 1741 2600 
Q 2113 2600 2322 2808 
Q 2531 3016 2531 3303 
Q 2531 3553 2331 3762 
Q 2131 3972 1722 3972 
Q 1316 3972 1134 3762 
Q 953 3553 953 3272 
Q 953 2956 1187 2778 
Q 1422 2600 1741 2600 
z
M 1775 384 
Q 2166 384 2423 595 
Q 2681 806 2681 1225 
Q 2681 1659 2415 1884 
Q 2150 2109 1734 2109 
Q 1331 2109 1076 1879 
Q 822 1650 822 1244 
Q 822 894 1055 639 
Q 1288 384 1775 384 
z
M 975 2384 
Q 741 2484 609 2619 
Q 363 2869 363 3269 
Q 363 3769 725 4128 
Q 1088 4488 1753 4488 
Q 2397 4488 2762 4148 
Q 3128 3809 3128 3356 
Q 3128 2938 2916 2678 
Q 2797 2531 2547 2391 
Q 2825 2263 2984 2097 
Q 3281 1784 3281 1284 
Q 3281 694 2884 283 
Q 2488 -128 1763 -128 
Q 1109 -128 657 226 
Q 206 581 206 1256 
Q 206 1653 400 1942 
Q 594 2231 975 2384 
z
" transform="scale(0.015625)"/>
      <path id="Helvetica-37" d="M 3347 4400 
L 3347 3909 
Q 3131 3700 2773 3181 
Q 2416 2663 2141 2063 
Q 1869 1478 1728 997 
Q 1638 688 1494 0 
L 872 0 
Q 1084 1281 1809 2550 
Q 2238 3294 2709 3834 
L 234 3834 
L 234 4400 
L 3347 4400 
z
" transform="scale(0.015625)"/>
     </defs>
     <use xlink:href="#Helvetica-38"/>
     <use xlink:href="#Helvetica-37" transform="translate(55.615234 0)"/>
    </g>
   </g>
   <g id="text_9">
    <!-- 115 -->
    <g style="fill: #52514e" transform="translate(136.200714 114.660604) scale(0.085 -0.085)">
     <defs>
      <path id="Helvetica-35" d="M 791 1141 
Q 847 659 1238 475 
Q 1438 381 1700 381 
Q 2200 381 2440 700 
Q 2681 1019 2681 1406 
Q 2681 1875 2395 2131 
Q 2109 2388 1709 2388 
Q 1419 2388 1211 2275 
Q 1003 2163 856 1963 
L 369 1991 
L 709 4400 
L 3034 4400 
L 3034 3856 
L 1131 3856 
L 941 2613 
Q 1097 2731 1238 2791 
Q 1488 2894 1816 2894 
Q 2431 2894 2859 2497 
Q 3288 2100 3288 1491 
Q 3288 856 2895 371 
Q 2503 -113 1644 -113 
Q 1097 -113 676 195 
Q 256 503 206 1141 
L 791 1141 
z
" transform="scale(0.015625)"/>
     </defs>
     <use xlink:href="#Helvetica-31"/>
     <use xlink:href="#Helvetica-31" transform="translate(55.615234 0)"/>
     <use xlink:href="#Helvetica-35" transform="translate(111.230469 0)"/>
    </g>
   </g>
   <g id="text_10">
    <!-- 76 -->
    <g style="fill: #52514e" transform="translate(251.973203 216.023786) scale(0.085 -0.085)">
     <defs>
      <path id="Helvetica-36" d="M 1872 4494 
Q 2622 4494 2917 4105 
Q 3213 3716 3213 3303 
L 2656 3303 
Q 2606 3569 2497 3719 
Q 2294 4000 1881 4000 
Q 1409 4000 1131 3564 
Q 853 3128 822 2316 
Q 1016 2600 1309 2741 
Q 1578 2866 1909 2866 
Q 2472 2866 2890 2506 
Q 3309 2147 3309 1434 
Q 3309 825 2912 354 
Q 2516 -116 1781 -116 
Q 1153 -116 697 361 
Q 241 838 241 1966 
Q 241 2800 444 3381 
Q 834 4494 1872 4494 
z
M 1831 384 
Q 2275 384 2495 682 
Q 2716 981 2716 1388 
Q 2716 1731 2519 2042 
Q 2322 2353 1803 2353 
Q 1441 2353 1167 2112 
Q 894 1872 894 1388 
Q 894 963 1142 673 
Q 1391 384 1831 384 
z
" transform="scale(0.015625)"/>
     </defs>
     <use xlink:href="#Helvetica-37"/>
     <use xlink:href="#Helvetica-36" transform="translate(55.615234 0)"/>
    </g>
   </g>
   <g id="text_11">
    <!-- 100 -->
    <g style="fill: #52514e" transform="translate(249.609805 148.448331) scale(0.085 -0.085)">
     <use xlink:href="#Helvetica-31"/>
     <use xlink:href="#Helvetica-30" transform="translate(55.615234 0)"/>
     <use xlink:href="#Helvetica-30" transform="translate(111.230469 0)"/>
    </g>
   </g>
   <g id="text_12">
    <!-- 132 -->
    <g style="fill: #52514e" transform="translate(249.609805 80.872876) scale(0.085 -0.085)">
     <use xlink:href="#Helvetica-31"/>
     <use xlink:href="#Helvetica-33" transform="translate(55.615234 0)"/>
     <use xlink:href="#Helvetica-32" transform="translate(111.230469 0)"/>
    </g>
   </g>
   <g id="text_13">
    <!-- 66 -->
    <g style="fill: #52514e" transform="translate(365.382294 249.811513) scale(0.085 -0.085)">
     <use xlink:href="#Helvetica-36"/>
     <use xlink:href="#Helvetica-36" transform="translate(55.615234 0)"/>
    </g>
   </g>
   <g id="text_14">
    <!-- 87 -->
    <g style="fill: #52514e" transform="translate(365.382294 182.236058) scale(0.085 -0.085)">
     <use xlink:href="#Helvetica-38"/>
     <use xlink:href="#Helvetica-37" transform="translate(55.615234 0)"/>
    </g>
   </g>
   <g id="text_15">
    <!-- 115 -->
    <g style="fill: #52514e" transform="translate(363.018896 114.660604) scale(0.085 -0.085)">
     <use xlink:href="#Helvetica-31"/>
     <use xlink:href="#Helvetica-31" transform="translate(55.615234 0)"/>
     <use xlink:href="#Helvetica-35" transform="translate(111.230469 0)"/>
    </g>
   </g>
   <g id="text_16">
    <!-- 152 -->
    <g style="fill: #52514e" transform="translate(363.018896 47.085149) scale(0.085 -0.085)">
     <use xlink:href="#Helvetica-31"/>
     <use xlink:href="#Helvetica-35" transform="translate(55.615234 0)"/>
     <use xlink:href="#Helvetica-32" transform="translate(111.230469 0)"/>
    </g>
   </g>
   <g id="text_17">
    <!-- 57 -->
    <g style="fill: #52514e" transform="translate(478.791385 283.59924) scale(0.085 -0.085)">
     <use xlink:href="#Helvetica-35"/>
     <use xlink:href="#Helvetica-37" transform="translate(55.615234 0)"/>
    </g>
   </g>
   <g id="text_18">
    <!-- 76 -->
    <g style="fill: #52514e" transform="translate(478.791385 216.023786) scale(0.085 -0.085)">
     <use xlink:href="#Helvetica-37"/>
     <use xlink:href="#Helvetica-36" transform="translate(55.615234 0)"/>
    </g>
   </g>
   <g id="text_19">
    <!-- 100 -->
    <g style="fill: #52514e" transform="translate(476.427987 148.448331) scale(0.085 -0.085)">
     <use xlink:href="#Helvetica-31"/>
     <use xlink:href="#Helvetica-30" transform="translate(55.615234 0)"/>
     <use xlink:href="#Helvetica-30" transform="translate(111.230469 0)"/>
    </g>
   </g>
   <g id="text_20">
    <!-- 132 -->
    <g style="fill: #52514e" transform="translate(476.427987 80.872876) scale(0.085 -0.085)">
     <use xlink:href="#Helvetica-31"/>
     <use xlink:href="#Helvetica-33" transform="translate(55.615234 0)"/>
     <use xlink:href="#Helvetica-32" transform="translate(111.230469 0)"/>
    </g>
   </g>
   <g id="text_21">
    <!-- 175 -->
    <g style="fill: #52514e" transform="translate(476.427987 13.297422) scale(0.085 -0.085)">
     <use xlink:href="#Helvetica-31"/>
     <use xlink:href="#Helvetica-37" transform="translate(55.615234 0)"/>
     <use xlink:href="#Helvetica-35" transform="translate(111.230469 0)"/>
    </g>
   </g>
  </g>
 </g>
 <defs>
  <clipPath id="p6765da2e3c">
   <rect x="7.2" y="7.782331" width="499" height="297.332"/>
  </clipPath>
 </defs>
</svg>
