<?xml version="1.0" encoding="utf-8" standalone="no"?>
<!DOCTYPE svg PUBLIC "-//W3C//DTD SVG 1.1//EN"
  "http://www.w3.org/Graphics/SVG/1.1/DTD/svg11.dtd">
<svg xmlns:xlink="http://www.w3.org/1999/xlink" width="510.862316pt" height="311.066311pt" viewBox="0 0 510.862316 311.066311" xmlns="http://www.w3.org/2000/svg" version="1.1">
 <metadata>
  <rdf:RDF xmlns:dc="http://purl.org/dc/elements/1.1/" xmlns:cc="http://creativecommons.org/ns#" xmlns:rdf="http://www.w3.org/1999/02/22-rdf-syntax-ns#">
   <cc:Work>
    <dc:type rdf:resource="http://purl.org/dc/dcmitype/StillImage"/>
    <dc:date>2026-07-04T17:54:41.099321</dc:date>
    <dc:format>image/svg+xml</dc:format>
    <dc:creator>
     <cc:Agent>
      <dc:title>Matplotlib v3.10.0, https://matplotlib.org/</dc:title>
     </cc:Agent>
    </dc:creator>
   </cc:Work>
  </rdf:RDF>
 </metadata>
 <defs>
  <style type="text/css">*{stroke-linejoin: round; stroke-linecap: butt}</style>
 </defs>
 <g id="figure_1">
  <g id="patch_1">
   <path d="M 0 311.066311 
L 510.862316 311.066311 
L 510.862316 0 
L 0 0 
z
" style="fill: #fcfcfb"/>
  </g>
  <g id="axes_1">
   <g id="patch_2">
    <path d="M 34.219219 278.776467 
L 463.065219 278.776467 
L 463.065219 8.19381 
L 34.219219 8.19381 
z
" style="fill: #fcfcfb"/>
   </g>
   <g id="matplotlib.axis_1">
    <g id="xtick_1">
     <g id="line2d_1"/>
     <g id="text_1">
      <!-- 0.0 -->
      <g style="fill: #898781" transform="translate(27.964219 288.732561) scale(0.09 -0.09)">
       <defs>
        <path id="Helvetica-30" d="M 1731 4475 
Q 2600 4475 2988 3759 
Q 3288 3206 3288 2244 
Q 3288 1331 3016 734 
Q 2622 -122 1728 -122 
Q 922 -122 528 578 
Q 200 1163 200 2147 
Q 200 2909 397 3456 
Q 766 4475 1731 4475 
z
M 1725 391 
Q 2163 391 2422 778 
Q 2681 1166 2681 2222 
Q 2681 2984 2493 3476 
Q 2306 3969 1766 3969 
Q 1269 3969 1039 3501 
Q 809 3034 809 2125 
Q 809 1441 956 1025 
Q 1181 391 1725 391 
z
" transform="scale(0.015625)"/>
        <path id="Helvetica-2e" d="M 547 681 
L 1200 681 
L 1200 0 
L 547 0 
L 547 681 
z
" transform="scale(0.015625)"/>
       </defs>
       <use xlink:href="#Helvetica-30"/>
       <use xlink:href="#Helvetica-2e" transform="translate(55.615234 0)"/>
       <use xlink:href="#Helvetica-30" transform="translate(83.398438 0)"/>
      </g>
     </g>
    </g>
    <g id="xtick_2">
     <g id="line2d_2"/>
     <g id="text_2">
      <!-- 0.2 -->
      <g style="fill: #898781" transform="translate(107.380145 288.732561) scale(0.09 -0.09)">
       <defs>
        <path id="Helvetica-32" d="M 200 0 
Q 231 578 439 1006 
Q 647 1434 1250 1784 
L 1850 2131 
Q 2253 2366 2416 2531 
Q 2672 2791 2672 3125 
Q 2672 3516 2437 3745 
Q 2203 3975 1813 3975 
Q 1234 3975 1013 3538 
Q 894 3303 881 2888 
L 309 2888 
Q 319 3472 525 3841 
Q 891 4491 1816 4491 
Q 2584 4491 2939 4075 
Q 3294 3659 3294 3150 
Q 3294 2613 2916 2231 
Q 2697 2009 2131 1694 
L 1703 1456 
Q 1397 1288 1222 1134 
Q 909 863 828 531 
L 3272 531 
L 3272 0 
L 200 0 
z
" transform="scale(0.015625)"/>
       </defs>
       <use xlink:href="#Helvetica-30"/>
       <use xlink:href="#Helvetica-2e" transform="translate(55.615234 0)"/>
       <use xlink:href="#Helvetica-32" transform="translate(83.398438 0)"/>
      </g>
     </g>
    </g>
    <g id="xtick_3">
     <g id="line2d_3"/>
     <g id="text_3">
      <!-- 0.4 -->
      <g style="fill: #898781" transform="translate(186.796071 288.732561) scale(0.09 -0.09)">
       <defs>
        <path id="Helvetica-34" d="M 2116 1584 
L 2116 3613 
L 681 1584 
L 2116 1584 
z
M 2125 0 
L 2125 1094 
L 163 1094 
L 163 1644 
L 2213 4488 
L 2688 4488 
L 2688 1584 
L 3347 1584 
L 3347 1094 
L 2688 1094 
L 2688 0 
L 2125 0 
z
" transform="scale(0.015625)"/>
       </defs>
       <use xlink:href="#Helvetica-30"/>
       <use xlink:href="#Helvetica-2e" transform="translate(55.615234 0)"/>
       <use xlink:href="#Helvetica-34" transform="translate(83.398438 0)"/>
      </g>
     </g>
    </g>
    <g id="xtick_4">
     <g id="line2d_4"/>
     <g id="text_4">
      <!-- 0.6 -->
      <g style="fill: #898781" transform="translate(266.211997 288.732561) scale(0.09 -0.09)">
       <defs>
        <path id="Helvetica-36" d="M 1872 4494 
Q 2622 4494 2917 4105 
Q 3213 3716 3213 3303 
L 2656 3303 
Q 2606 3569 2497 3719 
Q 2294 4000 1881 4000 
Q 1409 4000 1131 3564 
Q 853 3128 822 2316 
Q 1016 2600 1309 2741 
Q 1578 2866 1909 2866 
Q 2472 2866 2890 2506 
Q 3309 2147 3309 1434 
Q 3309 825 2912 354 
Q 2516 -116 1781 -116 
Q 1153 -116 697 361 
Q 241 838 241 1966 
Q 241 2800 444 3381 
Q 834 4494 1872 4494 
z
M 1831 384 
Q 2275 384 2495 682 
Q 2716 981 2716 1388 
Q 2716 1731 2519 2042 
Q 2322 2353 1803 2353 
Q 1441 2353 1167 2112 
Q 894 1872 894 1388 
Q 894 963 1142 673 
Q 1391 384 1831 384 
z
" transform="scale(0.015625)"/>
       </defs>
       <use xlink:href="#Helvetica-30"/>
       <use xlink:href="#Helvetica-2e" transform="translate(55.615234 0)"/>
       <use xlink:href="#Helvetica-36" transform="translate(83.398438 0)"/>
      </g>
     </g>
    </g>
    <g id="xtick_5">
     <g id="line2d_5"/>
     <g id="text_5">
      <!-- 0.8 -->
      <g style="fill: #898781" transform="translate(345.627922 288.732561) scale(0.09 -0.09)">
       <defs>
        <path id="Helvetica-38" d="M 1741 2600 
Q 2113 2600 2322 2808 
Q 2531 3016 2531 3303 
Q 2531 3553 2331 3762 
Q 2131 3972 1722 3972 
Q 1316 3972 1134 3762 
Q 953 3553 953 3272 
Q 953 2956 1187 2778 
Q 1422 2600 1741 2600 
z
M 1775 384 
Q 2166 384 2423 595 
Q 2681 806 2681 1225 
Q 2681 1659 2415 1884 
Q 2150 2109 1734 2109 
Q 1331 2109 1076 1879 
Q 822 1650 822 1244 
Q 822 894 1055 639 
Q 1288 384 1775 384 
z
M 975 2384 
Q 741 2484 609 2619 
Q 363 2869 363 3269 
Q 363 3769 725 4128 
Q 1088 4488 1753 4488 
Q 2397 4488 2762 4148 
Q 3128 3809 3128 3356 
Q 3128 2938 2916 2678 
Q 2797 2531 2547 2391 
Q 2825 2263 2984 2097 
Q 3281 1784 3281 1284 
Q 3281 694 2884 283 
Q 2488 -128 1763 -128 
Q 1109 -128 657 226 
Q 206 581 206 1256 
Q 206 1653 400 1942 
Q 594 2231 975 2384 
z
" transform="scale(0.015625)"/>
       </defs>
       <use xlink:href="#Helvetica-30"/>
       <use xlink:href="#Helvetica-2e" transform="translate(55.615234 0)"/>
       <use xlink:href="#Helvetica-38" transform="translate(83.398438 0)"/>
      </g>
     </g>
    </g>
    <g id="xtick_6">
     <g id="line2d_6"/>
     <g id="text_6">
      <!-- 1.0 -->
      <g style="fill: #898781" transform="translate(425.043848 288.732561) scale(0.09 -0.09)">
       <defs>
        <path id="Helvetica-31" d="M 613 3169 
L 613 3600 
Q 1222 3659 1462 3798 
Q 1703 3938 1822 4456 
L 2266 4456 
L 2266 0 
L 1666 0 
L 1666 3169 
L 613 3169 
z
" transform="scale(0.015625)"/>
       </defs>
       <use xlink:href="#Helvetica-31"/>
       <use xlink:href="#Helvetica-2e" transform="translate(55.615234 0)"/>
       <use xlink:href="#Helvetica-30" transform="translate(83.398438 0)"/>
      </g>
     </g>
    </g>
    <g id="text_7">
     <!-- Time $t$ -->
     <g style="fill: #52514e" transform="translate(234.142219 301.781936) scale(0.1 -0.1)">
      <defs>
       <path id="Helvetica-54" d="M 3828 4591 
L 3828 4044 
L 2281 4044 
L 2281 0 
L 1650 0 
L 1650 4044 
L 103 4044 
L 103 4591 
L 3828 4591 
z
" transform="scale(0.015625)"/>
       <path id="Helvetica-69" d="M 413 3331 
L 984 3331 
L 984 0 
L 413 0 
L 413 3331 
z
M 413 4591 
L 984 4591 
L 984 3953 
L 413 3953 
L 413 4591 
z
" transform="scale(0.015625)"/>
       <path id="Helvetica-6d" d="M 413 3347 
L 969 3347 
L 969 2872 
Q 1169 3119 1331 3231 
Q 1609 3422 1963 3422 
Q 2363 3422 2606 3225 
Q 2744 3113 2856 2894 
Q 3044 3163 3297 3292 
Q 3550 3422 3866 3422 
Q 4541 3422 4784 2934 
Q 4916 2672 4916 2228 
L 4916 0 
L 4331 0 
L 4331 2325 
Q 4331 2659 4164 2784 
Q 3997 2909 3756 2909 
Q 3425 2909 3186 2687 
Q 2947 2466 2947 1947 
L 2947 0 
L 2375 0 
L 2375 2184 
Q 2375 2525 2294 2681 
Q 2166 2916 1816 2916 
Q 1497 2916 1236 2669 
Q 975 2422 975 1775 
L 975 0 
L 413 0 
L 413 3347 
z
" transform="scale(0.015625)"/>
       <path id="Helvetica-65" d="M 1806 3422 
Q 2163 3422 2497 3255 
Q 2831 3088 3006 2822 
Q 3175 2569 3231 2231 
Q 3281 2000 3281 1494 
L 828 1494 
Q 844 984 1069 676 
Q 1294 369 1766 369 
Q 2206 369 2469 659 
Q 2619 828 2681 1050 
L 3234 1050 
Q 3213 866 3089 639 
Q 2966 413 2813 269 
Q 2556 19 2178 -69 
Q 1975 -119 1719 -119 
Q 1094 -119 659 336 
Q 225 791 225 1609 
Q 225 2416 662 2919 
Q 1100 3422 1806 3422 
z
M 2703 1941 
Q 2669 2306 2544 2525 
Q 2313 2931 1772 2931 
Q 1384 2931 1121 2651 
Q 859 2372 844 1941 
L 2703 1941 
z
M 1753 3428 
L 1753 3428 
z
" transform="scale(0.015625)"/>
       <path id="Helvetica-20" transform="scale(0.015625)"/>
       <path id="DejaVuSans-Oblique-74" d="M 2706 3500 
L 2619 3053 
L 1472 3053 
L 1100 1153 
Q 1081 1047 1072 975 
Q 1063 903 1063 863 
Q 1063 663 1183 572 
Q 1303 481 1569 481 
L 2150 481 
L 2053 0 
L 1503 0 
Q 991 0 739 200 
Q 488 400 488 806 
Q 488 878 497 964 
Q 506 1050 525 1153 
L 897 3053 
L 409 3053 
L 500 3500 
L 978 3500 
L 1172 4494 
L 1747 4494 
L 1556 3500 
L 2706 3500 
z
" transform="scale(0.015625)"/>
      </defs>
      <use xlink:href="#Helvetica-54" transform="translate(0 0.265625)"/>
      <use xlink:href="#Helvetica-69" transform="translate(61.083984 0.265625)"/>
      <use xlink:href="#Helvetica-6d" transform="translate(83.300781 0.265625)"/>
      <use xlink:href="#Helvetica-65" transform="translate(166.601562 0.265625)"/>
      <use xlink:href="#Helvetica-20" transform="translate(222.216797 0.265625)"/>
      <use xlink:href="#DejaVuSans-Oblique-74" transform="translate(250 0.265625)"/>
     </g>
    </g>
   </g>
   <g id="matplotlib.axis_2">
    <g id="ytick_1">
     <g id="line2d_7">
      <path d="M 34.219219 225.90099 
L 463.065219 225.90099 
" clip-path="url(#pa27cbbadb9)" style="fill: none; stroke: #e1e0d9; stroke-linecap: square"/>
     </g>
     <g id="line2d_8"/>
     <g id="text_8">
      <!-- −3 -->
      <g style="fill: #898781" transform="translate(20.457813 229.129037) scale(0.09 -0.09)">
       <defs>
        <path id="Helvetica-2212" d="M 3547 1894 
L 3547 1369 
L 288 1369 
L 288 1894 
L 3547 1894 
z
" transform="scale(0.015625)"/>
        <path id="Helvetica-33" d="M 1663 -122 
Q 869 -122 511 314 
Q 153 750 153 1375 
L 741 1375 
Q 778 941 903 744 
Q 1122 391 1694 391 
Q 2138 391 2406 628 
Q 2675 866 2675 1241 
Q 2675 1703 2392 1887 
Q 2109 2072 1606 2072 
Q 1550 2072 1492 2070 
Q 1434 2069 1375 2066 
L 1375 2563 
Q 1463 2553 1522 2550 
Q 1581 2547 1650 2547 
Q 1966 2547 2169 2647 
Q 2525 2822 2525 3272 
Q 2525 3606 2287 3787 
Q 2050 3969 1734 3969 
Q 1172 3969 956 3594 
Q 838 3388 822 3006 
L 266 3006 
Q 266 3506 466 3856 
Q 809 4481 1675 4481 
Q 2359 4481 2734 4176 
Q 3109 3872 3109 3294 
Q 3109 2881 2888 2625 
Q 2750 2466 2531 2375 
Q 2884 2278 3082 2001 
Q 3281 1725 3281 1325 
Q 3281 684 2859 281 
Q 2438 -122 1663 -122 
z
" transform="scale(0.015625)"/>
       </defs>
       <use xlink:href="#Helvetica-2212"/>
       <use xlink:href="#Helvetica-33" transform="translate(58.398438 0)"/>
      </g>
     </g>
    </g>
    <g id="ytick_2">
     <g id="line2d_9">
      <path d="M 34.219219 172.032754 
L 463.065219 172.032754 
" clip-path="url(#pa27cbbadb9)" style="fill: none; stroke: #e1e0d9; stroke-linecap: square"/>
     </g>
     <g id="line2d_10"/>
     <g id="text_9">
      <!-- −2 -->
      <g style="fill: #898781" transform="translate(20.457813 175.260801) scale(0.09 -0.09)">
       <use xlink:href="#Helvetica-2212"/>
       <use xlink:href="#Helvetica-32" transform="translate(58.398438 0)"/>
      </g>
     </g>
    </g>
    <g id="ytick_3">
     <g id="line2d_11">
      <path d="M 34.219219 118.164519 
L 463.065219 118.164519 
" clip-path="url(#pa27cbbadb9)" style="fill: none; stroke: #e1e0d9; stroke-linecap: square"/>
     </g>
     <g id="line2d_12"/>
     <g id="text_10">
      <!-- −1 -->
      <g style="fill: #898781" transform="translate(20.457813 121.392565) scale(0.09 -0.09)">
       <use xlink:href="#Helvetica-2212"/>
       <use xlink:href="#Helvetica-31" transform="translate(58.398438 0)"/>
      </g>
     </g>
    </g>
    <g id="ytick_4">
     <g id="line2d_13">
      <path d="M 34.219219 64.296283 
L 463.065219 64.296283 
" clip-path="url(#pa27cbbadb9)" style="fill: none; stroke: #e1e0d9; stroke-linecap: square"/>
     </g>
     <g id="line2d_14"/>
     <g id="text_11">
      <!-- 0 -->
      <g style="fill: #898781" transform="translate(25.714375 67.52433) scale(0.09 -0.09)">
       <use xlink:href="#Helvetica-30"/>
      </g>
     </g>
    </g>
    <g id="ytick_5">
     <g id="line2d_15">
      <path d="M 34.219219 10.428047 
L 463.065219 10.428047 
" clip-path="url(#pa27cbbadb9)" style="fill: none; stroke: #e1e0d9; stroke-linecap: square"/>
     </g>
     <g id="line2d_16"/>
     <g id="text_12">
      <!-- 1 -->
      <g style="fill: #898781" transform="translate(25.714375 13.656094) scale(0.09 -0.09)">
       <use xlink:href="#Helvetica-31"/>
      </g>
     </g>
    </g>
    <g id="text_13">
     <!-- $W_t$ -->
     <g style="fill: #52514e" transform="translate(14.373438 149.985138) rotate(-90) scale(0.1 -0.1)">
      <defs>
       <path id="DejaVuSans-Oblique-57" d="M 616 4666 
L 1228 4666 
L 1453 697 
L 3213 4666 
L 3916 4666 
L 4147 697 
L 5888 4666 
L 6528 4666 
L 4453 0 
L 3659 0 
L 3444 3891 
L 1697 0 
L 903 0 
L 616 4666 
z
" transform="scale(0.015625)"/>
      </defs>
      <use xlink:href="#DejaVuSans-Oblique-57" transform="translate(0 0.09375)"/>
      <use xlink:href="#DejaVuSans-Oblique-74" transform="translate(98.876953 -16.3125) scale(0.7)"/>
     </g>
    </g>
   </g>
   <g id="line2d_17">
    <path d="M 34.219219 64.296283 
L 463.065219 64.296283 
" clip-path="url(#pa27cbbadb9)" style="fill: none; stroke: #c3c2b7; stroke-linecap: square"/>
   </g>
   <g id="patch_3">
    <path d="M 34.219219 278.776467 
L 34.219219 8.19381 
" style="fill: none; stroke: #c3c2b7; stroke-linejoin: miter; stroke-linecap: square"/>
   </g>
   <g id="patch_4">
    <path d="M 34.219219 278.776467 
L 463.065219 278.776467 
" style="fill: none; stroke: #c3c2b7; stroke-linejoin: miter; stroke-linecap: square"/>
   </g>
   <g id="line2d_18">
    <path d="M 34.219219 64.296283 
L 35.013378 63.562201 
L 35.807537 66.067586 
L 36.601697 64.259703 
L 37.395856 61.993826 
L 38.190015 66.693988 
L 38.984174 69.831017 
L 39.778334 69.523042 
L 40.572493 70.28489 
L 41.366652 70.325365 
L 42.160811 72.380399 
L 43.74913 68.388128 
L 44.543289 68.229056 
L 45.337448 65.513464 
L 46.131608 64.387205 
L 46.925767 66.457293 
L 47.719926 65.56895 
L 48.514085 67.878956 
L 49.308245 65.762716 
L 50.102404 65.882991 
L 50.896563 66.328336 
L 51.690722 67.968736 
L 52.484882 65.02356 
L 53.279041 65.395831 
L 54.0732 66.427698 
L 54.867359 67.27601 
L 55.661519 65.993644 
L 57.249837 64.11897 
L 58.043997 63.081096 
L 58.838156 57.921736 
L 59.632315 58.900815 
L 60.426474 60.134839 
L 61.220634 62.095267 
L 62.014793 60.611335 
L 62.808952 57.891572 
L 63.603111 58.166078 
L 65.19143 62.176292 
L 67.573908 57.509938 
L 68.368067 59.113191 
L 69.162226 58.553901 
L 69.956385 58.272797 
L 70.750545 57.745963 
L 71.544704 55.646638 
L 72.338863 55.107983 
L 73.133022 53.472439 
L 73.927182 53.309637 
L 74.721341 52.613131 
L 75.5155 51.092319 
L 76.309659 54.602696 
L 77.103819 55.372803 
L 77.897978 56.50596 
L 78.692137 58.045055 
L 79.486297 58.70789 
L 80.280456 55.106485 
L 81.074615 57.192325 
L 81.868774 54.859684 
L 82.662934 58.913819 
L 83.457093 59.720578 
L 84.251252 59.328495 
L 85.045411 57.91625 
L 86.63373 54.291641 
L 87.427889 55.13174 
L 88.222048 56.245574 
L 89.016208 54.178658 
L 89.810367 54.639522 
L 91.398685 60.442885 
L 92.192845 62.657902 
L 92.987004 61.460211 
L 93.781163 61.117099 
L 94.575322 59.453678 
L 95.369482 60.482955 
L 96.163641 60.101024 
L 96.9578 58.593938 
L 97.751959 59.339173 
L 98.546119 58.238774 
L 99.340278 59.833394 
L 100.928597 61.627642 
L 101.722756 64.508492 
L 102.516915 63.335346 
L 103.311074 64.466165 
L 104.105234 64.436066 
L 105.693552 62.202197 
L 106.487711 60.599244 
L 107.281871 60.836502 
L 108.07603 61.856253 
L 108.870189 62.048299 
L 110.458508 69.599372 
L 111.252667 72.785836 
L 112.046826 75.188264 
L 112.840985 74.225183 
L 113.635145 76.406537 
L 114.429304 77.317554 
L 115.223463 74.187634 
L 116.017622 75.045896 
L 116.811782 73.269176 
L 117.605941 75.518318 
L 118.4001 76.013229 
L 119.194259 78.30189 
L 119.988419 79.118641 
L 120.782578 77.094288 
L 121.576737 81.255508 
L 122.370897 80.208955 
L 123.165056 79.636235 
L 123.959215 81.067579 
L 124.753374 84.55122 
L 125.547534 84.377455 
L 126.341693 85.653036 
L 127.135852 85.092504 
L 127.930011 85.039861 
L 128.724171 81.181079 
L 129.51833 81.757701 
L 130.312489 84.223369 
L 131.900808 83.261497 
L 132.694967 79.987132 
L 133.489126 77.975298 
L 134.283285 77.115574 
L 135.077445 73.590388 
L 135.871604 76.454191 
L 136.665763 77.995391 
L 137.459922 80.227569 
L 138.254082 81.166644 
L 139.048241 84.483165 
L 139.8424 82.953048 
L 140.636559 83.488396 
L 141.430719 87.031657 
L 142.224878 89.478249 
L 143.019037 88.722975 
L 143.813197 86.703877 
L 144.607356 81.893631 
L 145.401515 74.87396 
L 146.195674 73.875622 
L 146.989834 76.25948 
L 147.783993 81.395709 
L 148.578152 80.750775 
L 149.372311 82.7092 
L 150.166471 83.709821 
L 150.96063 85.184399 
L 151.754789 85.523573 
L 152.548948 82.955562 
L 153.343108 82.577222 
L 154.137267 82.959383 
L 154.931426 85.454336 
L 155.725585 89.488749 
L 156.519745 90.660294 
L 157.313904 90.78986 
L 158.108063 86.530809 
L 158.902222 86.21697 
L 159.696382 83.849491 
L 160.490541 85.052324 
L 161.2847 87.906926 
L 162.078859 90.231951 
L 162.873019 91.979064 
L 163.667178 86.851451 
L 164.461337 88.830222 
L 165.255497 86.81025 
L 166.049656 88.985457 
L 166.843815 86.741241 
L 167.637974 85.813871 
L 168.432134 86.191221 
L 169.226293 86.28942 
L 170.020452 87.866844 
L 170.814611 86.792228 
L 171.608771 87.888311 
L 173.197089 93.919499 
L 173.991248 93.503725 
L 174.785408 89.699598 
L 175.579567 89.314168 
L 176.373726 89.599975 
L 177.167885 88.911403 
L 177.962045 85.765165 
L 178.756204 85.236659 
L 179.550363 86.226608 
L 180.344522 83.561491 
L 181.138682 82.528591 
L 181.932841 78.828862 
L 182.727 78.387439 
L 184.315319 84.633238 
L 185.903637 76.503636 
L 186.697797 76.936109 
L 187.491956 77.859231 
L 188.286115 74.338523 
L 189.080274 77.005463 
L 189.874434 79.160915 
L 190.668593 77.611101 
L 191.462752 78.561729 
L 192.256911 78.574068 
L 193.051071 78.967812 
L 193.84523 78.154574 
L 194.639389 74.763865 
L 195.433548 74.54564 
L 196.227708 72.994353 
L 197.021867 77.933342 
L 197.816026 78.050707 
L 198.610185 80.0821 
L 199.404345 83.018295 
L 200.198504 85.133817 
L 200.992663 85.938741 
L 201.786822 83.732276 
L 202.580982 86.927637 
L 203.375141 86.853844 
L 204.1693 88.020237 
L 204.963459 88.809622 
L 205.757619 86.393917 
L 206.551778 85.097564 
L 207.345937 81.875691 
L 208.140097 82.247905 
L 208.934256 83.924473 
L 209.728415 84.463762 
L 210.522574 83.879573 
L 211.316734 83.454197 
L 212.110893 86.066553 
L 212.905052 85.848558 
L 213.699211 85.298742 
L 214.493371 79.233994 
L 215.28753 74.712562 
L 216.081689 76.768077 
L 216.875848 77.460401 
L 217.670008 80.985921 
L 218.464167 82.40897 
L 219.258326 81.648659 
L 220.052485 78.743684 
L 221.640804 82.07597 
L 222.434963 87.24892 
L 223.229122 87.640792 
L 224.023282 90.200213 
L 224.817441 91.475664 
L 225.6116 93.588075 
L 226.405759 93.815159 
L 227.199919 98.049634 
L 227.994078 101.583835 
L 228.788237 96.454349 
L 229.582397 99.555829 
L 230.376556 102.198052 
L 231.170715 97.772815 
L 231.964874 90.774332 
L 232.759034 93.596707 
L 233.553193 94.483841 
L 234.347352 93.661013 
L 235.141511 89.496476 
L 235.935671 91.873874 
L 236.72983 92.464764 
L 237.523989 90.59211 
L 238.318148 89.544732 
L 239.112308 90.450915 
L 239.906467 90.773303 
L 240.700626 94.08551 
L 242.288945 95.301029 
L 243.083104 94.741718 
L 243.877263 96.079535 
L 244.671422 94.94357 
L 245.465582 92.503876 
L 246.259741 92.129437 
L 247.0539 91.282034 
L 247.848059 91.15398 
L 248.642219 91.153777 
L 249.436378 92.892054 
L 250.230537 92.1296 
L 251.024697 92.363969 
L 251.818856 87.3214 
L 252.613015 83.531092 
L 253.407174 82.601564 
L 254.201334 84.439815 
L 254.995493 87.119682 
L 255.789652 84.250147 
L 256.583811 83.617168 
L 257.377971 82.460473 
L 258.17213 86.663287 
L 258.966289 84.429031 
L 259.760448 83.334305 
L 260.554608 86.0094 
L 261.348767 87.145332 
L 262.142926 86.510021 
L 262.937085 86.383625 
L 263.731245 87.087483 
L 264.525404 87.336793 
L 265.319563 87.943822 
L 266.113722 87.576289 
L 266.907882 84.031376 
L 267.702041 90.214612 
L 268.4962 90.785199 
L 269.290359 90.359969 
L 270.084519 89.646902 
L 270.878678 90.542867 
L 271.672837 94.774916 
L 272.466997 93.984755 
L 273.261156 89.823464 
L 274.055315 93.518629 
L 274.849474 91.437615 
L 275.643634 92.229052 
L 276.437793 92.376786 
L 277.231952 94.913283 
L 278.026111 95.719008 
L 278.820271 92.587121 
L 279.61443 91.183469 
L 280.408589 87.010226 
L 281.202748 84.173769 
L 281.996908 83.115982 
L 282.791067 78.914738 
L 283.585226 77.857177 
L 284.379385 75.862503 
L 285.173545 76.576961 
L 285.967704 76.416648 
L 286.761863 78.096784 
L 287.556022 75.712816 
L 288.350182 78.551421 
L 289.144341 76.666692 
L 289.9385 77.125982 
L 290.732659 74.304376 
L 291.526819 72.495487 
L 292.320978 68.10944 
L 293.115137 66.34896 
L 293.909297 70.1361 
L 294.703456 70.297394 
L 295.497615 73.120831 
L 296.291774 74.369398 
L 297.085934 70.728757 
L 297.880093 69.1929 
L 298.674252 70.876665 
L 299.468411 73.318772 
L 300.262571 73.239798 
L 301.05673 76.170565 
L 301.850889 77.787383 
L 302.645048 77.035733 
L 303.439208 74.252516 
L 304.233367 72.785973 
L 305.027526 78.305829 
L 305.821685 77.572591 
L 306.615845 77.399058 
L 307.410004 76.401971 
L 308.204163 72.508423 
L 308.998322 77.47889 
L 309.792482 78.902894 
L 310.586641 77.479365 
L 311.3808 81.289522 
L 312.174959 77.733871 
L 312.969119 76.846477 
L 313.763278 74.807005 
L 314.557437 76.182443 
L 315.351597 74.222037 
L 316.145756 71.648024 
L 318.528234 69.871047 
L 319.322393 71.950898 
L 320.910711 72.67374 
L 321.704871 71.750121 
L 322.49903 69.341484 
L 323.293189 71.891561 
L 324.087348 72.192716 
L 324.881508 68.623799 
L 326.469826 72.395999 
L 327.263985 71.908631 
L 328.058145 69.874456 
L 328.852304 69.84693 
L 329.646463 66.645383 
L 331.234782 62.553318 
L 332.028941 61.218418 
L 332.8231 55.61096 
L 333.617259 56.105207 
L 334.411419 60.931814 
L 335.205578 57.067068 
L 335.999737 58.169694 
L 336.793897 57.909803 
L 337.588056 54.755016 
L 338.382215 58.614957 
L 339.176374 61.630251 
L 339.970534 65.487827 
L 340.764693 67.400949 
L 341.558852 66.341838 
L 342.353011 65.079037 
L 343.147171 64.413476 
L 343.94133 67.816915 
L 344.735489 73.382095 
L 345.529648 73.251153 
L 346.323808 74.387691 
L 347.117967 73.281002 
L 347.912126 71.589953 
L 348.706285 71.256921 
L 349.500445 69.425715 
L 350.294604 68.873531 
L 351.088763 67.596572 
L 351.882922 69.294173 
L 352.677082 69.726868 
L 353.471241 69.252822 
L 354.2654 67.276119 
L 355.059559 68.224666 
L 355.853719 66.969142 
L 356.647878 67.609564 
L 357.442037 67.89273 
L 358.236197 65.894369 
L 359.030356 70.695772 
L 360.618674 77.389727 
L 361.412834 83.01155 
L 362.206993 84.64553 
L 363.001152 82.840099 
L 363.795311 83.526402 
L 364.589471 83.049913 
L 365.38363 80.425922 
L 366.177789 77.227446 
L 366.971948 77.394003 
L 367.766108 74.133133 
L 368.560267 73.911194 
L 369.354426 75.928537 
L 370.148585 77.360484 
L 370.942745 80.927186 
L 371.736904 83.066754 
L 372.531063 83.929238 
L 373.325222 81.993353 
L 374.119382 77.847914 
L 374.913541 81.177673 
L 375.7077 80.231328 
L 376.501859 82.738062 
L 377.296019 81.594488 
L 378.090178 81.910283 
L 378.884337 86.321047 
L 379.678497 84.084723 
L 381.266815 86.828404 
L 382.060974 89.405503 
L 382.855134 90.981711 
L 383.649293 89.950897 
L 384.443452 90.406798 
L 386.031771 88.74314 
L 386.82593 85.561586 
L 387.620089 86.387378 
L 388.414248 89.945218 
L 389.208408 87.374215 
L 390.002567 88.17279 
L 390.796726 85.487669 
L 391.590885 84.56409 
L 392.385045 84.880009 
L 393.179204 84.039786 
L 394.767522 74.336106 
L 395.561682 74.168963 
L 396.355841 73.783054 
L 397.15 71.190326 
L 397.944159 73.227575 
L 398.738319 72.425188 
L 399.532478 72.487493 
L 400.326637 71.731269 
L 401.120797 73.738905 
L 401.914956 77.56827 
L 402.709115 82.562213 
L 403.503274 85.254059 
L 404.297434 86.359036 
L 405.091593 87.065352 
L 405.885752 82.398445 
L 406.679911 79.734039 
L 407.474071 82.051775 
L 408.26823 81.214125 
L 409.062389 82.194801 
L 409.856548 82.879851 
L 410.650708 82.43339 
L 411.444867 80.941769 
L 412.239026 81.759063 
L 413.033185 79.19618 
L 413.827345 81.947179 
L 414.621504 81.931908 
L 415.415663 75.673954 
L 416.209822 75.136541 
L 417.003982 71.68384 
L 417.798141 71.463363 
L 418.5923 70.064235 
L 419.386459 70.20103 
L 420.180619 70.611552 
L 420.974778 72.489372 
L 421.768937 71.45275 
L 422.563097 73.504155 
L 423.357256 71.90072 
L 424.151415 69.286197 
L 424.945574 68.403201 
L 425.739734 69.092792 
L 426.533893 67.999161 
L 427.328052 68.742773 
L 428.122211 66.488983 
L 428.916371 70.900952 
L 429.71053 71.70945 
L 430.504689 76.505437 
L 431.298848 80.10713 
L 431.298848 80.10713 
" clip-path="url(#pa27cbbadb9)" style="fill: none; stroke: #cde2fb; stroke-opacity: 0.9; stroke-width: 1.6; stroke-linecap: square"/>
   </g>
   <g id="line2d_19">
    <path d="M 34.219219 64.296283 
L 35.013378 61.010656 
L 35.807537 58.854101 
L 36.601697 60.587372 
L 37.395856 64.206994 
L 38.190015 71.348724 
L 38.984174 72.658038 
L 39.778334 66.827111 
L 40.572493 65.779449 
L 41.366652 67.127492 
L 42.160811 66.007086 
L 42.954971 69.767529 
L 43.74913 70.483799 
L 44.543289 70.244152 
L 45.337448 70.451574 
L 46.131608 68.546474 
L 46.925767 67.716203 
L 47.719926 66.106165 
L 48.514085 67.764495 
L 49.308245 65.601603 
L 50.102404 61.677395 
L 51.690722 66.153057 
L 52.484882 62.935072 
L 53.279041 63.396031 
L 54.0732 60.01414 
L 54.867359 61.080235 
L 55.661519 57.574942 
L 56.455678 57.258185 
L 57.249837 56.636096 
L 58.043997 52.866595 
L 58.838156 53.738122 
L 59.632315 56.005342 
L 60.426474 57.085961 
L 61.220634 55.996261 
L 62.014793 59.76827 
L 62.808952 58.232564 
L 63.603111 59.530496 
L 64.397271 56.765346 
L 65.19143 62.533264 
L 65.985589 64.428149 
L 66.779748 68.490953 
L 67.573908 70.48139 
L 68.368067 69.884748 
L 69.162226 70.316516 
L 69.956385 70.926918 
L 70.750545 71.310404 
L 71.544704 70.820429 
L 72.338863 73.250054 
L 73.927182 69.950808 
L 74.721341 69.023228 
L 75.5155 67.682505 
L 76.309659 66.968416 
L 77.103819 62.065801 
L 77.897978 62.275616 
L 78.692137 63.015398 
L 79.486297 64.830692 
L 80.280456 67.317475 
L 81.074615 70.315483 
L 81.868774 72.45665 
L 82.662934 72.626923 
L 83.457093 71.821586 
L 84.251252 71.698382 
L 85.045411 73.542603 
L 85.839571 71.374004 
L 86.63373 69.592714 
L 87.427889 69.977316 
L 88.222048 71.550231 
L 89.016208 70.229034 
L 89.810367 69.776195 
L 90.604526 73.264821 
L 91.398685 73.42859 
L 92.192845 72.79733 
L 92.987004 74.964749 
L 93.781163 74.507405 
L 94.575322 78.01216 
L 96.163641 71.78682 
L 96.9578 72.395149 
L 97.751959 71.519566 
L 98.546119 77.325214 
L 99.340278 80.110926 
L 100.134437 80.818657 
L 100.928597 83.401491 
L 101.722756 81.680466 
L 102.516915 76.868857 
L 103.311074 79.703394 
L 104.105234 81.720894 
L 104.899393 81.153685 
L 105.693552 77.272408 
L 106.487711 80.217182 
L 107.281871 79.617239 
L 108.07603 75.229619 
L 108.870189 79.208807 
L 109.664348 82.294981 
L 110.458508 83.315475 
L 111.252667 84.569604 
L 112.046826 82.611998 
L 112.840985 82.029825 
L 113.635145 86.305817 
L 114.429304 85.064162 
L 115.223463 86.455488 
L 116.017622 83.385267 
L 117.605941 86.430809 
L 118.4001 85.12719 
L 119.194259 83.289253 
L 119.988419 82.209755 
L 120.782578 86.270461 
L 121.576737 84.974303 
L 122.370897 87.466014 
L 123.165056 86.89922 
L 123.959215 90.329083 
L 124.753374 89.253866 
L 125.547534 91.197011 
L 126.341693 94.286956 
L 127.135852 92.56732 
L 127.930011 91.985184 
L 128.724171 93.464291 
L 129.51833 89.968313 
L 130.312489 91.029872 
L 131.106648 90.952522 
L 131.900808 90.304693 
L 132.694967 91.797506 
L 133.489126 90.66251 
L 134.283285 91.947629 
L 135.077445 92.939291 
L 135.871604 89.656602 
L 136.665763 92.163437 
L 137.459922 97.975972 
L 138.254082 94.095127 
L 139.048241 87.953641 
L 139.8424 88.929959 
L 140.636559 93.595919 
L 142.224878 95.033423 
L 143.019037 95.490961 
L 143.813197 98.17318 
L 145.401515 95.513412 
L 146.195674 99.113526 
L 146.989834 97.429119 
L 147.783993 92.484076 
L 148.578152 92.069813 
L 149.372311 92.88245 
L 150.166471 93.224544 
L 150.96063 91.742353 
L 151.754789 95.911646 
L 152.548948 95.515619 
L 153.343108 96.45627 
L 154.137267 92.004748 
L 154.931426 92.42434 
L 155.725585 88.406298 
L 156.519745 91.065276 
L 157.313904 89.650533 
L 158.108063 88.881078 
L 158.902222 90.974666 
L 159.696382 90.547308 
L 160.490541 87.626277 
L 161.2847 88.40631 
L 162.078859 92.482351 
L 162.873019 92.524661 
L 163.667178 94.698653 
L 164.461337 95.523373 
L 165.255497 95.719923 
L 166.843815 103.721162 
L 167.637974 102.559834 
L 168.432134 103.819095 
L 169.226293 109.99772 
L 170.020452 108.106983 
L 170.814611 107.450828 
L 171.608771 109.170595 
L 172.40293 112.342919 
L 173.197089 110.329407 
L 173.991248 109.4878 
L 174.785408 103.747967 
L 176.373726 101.801707 
L 177.167885 102.203846 
L 177.962045 100.236183 
L 178.756204 98.730315 
L 179.550363 95.714834 
L 181.138682 98.019655 
L 181.932841 99.173844 
L 182.727 97.268754 
L 183.521159 93.659079 
L 185.109478 95.78776 
L 185.903637 95.031129 
L 186.697797 95.623183 
L 187.491956 93.329628 
L 188.286115 98.754296 
L 189.874434 102.630767 
L 190.668593 108.220646 
L 192.256911 112.746776 
L 193.051071 113.23125 
L 193.84523 110.550047 
L 194.639389 111.140413 
L 195.433548 113.623706 
L 196.227708 113.760913 
L 197.021867 111.23339 
L 198.610185 115.778164 
L 199.404345 114.432586 
L 200.198504 114.96628 
L 200.992663 113.40645 
L 201.786822 113.439326 
L 202.580982 111.748975 
L 203.375141 114.242541 
L 204.1693 114.271654 
L 204.963459 114.779219 
L 205.757619 117.708374 
L 206.551778 121.474888 
L 207.345937 119.822877 
L 208.140097 120.668342 
L 208.934256 123.131077 
L 209.728415 123.362778 
L 210.522574 120.645312 
L 211.316734 126.139748 
L 212.110893 129.745242 
L 212.905052 131.968531 
L 213.699211 128.448463 
L 214.493371 127.767694 
L 215.28753 125.91918 
L 216.875848 131.362927 
L 217.670008 130.284116 
L 218.464167 130.14373 
L 219.258326 128.821785 
L 220.052485 129.273895 
L 220.846645 128.60383 
L 221.640804 128.222912 
L 223.229122 124.405091 
L 224.023282 128.307461 
L 224.817441 133.721267 
L 225.6116 131.308002 
L 226.405759 128.4467 
L 227.199919 130.905443 
L 227.994078 135.385899 
L 228.788237 135.147318 
L 229.582397 132.904873 
L 230.376556 128.574358 
L 231.170715 127.330566 
L 231.964874 128.226054 
L 232.759034 130.37766 
L 233.553193 130.350073 
L 234.347352 131.07102 
L 235.141511 133.51638 
L 236.72983 124.280224 
L 237.523989 121.543414 
L 238.318148 123.761799 
L 239.112308 121.702005 
L 239.906467 120.161106 
L 240.700626 119.094987 
L 241.494785 116.084467 
L 242.288945 114.55382 
L 243.877263 111.236735 
L 244.671422 110.415747 
L 245.465582 114.712575 
L 246.259741 114.511127 
L 247.0539 115.851027 
L 247.848059 118.934241 
L 249.436378 110.717388 
L 250.230537 107.442943 
L 251.024697 106.828119 
L 251.818856 103.574381 
L 252.613015 103.545344 
L 253.407174 103.056793 
L 254.201334 105.691032 
L 254.995493 104.734656 
L 255.789652 104.589182 
L 256.583811 107.72735 
L 258.17213 108.042761 
L 258.966289 103.712327 
L 259.760448 101.558112 
L 260.554608 101.53054 
L 261.348767 100.931196 
L 262.142926 100.824686 
L 262.937085 101.313518 
L 263.731245 103.921151 
L 264.525404 104.285044 
L 265.319563 106.08244 
L 266.113722 109.094526 
L 266.907882 107.862961 
L 267.702041 106.920381 
L 268.4962 111.224668 
L 269.290359 111.520223 
L 271.672837 104.09848 
L 272.466997 104.004736 
L 273.261156 106.040501 
L 274.055315 108.651198 
L 275.643634 106.907315 
L 276.437793 103.806056 
L 277.231952 101.156138 
L 278.026111 101.474685 
L 278.820271 104.472053 
L 279.61443 105.2408 
L 280.408589 104.717477 
L 281.202748 105.204307 
L 281.996908 106.596489 
L 282.791067 105.987275 
L 283.585226 107.201339 
L 284.379385 108.714389 
L 285.173545 107.96408 
L 285.967704 108.932504 
L 287.556022 107.686277 
L 288.350182 110.431231 
L 289.144341 111.59057 
L 289.9385 108.126878 
L 290.732659 110.926398 
L 292.320978 120.510845 
L 293.909297 120.366236 
L 294.703456 120.649568 
L 295.497615 117.724511 
L 296.291774 124.163531 
L 297.085934 123.209702 
L 297.880093 119.448103 
L 298.674252 122.164995 
L 299.468411 123.079972 
L 300.262571 124.893735 
L 301.05673 127.048269 
L 301.850889 127.834254 
L 302.645048 124.395355 
L 303.439208 119.968979 
L 304.233367 120.778277 
L 305.027526 116.188871 
L 305.821685 116.103165 
L 306.615845 111.878417 
L 307.410004 112.103179 
L 308.204163 111.787453 
L 308.998322 110.907002 
L 309.792482 103.248951 
L 310.586641 101.198152 
L 311.3808 102.901995 
L 312.174959 100.567621 
L 312.969119 101.439297 
L 313.763278 102.619135 
L 314.557437 100.430259 
L 315.351597 100.355372 
L 316.145756 99.684266 
L 316.939915 99.650575 
L 317.734074 98.839725 
L 318.528234 97.815957 
L 319.322393 102.482228 
L 320.116552 100.876414 
L 320.910711 103.242158 
L 321.704871 106.716744 
L 322.49903 106.857461 
L 323.293189 106.655145 
L 324.087348 108.325844 
L 324.881508 106.323838 
L 325.675667 109.557219 
L 326.469826 110.537571 
L 327.263985 111.946569 
L 328.058145 112.0588 
L 328.852304 111.386999 
L 329.646463 113.815074 
L 330.440622 112.070234 
L 331.234782 111.918457 
L 332.8231 121.194636 
L 333.617259 121.224314 
L 334.411419 121.756638 
L 335.205578 122.005783 
L 335.999737 122.073195 
L 336.793897 121.529807 
L 337.588056 119.246862 
L 339.970534 127.380815 
L 340.764693 126.684797 
L 341.558852 123.685644 
L 342.353011 124.724767 
L 343.147171 130.751513 
L 343.94133 134.856536 
L 344.735489 136.863372 
L 345.529648 138.206975 
L 346.323808 139.190808 
L 347.117967 139.097863 
L 347.912126 139.848879 
L 348.706285 137.320956 
L 349.500445 138.949523 
L 350.294604 141.026899 
L 351.088763 139.873259 
L 351.882922 143.572714 
L 352.677082 142.633923 
L 353.471241 142.386866 
L 354.2654 142.742064 
L 355.059559 138.915811 
L 355.853719 140.414746 
L 356.647878 135.451363 
L 357.442037 135.994441 
L 358.236197 139.070851 
L 359.030356 138.90241 
L 359.824515 141.49515 
L 360.618674 143.306176 
L 361.412834 142.349699 
L 362.206993 141.011268 
L 363.001152 142.510107 
L 363.795311 140.131388 
L 364.589471 137.342882 
L 365.38363 133.882744 
L 366.177789 132.607355 
L 366.971948 129.322772 
L 367.766108 133.85373 
L 368.560267 134.619586 
L 369.354426 136.708254 
L 370.148585 136.421032 
L 370.942745 137.797688 
L 371.736904 138.197972 
L 372.531063 133.663699 
L 373.325222 134.072564 
L 374.119382 133.075713 
L 374.913541 133.635264 
L 375.7077 133.452866 
L 376.501859 133.438372 
L 377.296019 132.358332 
L 378.090178 129.551035 
L 378.884337 125.582363 
L 379.678497 124.836469 
L 380.472656 123.416215 
L 381.266815 126.188717 
L 382.060974 126.400418 
L 383.649293 122.049032 
L 384.443452 121.539252 
L 385.237611 119.403875 
L 386.031771 118.221588 
L 386.82593 115.329977 
L 387.620089 114.632893 
L 388.414248 115.489792 
L 389.208408 114.68073 
L 390.002567 121.74071 
L 390.796726 120.818315 
L 391.590885 129.607563 
L 392.385045 133.759491 
L 393.973363 131.520756 
L 394.767522 134.321118 
L 395.561682 136.036615 
L 396.355841 132.734898 
L 397.15 133.900956 
L 397.944159 128.497625 
L 398.738319 128.50225 
L 399.532478 127.519266 
L 400.326637 123.624117 
L 401.120797 123.308465 
L 401.914956 125.723173 
L 402.709115 125.987513 
L 403.503274 126.073301 
L 404.297434 129.361047 
L 405.091593 129.977362 
L 405.885752 131.765348 
L 406.679911 129.538514 
L 407.474071 129.455132 
L 408.26823 130.136404 
L 409.062389 130.392202 
L 409.856548 129.854688 
L 410.650708 128.368745 
L 412.239026 133.28636 
L 413.033185 130.625121 
L 413.827345 131.618466 
L 414.621504 135.031724 
L 416.209822 132.846266 
L 417.003982 136.533853 
L 417.798141 135.981017 
L 418.5923 134.208953 
L 419.386459 133.307033 
L 420.180619 131.784551 
L 420.974778 135.167521 
L 421.768937 134.370025 
L 422.563097 135.099054 
L 423.357256 136.262125 
L 424.151415 134.164904 
L 424.945574 130.601242 
L 425.739734 126.278495 
L 426.533893 123.111043 
L 427.328052 123.3754 
L 428.122211 122.525675 
L 428.916371 120.678352 
L 430.504689 120.071408 
L 431.298848 118.086937 
L 431.298848 118.086937 
" clip-path="url(#pa27cbbadb9)" style="fill: none; stroke: #9ec5f4; stroke-opacity: 0.9; stroke-width: 1.6; stroke-linecap: square"/>
   </g>
   <g id="line2d_20">
    <path d="M 34.219219 64.296283 
L 35.013378 64.439098 
L 35.807537 66.195995 
L 36.601697 67.194486 
L 37.395856 65.667357 
L 38.190015 65.660146 
L 38.984174 64.840559 
L 39.778334 63.226298 
L 40.572493 64.129314 
L 41.366652 62.307466 
L 42.160811 61.394811 
L 42.954971 64.369551 
L 43.74913 60.894951 
L 44.543289 62.101275 
L 45.337448 66.088501 
L 46.925767 71.065834 
L 47.719926 70.940146 
L 48.514085 71.599868 
L 49.308245 72.411317 
L 50.102404 70.918417 
L 52.484882 68.350956 
L 53.279041 66.866651 
L 54.0732 71.944838 
L 54.867359 72.822792 
L 55.661519 78.075051 
L 57.249837 77.999341 
L 58.838156 72.619507 
L 59.632315 72.13101 
L 60.426474 73.33641 
L 61.220634 72.167627 
L 62.014793 73.439413 
L 62.808952 73.442768 
L 63.603111 71.067106 
L 64.397271 72.410811 
L 65.19143 70.469882 
L 65.985589 68.837981 
L 66.779748 71.138132 
L 67.573908 68.791962 
L 68.368067 67.109073 
L 69.162226 66.863528 
L 70.750545 70.769891 
L 71.544704 72.065153 
L 72.338863 70.75801 
L 73.133022 73.060169 
L 73.927182 72.006175 
L 74.721341 74.99764 
L 75.5155 75.489253 
L 76.309659 75.225105 
L 77.103819 69.334638 
L 77.897978 72.652675 
L 78.692137 69.106503 
L 79.486297 68.745523 
L 80.280456 67.754985 
L 81.074615 67.469878 
L 81.868774 66.398504 
L 82.662934 66.768741 
L 83.457093 63.265845 
L 84.251252 64.365512 
L 85.045411 61.63789 
L 85.839571 63.19021 
L 86.63373 63.33536 
L 87.427889 65.917783 
L 88.222048 64.821603 
L 89.016208 61.340207 
L 89.810367 61.526563 
L 90.604526 62.000872 
L 91.398685 64.686052 
L 92.192845 65.238432 
L 92.987004 69.07557 
L 93.781163 71.274749 
L 94.575322 70.728408 
L 95.369482 67.550825 
L 96.163641 60.783265 
L 96.9578 62.196384 
L 97.751959 58.738659 
L 98.546119 58.151444 
L 99.340278 58.515809 
L 100.134437 57.473663 
L 100.928597 57.324502 
L 101.722756 57.058552 
L 102.516915 58.042252 
L 104.105234 65.12907 
L 104.899393 63.555363 
L 105.693552 64.22195 
L 106.487711 65.657965 
L 107.281871 65.637474 
L 108.07603 63.722434 
L 108.870189 63.287926 
L 109.664348 64.868402 
L 110.458508 61.914188 
L 111.252667 58.109834 
L 112.046826 56.918417 
L 112.840985 54.572803 
L 114.429304 48.858368 
L 116.017622 45.937511 
L 116.811782 44.685617 
L 117.605941 47.329171 
L 118.4001 45.641086 
L 119.194259 48.907324 
L 119.988419 50.821562 
L 120.782578 47.681195 
L 121.576737 45.657054 
L 122.370897 42.073821 
L 123.165056 42.728301 
L 123.959215 45.504138 
L 124.753374 46.083366 
L 126.341693 45.647278 
L 127.135852 42.916173 
L 127.930011 43.786495 
L 128.724171 42.938423 
L 129.51833 45.320086 
L 130.312489 44.235244 
L 131.106648 44.227755 
L 131.900808 46.034101 
L 134.283285 47.696739 
L 135.077445 43.42947 
L 135.871604 43.666633 
L 136.665763 44.254193 
L 137.459922 49.30708 
L 138.254082 51.46128 
L 139.048241 52.09504 
L 139.8424 53.747301 
L 140.636559 50.418683 
L 141.430719 50.816028 
L 142.224878 47.712088 
L 143.813197 47.473753 
L 144.607356 47.687669 
L 145.401515 47.678524 
L 146.195674 43.537842 
L 147.783993 53.947771 
L 148.578152 55.256302 
L 149.372311 55.221304 
L 150.166471 53.5588 
L 150.96063 52.419105 
L 151.754789 53.344776 
L 153.343108 48.408035 
L 154.137267 47.964628 
L 154.931426 45.645528 
L 155.725585 44.988709 
L 156.519745 46.341356 
L 157.313904 44.660272 
L 158.108063 44.393799 
L 158.902222 44.390571 
L 159.696382 40.842136 
L 160.490541 46.746436 
L 161.2847 50.161723 
L 162.078859 53.021448 
L 162.873019 53.896565 
L 163.667178 54.509932 
L 164.461337 58.141171 
L 166.049656 62.588296 
L 166.843815 56.668212 
L 167.637974 52.327706 
L 169.226293 54.19553 
L 170.020452 56.964032 
L 170.814611 61.560834 
L 171.608771 61.842406 
L 172.40293 64.246292 
L 173.197089 64.450702 
L 173.991248 68.305695 
L 174.785408 70.141338 
L 175.579567 69.783286 
L 177.167885 67.89535 
L 177.962045 71.076488 
L 178.756204 69.017498 
L 179.550363 70.945256 
L 180.344522 69.420663 
L 181.138682 69.446293 
L 181.932841 72.762094 
L 182.727 73.523833 
L 183.521159 72.64365 
L 184.315319 71.166979 
L 185.109478 71.506627 
L 185.903637 67.816479 
L 186.697797 65.389324 
L 187.491956 66.00762 
L 188.286115 64.200531 
L 189.874434 54.818978 
L 190.668593 57.777304 
L 191.462752 60.009379 
L 192.256911 56.432119 
L 193.051071 58.981583 
L 193.84523 62.167665 
L 194.639389 63.338936 
L 195.433548 62.326584 
L 196.227708 62.573264 
L 198.610185 67.480793 
L 199.404345 69.599585 
L 200.198504 64.102993 
L 200.992663 63.386271 
L 201.786822 61.250015 
L 202.580982 62.428232 
L 203.375141 62.876213 
L 204.1693 64.595208 
L 204.963459 70.983334 
L 205.757619 74.303042 
L 206.551778 78.664933 
L 207.345937 84.084798 
L 208.140097 86.964491 
L 208.934256 83.772592 
L 209.728415 83.879642 
L 210.522574 80.770595 
L 211.316734 79.780513 
L 212.110893 77.895281 
L 212.905052 80.065597 
L 213.699211 78.803367 
L 214.493371 77.04785 
L 215.28753 78.437029 
L 216.875848 75.725081 
L 217.670008 77.048987 
L 219.258326 82.606441 
L 220.052485 82.398044 
L 220.846645 81.610258 
L 221.640804 83.5195 
L 222.434963 83.455455 
L 224.023282 80.591737 
L 224.817441 76.853164 
L 225.6116 73.77684 
L 226.405759 76.189011 
L 227.199919 72.13315 
L 227.994078 73.412305 
L 228.788237 70.895143 
L 229.582397 70.731359 
L 230.376556 71.724252 
L 231.170715 76.079103 
L 231.964874 76.492412 
L 232.759034 80.249061 
L 233.553193 77.918779 
L 234.347352 74.264733 
L 235.141511 76.18454 
L 235.935671 75.457074 
L 237.523989 78.718644 
L 238.318148 76.85284 
L 239.112308 76.945681 
L 239.906467 72.754763 
L 240.700626 73.91649 
L 241.494785 71.509028 
L 242.288945 71.274353 
L 243.083104 69.357276 
L 243.877263 70.434506 
L 244.671422 70.553896 
L 245.465582 70.83214 
L 246.259741 72.846252 
L 248.642219 68.254859 
L 250.230537 61.060656 
L 251.024697 61.96392 
L 251.818856 61.065214 
L 252.613015 62.567506 
L 253.407174 62.511242 
L 254.201334 63.956075 
L 254.995493 60.053227 
L 255.789652 59.177056 
L 256.583811 59.702302 
L 257.377971 56.826802 
L 258.966289 66.908042 
L 259.760448 64.990818 
L 260.554608 64.845146 
L 261.348767 64.241806 
L 262.142926 67.437174 
L 262.937085 67.493146 
L 263.731245 62.66657 
L 264.525404 60.681023 
L 265.319563 60.27219 
L 266.907882 62.280447 
L 267.702041 67.409814 
L 268.4962 66.789143 
L 269.290359 64.752323 
L 270.084519 68.548085 
L 270.878678 70.141479 
L 271.672837 72.929881 
L 272.466997 75.255471 
L 273.261156 75.12663 
L 274.055315 80.148082 
L 274.849474 78.668267 
L 275.643634 76.852184 
L 276.437793 77.457106 
L 277.231952 83.433283 
L 278.026111 85.833716 
L 278.820271 82.863581 
L 279.61443 89.555938 
L 280.408589 90.393143 
L 281.202748 93.235836 
L 281.996908 91.297577 
L 282.791067 92.923968 
L 283.585226 91.950818 
L 284.379385 90.58859 
L 285.173545 86.16501 
L 285.967704 86.65391 
L 286.761863 85.747996 
L 287.556022 89.325585 
L 288.350182 86.457806 
L 289.144341 88.289918 
L 289.9385 89.640809 
L 290.732659 89.694405 
L 291.526819 93.459489 
L 292.320978 92.908368 
L 293.115137 90.577683 
L 293.909297 89.871987 
L 294.703456 93.699738 
L 295.497615 93.998002 
L 296.291774 92.210409 
L 297.085934 96.734598 
L 297.880093 99.323775 
L 298.674252 97.212128 
L 299.468411 96.561452 
L 300.262571 95.568987 
L 301.05673 91.089351 
L 301.850889 89.960579 
L 302.645048 88.375687 
L 303.439208 81.845337 
L 304.233367 82.360405 
L 305.027526 84.282553 
L 306.615845 82.194409 
L 307.410004 83.463299 
L 308.204163 85.950406 
L 308.998322 80.38585 
L 309.792482 79.598464 
L 310.586641 81.362584 
L 311.3808 79.156053 
L 312.174959 79.41899 
L 312.969119 80.028197 
L 313.763278 78.673647 
L 314.557437 81.78587 
L 315.351597 80.93637 
L 316.145756 76.327945 
L 316.939915 75.204895 
L 317.734074 76.111213 
L 318.528234 77.33286 
L 319.322393 78.321394 
L 320.116552 78.933206 
L 320.910711 79.843365 
L 321.704871 77.635915 
L 322.49903 81.811321 
L 323.293189 79.73471 
L 324.087348 80.649398 
L 324.881508 79.741308 
L 325.675667 82.45629 
L 327.263985 76.254727 
L 328.058145 73.943015 
L 328.852304 77.592152 
L 329.646463 75.594749 
L 330.440622 74.619428 
L 331.234782 78.486624 
L 332.028941 78.545158 
L 332.8231 77.666972 
L 333.617259 76.327353 
L 334.411419 75.90032 
L 335.205578 75.198725 
L 335.999737 71.648706 
L 336.793897 68.695116 
L 337.588056 75.602025 
L 338.382215 76.366754 
L 339.176374 76.763409 
L 339.970534 80.98432 
L 340.764693 80.757428 
L 341.558852 77.749094 
L 342.353011 80.366702 
L 343.147171 79.556292 
L 343.94133 81.762566 
L 344.735489 83.381243 
L 345.529648 79.822112 
L 346.323808 81.129167 
L 347.117967 80.015669 
L 347.912126 84.523547 
L 348.706285 80.037111 
L 349.500445 78.585285 
L 350.294604 79.024938 
L 351.088763 77.638411 
L 351.882922 81.034752 
L 352.677082 78.185964 
L 353.471241 78.966463 
L 354.2654 79.458079 
L 355.059559 80.642507 
L 355.853719 82.041331 
L 356.647878 80.367828 
L 357.442037 79.751332 
L 358.236197 78.181232 
L 359.030356 78.202419 
L 359.824515 76.966089 
L 360.618674 77.975121 
L 361.412834 72.603562 
L 362.206993 76.380801 
L 363.795311 70.047754 
L 364.589471 72.100657 
L 365.38363 66.730201 
L 366.971948 61.992472 
L 367.766108 61.924965 
L 369.354426 62.952754 
L 370.148585 62.011942 
L 370.942745 58.6364 
L 371.736904 58.199603 
L 372.531063 60.395326 
L 374.913541 54.613008 
L 375.7077 52.817056 
L 376.501859 53.469738 
L 378.090178 57.79926 
L 378.884337 61.739191 
L 379.678497 61.168367 
L 380.472656 61.3694 
L 381.266815 62.429357 
L 382.060974 69.549623 
L 382.855134 72.554486 
L 383.649293 69.854313 
L 384.443452 71.455437 
L 385.237611 70.58675 
L 386.031771 73.936996 
L 386.82593 70.471067 
L 387.620089 70.818038 
L 388.414248 70.119313 
L 389.208408 64.516368 
L 390.002567 60.863172 
L 390.796726 61.601707 
L 391.590885 63.030811 
L 392.385045 63.815069 
L 393.179204 62.586693 
L 393.973363 62.840184 
L 394.767522 63.792351 
L 395.561682 60.257822 
L 396.355841 60.532961 
L 397.15 54.993111 
L 397.944159 54.774507 
L 398.738319 50.473566 
L 399.532478 49.612762 
L 400.326637 47.292932 
L 401.120797 49.038564 
L 401.914956 51.095322 
L 402.709115 49.987862 
L 403.503274 47.606377 
L 404.297434 47.509397 
L 405.885752 53.885342 
L 406.679911 57.3234 
L 407.474071 61.581709 
L 408.26823 61.317952 
L 409.062389 58.607653 
L 409.856548 58.639972 
L 410.650708 64.085449 
L 412.239026 64.937195 
L 413.033185 59.887807 
L 413.827345 63.39814 
L 414.621504 64.339306 
L 415.415663 60.229804 
L 416.209822 59.145779 
L 417.003982 57.788723 
L 417.798141 57.512682 
L 418.5923 56.717828 
L 419.386459 54.84452 
L 420.180619 56.794621 
L 420.974778 54.679325 
L 421.768937 57.986973 
L 422.563097 57.195914 
L 423.357256 56.765316 
L 424.151415 58.250004 
L 424.945574 58.304654 
L 425.739734 59.804391 
L 426.533893 62.386185 
L 427.328052 63.238064 
L 428.122211 65.89764 
L 428.916371 65.120001 
L 429.71053 67.890627 
L 430.504689 66.175431 
L 431.298848 69.021686 
L 431.298848 69.021686 
" clip-path="url(#pa27cbbadb9)" style="fill: none; stroke: #6da7ec; stroke-opacity: 0.9; stroke-width: 1.6; stroke-linecap: square"/>
   </g>
   <g id="line2d_21">
    <path d="M 34.219219 64.296283 
L 35.807537 67.165229 
L 36.601697 63.97287 
L 37.395856 63.177182 
L 38.190015 63.687261 
L 38.984174 62.485816 
L 39.778334 67.56217 
L 40.572493 67.666082 
L 41.366652 62.853949 
L 42.160811 62.535118 
L 42.954971 62.371511 
L 43.74913 61.051036 
L 44.543289 58.893469 
L 45.337448 63.705487 
L 46.131608 67.758314 
L 46.925767 67.25171 
L 47.719926 68.973891 
L 48.514085 65.813142 
L 49.308245 66.572416 
L 50.102404 71.232818 
L 50.896563 74.287541 
L 51.690722 80.911678 
L 53.279041 81.929529 
L 54.0732 82.952085 
L 55.661519 77.465693 
L 56.455678 77.876169 
L 57.249837 83.018776 
L 58.838156 80.193811 
L 59.632315 79.448468 
L 60.426474 77.084023 
L 61.220634 79.890165 
L 62.014793 75.050951 
L 62.808952 77.362271 
L 63.603111 75.557347 
L 64.397271 79.62227 
L 65.19143 81.863335 
L 65.985589 78.21031 
L 66.779748 78.838834 
L 67.573908 76.815409 
L 68.368067 76.244569 
L 69.162226 76.49742 
L 69.956385 73.211822 
L 70.750545 73.781947 
L 71.544704 78.071853 
L 72.338863 80.006908 
L 73.133022 78.679053 
L 73.927182 77.726248 
L 74.721341 81.501386 
L 75.5155 83.246371 
L 76.309659 84.647774 
L 77.103819 85.528212 
L 77.897978 88.842871 
L 78.692137 90.356656 
L 79.486297 92.111922 
L 81.074615 88.30403 
L 81.868774 88.655296 
L 82.662934 89.599744 
L 83.457093 89.262657 
L 84.251252 91.229836 
L 85.045411 93.992625 
L 85.839571 96.257675 
L 86.63373 97.786978 
L 87.427889 100.589857 
L 88.222048 100.199446 
L 89.016208 98.441516 
L 89.810367 102.264933 
L 90.604526 102.204396 
L 91.398685 102.734235 
L 92.192845 101.91152 
L 92.987004 101.94269 
L 94.575322 108.485671 
L 95.369482 108.414788 
L 96.163641 105.936392 
L 96.9578 111.270504 
L 97.751959 110.437628 
L 98.546119 107.571756 
L 99.340278 107.940405 
L 100.134437 106.614934 
L 100.928597 108.30867 
L 101.722756 108.59623 
L 102.516915 112.501109 
L 103.311074 118.148775 
L 104.105234 115.877595 
L 104.899393 118.250507 
L 105.693552 119.347901 
L 107.281871 126.084628 
L 108.07603 126.503413 
L 108.870189 128.261009 
L 109.664348 127.350454 
L 110.458508 126.260261 
L 111.252667 125.487315 
L 112.046826 124.912511 
L 112.840985 121.111572 
L 113.635145 123.68347 
L 114.429304 123.815812 
L 116.017622 118.04074 
L 116.811782 121.465855 
L 117.605941 122.218338 
L 118.4001 118.946542 
L 119.194259 117.722548 
L 119.988419 117.252148 
L 120.782578 117.776564 
L 121.576737 118.701163 
L 122.370897 118.006826 
L 123.165056 118.614811 
L 123.959215 118.717385 
L 124.753374 118.528036 
L 125.547534 120.161552 
L 126.341693 118.87962 
L 127.135852 111.859027 
L 127.930011 116.139896 
L 128.724171 115.35933 
L 129.51833 117.190674 
L 130.312489 115.799676 
L 131.106648 115.687517 
L 131.900808 113.852162 
L 132.694967 111.020295 
L 133.489126 110.556741 
L 134.283285 107.829559 
L 135.077445 113.477115 
L 135.871604 109.645618 
L 136.665763 108.742071 
L 137.459922 106.145481 
L 138.254082 109.084235 
L 139.048241 111.085611 
L 139.8424 110.734036 
L 140.636559 110.775082 
L 141.430719 110.093152 
L 142.224878 107.480489 
L 143.019037 111.733012 
L 143.813197 109.387023 
L 144.607356 109.367071 
L 145.401515 109.857994 
L 146.195674 113.402 
L 146.989834 112.190125 
L 147.783993 118.005858 
L 148.578152 116.443837 
L 149.372311 120.038411 
L 150.166471 119.909628 
L 150.96063 120.196713 
L 151.754789 117.379224 
L 152.548948 117.809615 
L 153.343108 119.481837 
L 154.137267 120.702274 
L 154.931426 117.635822 
L 155.725585 116.34385 
L 156.519745 117.272856 
L 157.313904 117.84247 
L 158.108063 121.617895 
L 158.902222 120.682037 
L 159.696382 124.92154 
L 160.490541 123.110416 
L 161.2847 122.800559 
L 162.078859 117.050247 
L 162.873019 119.700541 
L 163.667178 119.94786 
L 164.461337 115.615675 
L 165.255497 112.745545 
L 166.049656 114.422763 
L 166.843815 113.883211 
L 167.637974 113.878395 
L 168.432134 113.199146 
L 169.226293 114.88231 
L 170.020452 115.097488 
L 170.814611 118.947293 
L 171.608771 118.621773 
L 172.40293 117.537645 
L 173.197089 118.085513 
L 173.991248 121.976268 
L 174.785408 119.594835 
L 175.579567 118.716672 
L 176.373726 120.465687 
L 177.167885 121.14167 
L 177.962045 124.756874 
L 178.756204 127.227149 
L 179.550363 128.522769 
L 180.344522 125.563429 
L 181.138682 127.104031 
L 181.932841 125.561718 
L 182.727 126.858554 
L 183.521159 126.261234 
L 184.315319 126.601864 
L 185.109478 124.498618 
L 185.903637 125.787011 
L 187.491956 132.904526 
L 188.286115 134.185851 
L 189.080274 137.194912 
L 189.874434 136.206687 
L 190.668593 137.32875 
L 191.462752 131.608179 
L 192.256911 135.794439 
L 193.051071 135.303874 
L 193.84523 138.021182 
L 194.639389 139.209815 
L 195.433548 138.869127 
L 196.227708 144.471088 
L 197.021867 143.90056 
L 197.816026 139.31634 
L 198.610185 140.4087 
L 199.404345 139.782808 
L 200.198504 137.313709 
L 200.992663 137.708683 
L 201.786822 139.108251 
L 202.580982 144.590639 
L 203.375141 143.046453 
L 204.1693 143.319083 
L 204.963459 145.758699 
L 205.757619 145.45372 
L 207.345937 148.132852 
L 208.140097 146.67226 
L 208.934256 149.896505 
L 209.728415 147.373459 
L 210.522574 150.740569 
L 211.316734 152.337057 
L 212.110893 147.704563 
L 212.905052 144.988697 
L 213.699211 144.753563 
L 214.493371 147.019358 
L 215.28753 148.294407 
L 216.875848 148.027486 
L 217.670008 148.2464 
L 218.464167 148.320677 
L 219.258326 148.83712 
L 220.052485 152.310934 
L 220.846645 153.55524 
L 221.640804 151.351855 
L 222.434963 154.648256 
L 223.229122 155.104906 
L 224.023282 157.079743 
L 224.817441 156.811493 
L 225.6116 157.747734 
L 226.405759 154.188603 
L 227.199919 152.968214 
L 227.994078 156.128427 
L 228.788237 154.511398 
L 229.582397 156.377581 
L 230.376556 157.767601 
L 231.170715 157.011592 
L 231.964874 158.196241 
L 232.759034 156.045297 
L 233.553193 157.911139 
L 235.935671 162.346114 
L 236.72983 159.698095 
L 237.523989 158.183287 
L 238.318148 154.063928 
L 239.112308 148.601035 
L 239.906467 151.084095 
L 240.700626 150.914451 
L 241.494785 153.747989 
L 242.288945 155.621289 
L 243.083104 157.139196 
L 244.671422 162.220007 
L 245.465582 162.567596 
L 246.259741 165.498745 
L 247.0539 163.47001 
L 247.848059 165.680934 
L 248.642219 158.912512 
L 249.436378 159.999924 
L 250.230537 159.826429 
L 251.024697 162.946985 
L 251.818856 158.836906 
L 252.613015 156.139961 
L 253.407174 155.424673 
L 254.201334 158.669202 
L 254.995493 158.161693 
L 255.789652 160.863288 
L 256.583811 157.340386 
L 257.377971 155.390986 
L 258.17213 155.161068 
L 258.966289 161.030445 
L 259.760448 163.399554 
L 260.554608 161.742695 
L 262.142926 156.148727 
L 262.937085 159.983983 
L 263.731245 159.257526 
L 264.525404 156.811088 
L 265.319563 160.806119 
L 266.113722 160.825161 
L 266.907882 160.165458 
L 267.702041 160.890018 
L 268.4962 165.351989 
L 270.084519 166.925114 
L 270.878678 167.28183 
L 271.672837 168.639266 
L 272.466997 169.70651 
L 273.261156 169.802164 
L 274.055315 168.736264 
L 274.849474 169.469647 
L 275.643634 170.456516 
L 276.437793 170.23403 
L 277.231952 174.861633 
L 278.026111 173.712426 
L 279.61443 173.618159 
L 280.408589 171.303691 
L 281.996908 180.763228 
L 282.791067 180.103618 
L 283.585226 180.120763 
L 284.379385 179.710796 
L 285.173545 180.824089 
L 285.967704 179.22362 
L 286.761863 176.976837 
L 287.556022 175.810894 
L 288.350182 176.439246 
L 289.144341 181.516797 
L 289.9385 179.663661 
L 290.732659 176.720442 
L 291.526819 175.167662 
L 292.320978 177.286774 
L 293.115137 175.663562 
L 293.909297 173.590494 
L 294.703456 169.835211 
L 295.497615 171.945813 
L 296.291774 172.491356 
L 297.085934 170.691132 
L 297.880093 170.552827 
L 298.674252 173.244537 
L 299.468411 172.245702 
L 300.262571 170.851671 
L 301.05673 170.639763 
L 301.850889 170.110769 
L 302.645048 170.734007 
L 303.439208 167.172744 
L 304.233367 169.342566 
L 305.027526 170.757457 
L 305.821685 170.730993 
L 306.615845 168.613539 
L 308.204163 175.377386 
L 308.998322 180.286398 
L 309.792482 180.207633 
L 310.586641 182.9017 
L 311.3808 183.828104 
L 312.174959 182.234804 
L 312.969119 183.78032 
L 313.763278 183.223147 
L 314.557437 183.94427 
L 315.351597 182.325106 
L 316.145756 181.180494 
L 316.939915 182.847404 
L 317.734074 183.253696 
L 318.528234 180.739255 
L 319.322393 179.791586 
L 320.116552 183.156953 
L 320.910711 181.577529 
L 321.704871 184.190422 
L 322.49903 180.787592 
L 323.293189 178.320476 
L 324.087348 177.622124 
L 324.881508 177.243341 
L 325.675667 177.746912 
L 326.469826 176.112307 
L 327.263985 177.005534 
L 328.058145 176.438032 
L 328.852304 174.337489 
L 330.440622 177.175361 
L 332.028941 182.617039 
L 332.8231 187.021755 
L 333.617259 185.263553 
L 334.411419 180.905768 
L 335.205578 177.472064 
L 335.999737 181.3894 
L 336.793897 179.643181 
L 337.588056 176.21724 
L 338.382215 177.317723 
L 339.176374 177.07333 
L 339.970534 181.910467 
L 340.764693 181.267883 
L 341.558852 183.830063 
L 342.353011 183.34913 
L 343.147171 187.110163 
L 343.94133 185.802384 
L 344.735489 183.334271 
L 345.529648 185.220999 
L 346.323808 187.959915 
L 347.117967 193.153905 
L 347.912126 193.795711 
L 348.706285 195.196807 
L 349.500445 198.933307 
L 350.294604 197.841957 
L 351.088763 198.925963 
L 351.882922 201.517476 
L 352.677082 202.853475 
L 353.471241 200.272637 
L 354.2654 198.820125 
L 355.059559 199.133366 
L 355.853719 197.641904 
L 356.647878 200.438612 
L 357.442037 200.36063 
L 358.236197 200.005722 
L 359.030356 201.137586 
L 359.824515 200.088541 
L 360.618674 201.968652 
L 362.206993 199.411002 
L 363.001152 206.438617 
L 363.795311 203.571099 
L 364.589471 210.913031 
L 365.38363 212.39713 
L 366.177789 209.927005 
L 366.971948 210.691368 
L 367.766108 214.223499 
L 368.560267 216.858378 
L 369.354426 214.384499 
L 370.148585 219.01352 
L 370.942745 216.293712 
L 371.736904 216.426457 
L 372.531063 219.299009 
L 373.325222 220.703769 
L 374.119382 223.154324 
L 374.913541 221.067535 
L 375.7077 219.303072 
L 376.501859 223.444636 
L 377.296019 224.416914 
L 378.090178 226.49638 
L 378.884337 223.380236 
L 379.678497 226.632707 
L 380.472656 222.768022 
L 381.266815 222.848231 
L 382.060974 225.647401 
L 382.855134 227.278996 
L 383.649293 229.210144 
L 384.443452 232.280778 
L 385.237611 232.052334 
L 386.031771 235.010457 
L 386.82593 240.263092 
L 387.620089 241.177755 
L 388.414248 245.520945 
L 389.208408 247.332947 
L 390.796726 251.621843 
L 391.590885 246.801401 
L 392.385045 246.665503 
L 393.179204 246.074389 
L 393.973363 250.35384 
L 394.767522 251.929277 
L 395.561682 251.4106 
L 396.355841 253.878753 
L 397.15 251.691174 
L 397.944159 254.588543 
L 398.738319 255.278417 
L 399.532478 256.690251 
L 400.326637 256.294392 
L 401.120797 257.837372 
L 402.709115 259.058822 
L 403.503274 260.828007 
L 404.297434 259.659387 
L 405.091593 259.085095 
L 405.885752 259.298571 
L 406.679911 260.335571 
L 407.474071 258.416648 
L 408.26823 258.984787 
L 409.062389 259.72364 
L 409.856548 259.471435 
L 410.650708 255.384255 
L 411.444867 258.613254 
L 412.239026 256.758622 
L 413.033185 261.319386 
L 413.827345 260.795962 
L 414.621504 257.001492 
L 415.415663 255.82426 
L 416.209822 255.413214 
L 417.003982 256.76337 
L 417.798141 256.688576 
L 418.5923 257.295811 
L 419.386459 259.189276 
L 420.180619 259.887604 
L 420.974778 259.409692 
L 422.563097 263.200346 
L 423.357256 266.477255 
L 424.151415 265.535975 
L 424.945574 264.222258 
L 425.739734 263.664174 
L 426.533893 261.339019 
L 427.328052 261.127341 
L 428.122211 260.182963 
L 428.916371 259.451 
L 429.71053 259.671525 
L 430.504689 260.950308 
L 431.298848 255.616279 
L 431.298848 255.616279 
" clip-path="url(#pa27cbbadb9)" style="fill: none; stroke: #3987e5; stroke-opacity: 0.9; stroke-width: 1.6; stroke-linecap: square"/>
   </g>
   <g id="line2d_22">
    <path d="M 34.219219 64.296283 
L 35.013378 65.38506 
L 35.807537 66.9892 
L 36.601697 65.943644 
L 37.395856 65.336911 
L 38.190015 68.721139 
L 38.984174 66.016539 
L 39.778334 66.24346 
L 40.572493 68.91976 
L 41.366652 66.055907 
L 42.160811 64.548617 
L 42.954971 67.594975 
L 43.74913 63.313634 
L 44.543289 61.726551 
L 45.337448 61.751114 
L 46.131608 57.92018 
L 46.925767 57.536422 
L 47.719926 57.604076 
L 48.514085 59.194779 
L 49.308245 57.793066 
L 50.102404 56.644901 
L 50.896563 56.609535 
L 51.690722 58.51266 
L 52.484882 58.199651 
L 53.279041 58.367801 
L 54.867359 65.125907 
L 55.661519 63.764418 
L 56.455678 70.032525 
L 57.249837 69.537679 
L 58.043997 70.68941 
L 58.838156 67.537764 
L 59.632315 68.726559 
L 60.426474 67.137822 
L 61.220634 68.094011 
L 62.014793 67.819985 
L 62.808952 66.044901 
L 63.603111 67.159226 
L 64.397271 64.758465 
L 65.19143 67.152343 
L 65.985589 66.442651 
L 66.779748 64.219956 
L 67.573908 62.629886 
L 68.368067 58.013053 
L 69.162226 59.852225 
L 69.956385 63.174679 
L 70.750545 65.570093 
L 71.544704 63.979047 
L 72.338863 62.77952 
L 73.133022 62.533178 
L 73.927182 65.238449 
L 74.721341 63.39102 
L 75.5155 66.341408 
L 76.309659 63.549428 
L 77.103819 56.665685 
L 77.897978 55.782882 
L 78.692137 54.378139 
L 79.486297 55.565468 
L 80.280456 59.926382 
L 81.074615 61.37837 
L 81.868774 64.011221 
L 82.662934 67.497143 
L 83.457093 63.347873 
L 84.251252 62.69053 
L 85.045411 61.77584 
L 85.839571 62.520294 
L 86.63373 62.936751 
L 87.427889 60.613089 
L 88.222048 60.690992 
L 89.016208 59.412518 
L 89.810367 59.884704 
L 90.604526 60.708971 
L 91.398685 64.098313 
L 92.192845 68.86283 
L 92.987004 69.492949 
L 93.781163 69.356845 
L 94.575322 72.45521 
L 95.369482 72.538262 
L 96.163641 72.408769 
L 96.9578 77.602723 
L 97.751959 79.807314 
L 99.340278 77.893743 
L 100.134437 80.673016 
L 100.928597 80.291305 
L 101.722756 77.828264 
L 102.516915 75.956248 
L 103.311074 76.185797 
L 104.105234 77.31318 
L 104.899393 78.829309 
L 105.693552 77.702303 
L 106.487711 77.232286 
L 107.281871 75.716013 
L 108.07603 75.398321 
L 108.870189 73.425869 
L 109.664348 73.19799 
L 111.252667 69.209762 
L 112.046826 71.147916 
L 112.840985 75.503845 
L 113.635145 71.785477 
L 114.429304 71.16717 
L 115.223463 75.297471 
L 116.017622 77.017105 
L 116.811782 75.157613 
L 117.605941 75.831372 
L 118.4001 77.064959 
L 119.194259 73.690149 
L 119.988419 76.213128 
L 120.782578 78.135928 
L 121.576737 77.626685 
L 122.370897 76.686055 
L 123.165056 75.490335 
L 123.959215 73.295107 
L 124.753374 72.816719 
L 125.547534 71.637763 
L 126.341693 72.262214 
L 127.930011 71.852114 
L 128.724171 71.333929 
L 129.51833 69.472834 
L 130.312489 68.135454 
L 131.106648 68.028933 
L 131.900808 69.978166 
L 132.694967 69.815142 
L 133.489126 69.882639 
L 134.283285 69.417253 
L 135.077445 64.101599 
L 135.871604 65.363399 
L 136.665763 64.34608 
L 137.459922 61.77209 
L 138.254082 61.535997 
L 139.048241 55.903986 
L 139.8424 56.814706 
L 140.636559 56.033955 
L 141.430719 57.958327 
L 142.224878 58.805171 
L 143.019037 58.205474 
L 143.813197 56.166676 
L 144.607356 55.397957 
L 145.401515 52.364673 
L 146.195674 52.593451 
L 146.989834 53.393665 
L 147.783993 46.8796 
L 148.578152 45.929858 
L 150.166471 49.335656 
L 150.96063 51.606629 
L 151.754789 49.350377 
L 152.548948 50.228184 
L 153.343108 49.92136 
L 154.137267 50.074356 
L 154.931426 48.312147 
L 155.725585 50.352005 
L 156.519745 52.943124 
L 157.313904 52.402778 
L 158.108063 50.95503 
L 158.902222 50.15394 
L 159.696382 52.103963 
L 160.490541 50.471861 
L 161.2847 52.263867 
L 162.078859 53.520285 
L 162.873019 55.794327 
L 163.667178 52.659757 
L 165.255497 49.67634 
L 166.049656 46.671732 
L 166.843815 39.895889 
L 167.637974 44.013519 
L 168.432134 45.792313 
L 169.226293 47.276716 
L 170.020452 49.326392 
L 170.814611 51.922356 
L 171.608771 52.644238 
L 172.40293 55.57511 
L 173.197089 54.767973 
L 173.991248 54.643429 
L 175.579567 52.261453 
L 176.373726 50.808773 
L 177.167885 51.708337 
L 177.962045 46.598374 
L 178.756204 46.033615 
L 179.550363 50.520454 
L 180.344522 52.935238 
L 181.138682 57.128216 
L 181.932841 57.086455 
L 182.727 57.379892 
L 183.521159 58.508358 
L 184.315319 53.663914 
L 185.109478 52.341381 
L 185.903637 50.592166 
L 187.491956 55.24218 
L 188.286115 55.153513 
L 189.080274 54.736728 
L 189.874434 59.208696 
L 190.668593 59.643066 
L 191.462752 59.609166 
L 192.256911 60.127473 
L 193.051071 62.08698 
L 193.84523 63.386753 
L 194.639389 63.812818 
L 195.433548 63.594075 
L 196.227708 62.137095 
L 197.021867 59.533247 
L 197.816026 60.242348 
L 198.610185 61.341256 
L 199.404345 60.286917 
L 200.198504 58.815355 
L 200.992663 59.86137 
L 201.786822 57.957264 
L 202.580982 55.597383 
L 203.375141 52.485632 
L 204.1693 48.201549 
L 204.963459 50.288798 
L 206.551778 50.228148 
L 207.345937 50.464413 
L 208.140097 52.028527 
L 208.934256 55.607336 
L 209.728415 55.384066 
L 210.522574 57.235081 
L 211.316734 57.027918 
L 212.110893 58.940817 
L 212.905052 61.589961 
L 213.699211 61.025522 
L 214.493371 60.661942 
L 215.28753 59.266417 
L 216.081689 54.000538 
L 216.875848 53.332531 
L 217.670008 52.16394 
L 218.464167 54.75985 
L 219.258326 57.860089 
L 220.052485 54.046956 
L 221.640804 58.7866 
L 222.434963 58.880791 
L 223.229122 59.09807 
L 224.023282 61.272263 
L 224.817441 62.006963 
L 225.6116 59.045322 
L 226.405759 60.987009 
L 227.199919 64.344451 
L 227.994078 62.073686 
L 228.788237 60.887713 
L 229.582397 62.38258 
L 230.376556 66.194116 
L 231.170715 67.987959 
L 231.964874 68.119745 
L 232.759034 65.31157 
L 233.553193 67.808759 
L 234.347352 68.012373 
L 235.141511 66.385908 
L 235.935671 72.122526 
L 236.72983 69.632072 
L 237.523989 72.480668 
L 238.318148 71.68087 
L 239.112308 71.086596 
L 239.906467 68.473761 
L 240.700626 67.146551 
L 241.494785 72.873588 
L 242.288945 74.764169 
L 243.083104 74.431224 
L 243.877263 74.900943 
L 244.671422 73.750349 
L 245.465582 71.848717 
L 246.259741 70.38292 
L 247.0539 70.899122 
L 247.848059 75.34706 
L 248.642219 76.444342 
L 249.436378 75.441285 
L 250.230537 78.068239 
L 251.024697 76.54746 
L 251.818856 74.359085 
L 252.613015 74.053455 
L 253.407174 81.434287 
L 254.201334 84.513279 
L 254.995493 79.969335 
L 255.789652 81.285978 
L 256.583811 86.065899 
L 257.377971 83.090113 
L 258.17213 83.057939 
L 258.966289 80.39607 
L 259.760448 79.72886 
L 260.554608 78.624163 
L 261.348767 77.749652 
L 262.142926 76.06936 
L 262.937085 70.582892 
L 263.731245 68.243679 
L 264.525404 72.050812 
L 265.319563 70.974777 
L 266.907882 65.327501 
L 267.702041 66.355219 
L 268.4962 63.548797 
L 269.290359 61.313809 
L 270.084519 55.116458 
L 270.878678 56.923258 
L 271.672837 58.145617 
L 272.466997 58.883076 
L 273.261156 60.064051 
L 274.055315 62.208165 
L 274.849474 68.863618 
L 275.643634 69.910836 
L 276.437793 69.02103 
L 277.231952 70.209231 
L 278.026111 65.54678 
L 278.820271 65.514557 
L 279.61443 62.40439 
L 280.408589 61.774612 
L 281.202748 59.783747 
L 281.996908 59.111037 
L 282.791067 55.813551 
L 283.585226 55.67879 
L 284.379385 54.483605 
L 285.173545 53.601087 
L 285.967704 54.295584 
L 286.761863 53.319957 
L 287.556022 47.937185 
L 288.350182 48.588588 
L 289.144341 47.578071 
L 290.732659 41.801066 
L 291.526819 41.77284 
L 292.320978 47.514568 
L 293.115137 46.2698 
L 293.909297 51.616648 
L 294.703456 48.07548 
L 295.497615 47.667207 
L 296.291774 45.258932 
L 297.085934 47.432172 
L 297.880093 51.172257 
L 298.674252 50.544084 
L 299.468411 50.625037 
L 300.262571 51.809189 
L 301.05673 51.605234 
L 301.850889 44.938313 
L 302.645048 42.927891 
L 303.439208 40.399585 
L 304.233367 38.366489 
L 305.027526 34.802375 
L 305.821685 35.260269 
L 306.615845 40.210314 
L 307.410004 40.66463 
L 308.204163 38.709109 
L 308.998322 41.045417 
L 309.792482 41.470293 
L 310.586641 43.136809 
L 311.3808 39.518329 
L 312.969119 36.143241 
L 313.763278 34.645765 
L 314.557437 34.735501 
L 315.351597 34.259576 
L 316.145756 37.114758 
L 316.939915 42.382029 
L 317.734074 42.020475 
L 318.528234 41.239962 
L 319.322393 38.326771 
L 320.910711 30.759105 
L 321.704871 33.163405 
L 322.49903 34.012033 
L 323.293189 32.854878 
L 324.087348 26.755366 
L 324.881508 23.189717 
L 325.675667 20.493021 
L 326.469826 21.427226 
L 327.263985 23.554908 
L 328.058145 21.654381 
L 328.852304 24.305941 
L 329.646463 24.880348 
L 330.440622 25.156855 
L 331.234782 21.319433 
L 332.028941 22.173921 
L 332.8231 28.050221 
L 333.617259 26.834983 
L 334.411419 28.518969 
L 335.205578 28.416269 
L 335.999737 28.625146 
L 336.793897 29.284515 
L 337.588056 27.380537 
L 338.382215 31.073301 
L 339.176374 32.31882 
L 339.970534 30.670931 
L 340.764693 32.150299 
L 341.558852 36.026012 
L 342.353011 34.415421 
L 343.147171 31.709818 
L 343.94133 31.818214 
L 344.735489 36.54201 
L 345.529648 34.841286 
L 346.323808 38.840057 
L 347.117967 38.096141 
L 347.912126 40.234095 
L 348.706285 43.028218 
L 349.500445 44.092807 
L 350.294604 44.534382 
L 351.088763 46.086318 
L 351.882922 44.668096 
L 352.677082 45.742705 
L 353.471241 43.381365 
L 354.2654 42.704002 
L 355.059559 44.38446 
L 355.853719 46.470561 
L 356.647878 50.43948 
L 357.442037 49.739086 
L 358.236197 50.593309 
L 359.030356 56.308072 
L 359.824515 57.598642 
L 360.618674 59.769288 
L 361.412834 55.973385 
L 362.206993 60.075482 
L 363.001152 63.547783 
L 363.795311 60.873799 
L 364.589471 57.605274 
L 366.177789 60.922717 
L 366.971948 59.438168 
L 367.766108 65.044293 
L 368.560267 69.528021 
L 369.354426 70.204325 
L 370.148585 66.470545 
L 370.942745 67.520245 
L 371.736904 67.277082 
L 372.531063 64.545715 
L 373.325222 59.470102 
L 374.119382 60.859765 
L 374.913541 60.900325 
L 375.7077 56.510884 
L 376.501859 60.177954 
L 377.296019 57.702449 
L 378.090178 60.155633 
L 378.884337 59.908771 
L 379.678497 60.493255 
L 381.266815 65.169515 
L 382.060974 64.503616 
L 382.855134 62.105301 
L 383.649293 62.417844 
L 384.443452 62.248937 
L 385.237611 60.872944 
L 386.031771 63.213633 
L 387.620089 59.457821 
L 388.414248 53.185527 
L 389.208408 54.091585 
L 390.002567 55.195132 
L 391.590885 51.369375 
L 392.385045 52.658432 
L 393.179204 53.629676 
L 393.973363 52.326059 
L 394.767522 54.319759 
L 395.561682 55.308761 
L 396.355841 55.092926 
L 397.15 52.693649 
L 397.944159 54.150164 
L 399.532478 63.20578 
L 401.120797 69.403283 
L 401.914956 69.77575 
L 402.709115 72.639834 
L 404.297434 76.197634 
L 405.091593 77.258844 
L 405.885752 74.072851 
L 406.679911 72.478179 
L 407.474071 72.439322 
L 409.062389 74.593646 
L 409.856548 73.804085 
L 410.650708 72.396786 
L 411.444867 74.583292 
L 412.239026 74.495408 
L 413.033185 79.389702 
L 413.827345 78.879671 
L 414.621504 77.043607 
L 415.415663 77.71831 
L 416.209822 73.342186 
L 417.003982 75.465143 
L 417.798141 74.941316 
L 418.5923 75.02762 
L 420.180619 75.544652 
L 420.974778 75.286629 
L 421.768937 73.243845 
L 422.563097 69.924795 
L 423.357256 69.930216 
L 424.151415 67.96607 
L 424.945574 69.656669 
L 425.739734 67.811436 
L 426.533893 69.64712 
L 427.328052 67.019654 
L 428.122211 61.694086 
L 428.916371 61.988193 
L 429.71053 67.270163 
L 430.504689 68.590504 
L 431.298848 65.622842 
L 431.298848 65.622842 
" clip-path="url(#pa27cbbadb9)" style="fill: none; stroke: #1c5cab; stroke-opacity: 0.9; stroke-width: 1.6; stroke-linecap: square"/>
   </g>
   <g id="text_14">
    <!-- 5 sample paths -->
    <g style="fill: #52514e" transform="translate(439.240441 120.119412) scale(0.095 -0.095)">
     <defs>
      <path id="Helvetica-35" d="M 791 1141 
Q 847 659 1238 475 
Q 1438 381 1700 381 
Q 2200 381 2440 700 
Q 2681 1019 2681 1406 
Q 2681 1875 2395 2131 
Q 2109 2388 1709 2388 
Q 1419 2388 1211 2275 
Q 1003 2163 856 1963 
L 369 1991 
L 709 4400 
L 3034 4400 
L 3034 3856 
L 1131 3856 
L 941 2613 
Q 1097 2731 1238 2791 
Q 1488 2894 1816 2894 
Q 2431 2894 2859 2497 
Q 3288 2100 3288 1491 
Q 3288 856 2895 371 
Q 2503 -113 1644 -113 
Q 1097 -113 676 195 
Q 256 503 206 1141 
L 791 1141 
z
" transform="scale(0.015625)"/>
      <path id="Helvetica-73" d="M 747 1050 
Q 772 769 888 619 
Q 1100 347 1625 347 
Q 1938 347 2175 483 
Q 2413 619 2413 903 
Q 2413 1119 2222 1231 
Q 2100 1300 1741 1391 
L 1294 1503 
Q 866 1609 663 1741 
Q 300 1969 300 2372 
Q 300 2847 642 3140 
Q 984 3434 1563 3434 
Q 2319 3434 2653 2991 
Q 2863 2709 2856 2384 
L 2325 2384 
Q 2309 2575 2191 2731 
Q 1997 2953 1519 2953 
Q 1200 2953 1036 2831 
Q 872 2709 872 2509 
Q 872 2291 1088 2159 
Q 1213 2081 1456 2022 
L 1828 1931 
Q 2434 1784 2641 1647 
Q 2969 1431 2969 969 
Q 2969 522 2630 197 
Q 2291 -128 1597 -128 
Q 850 -128 539 211 
Q 228 550 206 1050 
L 747 1050 
z
M 1578 3428 
L 1578 3428 
z
" transform="scale(0.015625)"/>
      <path id="Helvetica-61" d="M 844 891 
Q 844 647 1022 506 
Q 1200 366 1444 366 
Q 1741 366 2019 503 
Q 2488 731 2488 1250 
L 2488 1703 
Q 2384 1638 2221 1594 
Q 2059 1550 1903 1531 
L 1563 1488 
Q 1256 1447 1103 1359 
Q 844 1213 844 891 
z
M 2206 2028 
Q 2400 2053 2466 2191 
Q 2503 2266 2503 2406 
Q 2503 2694 2298 2823 
Q 2094 2953 1713 2953 
Q 1272 2953 1088 2716 
Q 984 2584 953 2325 
L 428 2325 
Q 444 2944 830 3186 
Q 1216 3428 1725 3428 
Q 2316 3428 2684 3203 
Q 3050 2978 3050 2503 
L 3050 575 
Q 3050 488 3086 434 
Q 3122 381 3238 381 
Q 3275 381 3322 386 
Q 3369 391 3422 400 
L 3422 -16 
Q 3291 -53 3222 -62 
Q 3153 -72 3034 -72 
Q 2744 -72 2613 134 
Q 2544 244 2516 444 
Q 2344 219 2022 53 
Q 1700 -113 1313 -113 
Q 847 -113 551 170 
Q 256 453 256 878 
Q 256 1344 547 1600 
Q 838 1856 1309 1916 
L 2206 2028 
z
M 1741 3428 
L 1741 3428 
z
" transform="scale(0.015625)"/>
      <path id="Helvetica-70" d="M 1825 378 
Q 2219 378 2480 708 
Q 2741 1038 2741 1694 
Q 2741 2094 2625 2381 
Q 2406 2934 1825 2934 
Q 1241 2934 1025 2350 
Q 909 2038 909 1556 
Q 909 1169 1025 897 
Q 1244 378 1825 378 
z
M 369 3331 
L 916 3331 
L 916 2888 
Q 1084 3116 1284 3241 
Q 1569 3428 1953 3428 
Q 2522 3428 2919 2992 
Q 3316 2556 3316 1747 
Q 3316 653 2744 184 
Q 2381 -113 1900 -113 
Q 1522 -113 1266 53 
Q 1116 147 931 375 
L 931 -1334 
L 369 -1334 
L 369 3331 
z
" transform="scale(0.015625)"/>
      <path id="Helvetica-6c" d="M 428 4591 
L 991 4591 
L 991 0 
L 428 0 
L 428 4591 
z
" transform="scale(0.015625)"/>
      <path id="Helvetica-74" d="M 525 4281 
L 1094 4281 
L 1094 3347 
L 1628 3347 
L 1628 2888 
L 1094 2888 
L 1094 703 
Q 1094 528 1213 469 
Q 1278 434 1431 434 
Q 1472 434 1519 436 
Q 1566 438 1628 444 
L 1628 0 
Q 1531 -28 1426 -40 
Q 1322 -53 1200 -53 
Q 806 -53 665 148 
Q 525 350 525 672 
L 525 2888 
L 72 2888 
L 72 3347 
L 525 3347 
L 525 4281 
z
" transform="scale(0.015625)"/>
      <path id="Helvetica-68" d="M 413 4606 
L 975 4606 
L 975 2894 
Q 1175 3147 1334 3250 
Q 1606 3428 2013 3428 
Q 2741 3428 3000 2919 
Q 3141 2641 3141 2147 
L 3141 0 
L 2563 0 
L 2563 2109 
Q 2563 2478 2469 2650 
Q 2316 2925 1894 2925 
Q 1544 2925 1259 2684 
Q 975 2444 975 1775 
L 975 0 
L 413 0 
L 413 4606 
z
" transform="scale(0.015625)"/>
     </defs>
     <use xlink:href="#Helvetica-35"/>
     <use xlink:href="#Helvetica-20" transform="translate(55.615234 0)"/>
     <use xlink:href="#Helvetica-73" transform="translate(83.398438 0)"/>
     <use xlink:href="#Helvetica-61" transform="translate(133.398438 0)"/>
     <use xlink:href="#Helvetica-6d" transform="translate(189.013672 0)"/>
     <use xlink:href="#Helvetica-70" transform="translate(272.314453 0)"/>
     <use xlink:href="#Helvetica-6c" transform="translate(327.929688 0)"/>
     <use xlink:href="#Helvetica-65" transform="translate(350.146484 0)"/>
     <use xlink:href="#Helvetica-20" transform="translate(405.761719 0)"/>
     <use xlink:href="#Helvetica-70" transform="translate(433.544922 0)"/>
     <use xlink:href="#Helvetica-61" transform="translate(489.160156 0)"/>
     <use xlink:href="#Helvetica-74" transform="translate(544.775391 0)"/>
     <use xlink:href="#Helvetica-68" transform="translate(572.558594 0)"/>
     <use xlink:href="#Helvetica-73" transform="translate(628.173828 0)"/>
    </g>
   </g>
  </g>
 </g>
 <defs>
  <clipPath id="pa27cbbadb9">
   <rect x="34.219219" y="8.19381" width="428.846" height="270.582657"/>
  </clipPath>
 </defs>
</svg>
