<?xml version="1.0" encoding="utf-8" standalone="no"?>
<!DOCTYPE svg PUBLIC "-//W3C//DTD SVG 1.1//EN"
  "http://www.w3.org/Graphics/SVG/1.1/DTD/svg11.dtd">
<svg xmlns:xlink="http://www.w3.org/1999/xlink" width="510.883774pt" height="310.672031pt" viewBox="0 0 510.883774 310.672031" xmlns="http://www.w3.org/2000/svg" version="1.1">
 <metadata>
  <rdf:RDF xmlns:dc="http://purl.org/dc/elements/1.1/" xmlns:cc="http://creativecommons.org/ns#" xmlns:rdf="http://www.w3.org/1999/02/22-rdf-syntax-ns#">
   <cc:Work>
    <dc:type rdf:resource="http://purl.org/dc/dcmitype/StillImage"/>
    <dc:date>2026-07-04T17:56:57.365751</dc:date>
    <dc:format>image/svg+xml</dc:format>
    <dc:creator>
     <cc:Agent>
      <dc:title>Matplotlib v3.10.0, https://matplotlib.org/</dc:title>
     </cc:Agent>
    </dc:creator>
   </cc:Work>
  </rdf:RDF>
 </metadata>
 <defs>
  <style type="text/css">*{stroke-linejoin: round; stroke-linecap: butt}</style>
 </defs>
 <g id="figure_1">
  <g id="patch_1">
   <path d="M 0 310.672031 
L 510.883774 310.672031 
L 510.883774 0 
L 0 0 
z
" style="fill: #fcfcfb"/>
  </g>
  <g id="axes_1">
   <g id="patch_2">
    <path d="M 38.972344 278.14 
L 462.808344 278.14 
L 462.808344 7.2 
L 38.972344 7.2 
z
" style="fill: #fcfcfb"/>
   </g>
   <g id="matplotlib.axis_1">
    <g id="xtick_1">
     <g id="line2d_1"/>
     <g id="text_1">
      <!-- 0.0 -->
      <g style="fill: #898781" transform="translate(32.717344 288.096094) scale(0.09 -0.09)">
       <defs>
        <path id="Helvetica-30" d="M 1731 4475 
Q 2600 4475 2988 3759 
Q 3288 3206 3288 2244 
Q 3288 1331 3016 734 
Q 2622 -122 1728 -122 
Q 922 -122 528 578 
Q 200 1163 200 2147 
Q 200 2909 397 3456 
Q 766 4475 1731 4475 
z
M 1725 391 
Q 2163 391 2422 778 
Q 2681 1166 2681 2222 
Q 2681 2984 2493 3476 
Q 2306 3969 1766 3969 
Q 1269 3969 1039 3501 
Q 809 3034 809 2125 
Q 809 1441 956 1025 
Q 1181 391 1725 391 
z
" transform="scale(0.015625)"/>
        <path id="Helvetica-2e" d="M 547 681 
L 1200 681 
L 1200 0 
L 547 0 
L 547 681 
z
" transform="scale(0.015625)"/>
       </defs>
       <use xlink:href="#Helvetica-30"/>
       <use xlink:href="#Helvetica-2e" transform="translate(55.615234 0)"/>
       <use xlink:href="#Helvetica-30" transform="translate(83.398438 0)"/>
      </g>
     </g>
    </g>
    <g id="xtick_2">
     <g id="line2d_2"/>
     <g id="text_2">
      <!-- 0.2 -->
      <g style="fill: #898781" transform="translate(111.205492 288.096094) scale(0.09 -0.09)">
       <defs>
        <path id="Helvetica-32" d="M 200 0 
Q 231 578 439 1006 
Q 647 1434 1250 1784 
L 1850 2131 
Q 2253 2366 2416 2531 
Q 2672 2791 2672 3125 
Q 2672 3516 2437 3745 
Q 2203 3975 1813 3975 
Q 1234 3975 1013 3538 
Q 894 3303 881 2888 
L 309 2888 
Q 319 3472 525 3841 
Q 891 4491 1816 4491 
Q 2584 4491 2939 4075 
Q 3294 3659 3294 3150 
Q 3294 2613 2916 2231 
Q 2697 2009 2131 1694 
L 1703 1456 
Q 1397 1288 1222 1134 
Q 909 863 828 531 
L 3272 531 
L 3272 0 
L 200 0 
z
" transform="scale(0.015625)"/>
       </defs>
       <use xlink:href="#Helvetica-30"/>
       <use xlink:href="#Helvetica-2e" transform="translate(55.615234 0)"/>
       <use xlink:href="#Helvetica-32" transform="translate(83.398438 0)"/>
      </g>
     </g>
    </g>
    <g id="xtick_3">
     <g id="line2d_3"/>
     <g id="text_3">
      <!-- 0.4 -->
      <g style="fill: #898781" transform="translate(189.69364 288.096094) scale(0.09 -0.09)">
       <defs>
        <path id="Helvetica-34" d="M 2116 1584 
L 2116 3613 
L 681 1584 
L 2116 1584 
z
M 2125 0 
L 2125 1094 
L 163 1094 
L 163 1644 
L 2213 4488 
L 2688 4488 
L 2688 1584 
L 3347 1584 
L 3347 1094 
L 2688 1094 
L 2688 0 
L 2125 0 
z
" transform="scale(0.015625)"/>
       </defs>
       <use xlink:href="#Helvetica-30"/>
       <use xlink:href="#Helvetica-2e" transform="translate(55.615234 0)"/>
       <use xlink:href="#Helvetica-34" transform="translate(83.398438 0)"/>
      </g>
     </g>
    </g>
    <g id="xtick_4">
     <g id="line2d_4"/>
     <g id="text_4">
      <!-- 0.6 -->
      <g style="fill: #898781" transform="translate(268.181788 288.096094) scale(0.09 -0.09)">
       <defs>
        <path id="Helvetica-36" d="M 1872 4494 
Q 2622 4494 2917 4105 
Q 3213 3716 3213 3303 
L 2656 3303 
Q 2606 3569 2497 3719 
Q 2294 4000 1881 4000 
Q 1409 4000 1131 3564 
Q 853 3128 822 2316 
Q 1016 2600 1309 2741 
Q 1578 2866 1909 2866 
Q 2472 2866 2890 2506 
Q 3309 2147 3309 1434 
Q 3309 825 2912 354 
Q 2516 -116 1781 -116 
Q 1153 -116 697 361 
Q 241 838 241 1966 
Q 241 2800 444 3381 
Q 834 4494 1872 4494 
z
M 1831 384 
Q 2275 384 2495 682 
Q 2716 981 2716 1388 
Q 2716 1731 2519 2042 
Q 2322 2353 1803 2353 
Q 1441 2353 1167 2112 
Q 894 1872 894 1388 
Q 894 963 1142 673 
Q 1391 384 1831 384 
z
" transform="scale(0.015625)"/>
       </defs>
       <use xlink:href="#Helvetica-30"/>
       <use xlink:href="#Helvetica-2e" transform="translate(55.615234 0)"/>
       <use xlink:href="#Helvetica-36" transform="translate(83.398438 0)"/>
      </g>
     </g>
    </g>
    <g id="xtick_5">
     <g id="line2d_5"/>
     <g id="text_5">
      <!-- 0.8 -->
      <g style="fill: #898781" transform="translate(346.669936 288.096094) scale(0.09 -0.09)">
       <defs>
        <path id="Helvetica-38" d="M 1741 2600 
Q 2113 2600 2322 2808 
Q 2531 3016 2531 3303 
Q 2531 3553 2331 3762 
Q 2131 3972 1722 3972 
Q 1316 3972 1134 3762 
Q 953 3553 953 3272 
Q 953 2956 1187 2778 
Q 1422 2600 1741 2600 
z
M 1775 384 
Q 2166 384 2423 595 
Q 2681 806 2681 1225 
Q 2681 1659 2415 1884 
Q 2150 2109 1734 2109 
Q 1331 2109 1076 1879 
Q 822 1650 822 1244 
Q 822 894 1055 639 
Q 1288 384 1775 384 
z
M 975 2384 
Q 741 2484 609 2619 
Q 363 2869 363 3269 
Q 363 3769 725 4128 
Q 1088 4488 1753 4488 
Q 2397 4488 2762 4148 
Q 3128 3809 3128 3356 
Q 3128 2938 2916 2678 
Q 2797 2531 2547 2391 
Q 2825 2263 2984 2097 
Q 3281 1784 3281 1284 
Q 3281 694 2884 283 
Q 2488 -128 1763 -128 
Q 1109 -128 657 226 
Q 206 581 206 1256 
Q 206 1653 400 1942 
Q 594 2231 975 2384 
z
" transform="scale(0.015625)"/>
       </defs>
       <use xlink:href="#Helvetica-30"/>
       <use xlink:href="#Helvetica-2e" transform="translate(55.615234 0)"/>
       <use xlink:href="#Helvetica-38" transform="translate(83.398438 0)"/>
      </g>
     </g>
    </g>
    <g id="xtick_6">
     <g id="line2d_6"/>
     <g id="text_6">
      <!-- 1.0 -->
      <g style="fill: #898781" transform="translate(425.158084 288.096094) scale(0.09 -0.09)">
       <defs>
        <path id="Helvetica-31" d="M 613 3169 
L 613 3600 
Q 1222 3659 1462 3798 
Q 1703 3938 1822 4456 
L 2266 4456 
L 2266 0 
L 1666 0 
L 1666 3169 
L 613 3169 
z
" transform="scale(0.015625)"/>
       </defs>
       <use xlink:href="#Helvetica-31"/>
       <use xlink:href="#Helvetica-2e" transform="translate(55.615234 0)"/>
       <use xlink:href="#Helvetica-30" transform="translate(83.398438 0)"/>
      </g>
     </g>
    </g>
    <g id="text_7">
     <!-- Time $t$ (years) -->
     <g style="fill: #52514e" transform="translate(219.440344 301.272031) scale(0.1 -0.1)">
      <defs>
       <path id="Helvetica-54" d="M 3828 4591 
L 3828 4044 
L 2281 4044 
L 2281 0 
L 1650 0 
L 1650 4044 
L 103 4044 
L 103 4591 
L 3828 4591 
z
" transform="scale(0.015625)"/>
       <path id="Helvetica-69" d="M 413 3331 
L 984 3331 
L 984 0 
L 413 0 
L 413 3331 
z
M 413 4591 
L 984 4591 
L 984 3953 
L 413 3953 
L 413 4591 
z
" transform="scale(0.015625)"/>
       <path id="Helvetica-6d" d="M 413 3347 
L 969 3347 
L 969 2872 
Q 1169 3119 1331 3231 
Q 1609 3422 1963 3422 
Q 2363 3422 2606 3225 
Q 2744 3113 2856 2894 
Q 3044 3163 3297 3292 
Q 3550 3422 3866 3422 
Q 4541 3422 4784 2934 
Q 4916 2672 4916 2228 
L 4916 0 
L 4331 0 
L 4331 2325 
Q 4331 2659 4164 2784 
Q 3997 2909 3756 2909 
Q 3425 2909 3186 2687 
Q 2947 2466 2947 1947 
L 2947 0 
L 2375 0 
L 2375 2184 
Q 2375 2525 2294 2681 
Q 2166 2916 1816 2916 
Q 1497 2916 1236 2669 
Q 975 2422 975 1775 
L 975 0 
L 413 0 
L 413 3347 
z
" transform="scale(0.015625)"/>
       <path id="Helvetica-65" d="M 1806 3422 
Q 2163 3422 2497 3255 
Q 2831 3088 3006 2822 
Q 3175 2569 3231 2231 
Q 3281 2000 3281 1494 
L 828 1494 
Q 844 984 1069 676 
Q 1294 369 1766 369 
Q 2206 369 2469 659 
Q 2619 828 2681 1050 
L 3234 1050 
Q 3213 866 3089 639 
Q 2966 413 2813 269 
Q 2556 19 2178 -69 
Q 1975 -119 1719 -119 
Q 1094 -119 659 336 
Q 225 791 225 1609 
Q 225 2416 662 2919 
Q 1100 3422 1806 3422 
z
M 2703 1941 
Q 2669 2306 2544 2525 
Q 2313 2931 1772 2931 
Q 1384 2931 1121 2651 
Q 859 2372 844 1941 
L 2703 1941 
z
M 1753 3428 
L 1753 3428 
z
" transform="scale(0.015625)"/>
       <path id="Helvetica-20" transform="scale(0.015625)"/>
       <path id="DejaVuSans-Oblique-74" d="M 2706 3500 
L 2619 3053 
L 1472 3053 
L 1100 1153 
Q 1081 1047 1072 975 
Q 1063 903 1063 863 
Q 1063 663 1183 572 
Q 1303 481 1569 481 
L 2150 481 
L 2053 0 
L 1503 0 
Q 991 0 739 200 
Q 488 400 488 806 
Q 488 878 497 964 
Q 506 1050 525 1153 
L 897 3053 
L 409 3053 
L 500 3500 
L 978 3500 
L 1172 4494 
L 1747 4494 
L 1556 3500 
L 2706 3500 
z
" transform="scale(0.015625)"/>
       <path id="Helvetica-28" d="M 1894 4666 
Q 1403 3713 1256 3263 
Q 1034 2578 1034 1681 
Q 1034 775 1288 25 
Q 1444 -438 1903 -1306 
L 1525 -1306 
Q 1069 -594 959 -397 
Q 850 -200 722 138 
Q 547 600 478 1125 
Q 444 1397 444 1644 
Q 444 2569 734 3291 
Q 919 3750 1503 4666 
L 1894 4666 
z
" transform="scale(0.015625)"/>
       <path id="Helvetica-79" d="M 2503 3347 
L 3125 3347 
Q 3006 3025 2597 1878 
Q 2291 1016 2084 472 
Q 1597 -809 1397 -1090 
Q 1197 -1372 709 -1372 
Q 591 -1372 527 -1362 
Q 463 -1353 369 -1328 
L 369 -816 
Q 516 -856 581 -865 
Q 647 -875 697 -875 
Q 853 -875 926 -823 
Q 1000 -772 1050 -697 
Q 1066 -672 1162 -440 
Q 1259 -209 1303 -97 
L 66 3347 
L 703 3347 
L 1600 622 
L 2503 3347 
z
M 1597 3428 
L 1597 3428 
z
" transform="scale(0.015625)"/>
       <path id="Helvetica-61" d="M 844 891 
Q 844 647 1022 506 
Q 1200 366 1444 366 
Q 1741 366 2019 503 
Q 2488 731 2488 1250 
L 2488 1703 
Q 2384 1638 2221 1594 
Q 2059 1550 1903 1531 
L 1563 1488 
Q 1256 1447 1103 1359 
Q 844 1213 844 891 
z
M 2206 2028 
Q 2400 2053 2466 2191 
Q 2503 2266 2503 2406 
Q 2503 2694 2298 2823 
Q 2094 2953 1713 2953 
Q 1272 2953 1088 2716 
Q 984 2584 953 2325 
L 428 2325 
Q 444 2944 830 3186 
Q 1216 3428 1725 3428 
Q 2316 3428 2684 3203 
Q 3050 2978 3050 2503 
L 3050 575 
Q 3050 488 3086 434 
Q 3122 381 3238 381 
Q 3275 381 3322 386 
Q 3369 391 3422 400 
L 3422 -16 
Q 3291 -53 3222 -62 
Q 3153 -72 3034 -72 
Q 2744 -72 2613 134 
Q 2544 244 2516 444 
Q 2344 219 2022 53 
Q 1700 -113 1313 -113 
Q 847 -113 551 170 
Q 256 453 256 878 
Q 256 1344 547 1600 
Q 838 1856 1309 1916 
L 2206 2028 
z
M 1741 3428 
L 1741 3428 
z
" transform="scale(0.015625)"/>
       <path id="Helvetica-72" d="M 428 3347 
L 963 3347 
L 963 2769 
Q 1028 2938 1284 3180 
Q 1541 3422 1875 3422 
Q 1891 3422 1928 3419 
Q 1966 3416 2056 3406 
L 2056 2813 
Q 2006 2822 1964 2825 
Q 1922 2828 1872 2828 
Q 1447 2828 1219 2554 
Q 991 2281 991 1925 
L 991 0 
L 428 0 
L 428 3347 
z
" transform="scale(0.015625)"/>
       <path id="Helvetica-73" d="M 747 1050 
Q 772 769 888 619 
Q 1100 347 1625 347 
Q 1938 347 2175 483 
Q 2413 619 2413 903 
Q 2413 1119 2222 1231 
Q 2100 1300 1741 1391 
L 1294 1503 
Q 866 1609 663 1741 
Q 300 1969 300 2372 
Q 300 2847 642 3140 
Q 984 3434 1563 3434 
Q 2319 3434 2653 2991 
Q 2863 2709 2856 2384 
L 2325 2384 
Q 2309 2575 2191 2731 
Q 1997 2953 1519 2953 
Q 1200 2953 1036 2831 
Q 872 2709 872 2509 
Q 872 2291 1088 2159 
Q 1213 2081 1456 2022 
L 1828 1931 
Q 2434 1784 2641 1647 
Q 2969 1431 2969 969 
Q 2969 522 2630 197 
Q 2291 -128 1597 -128 
Q 850 -128 539 211 
Q 228 550 206 1050 
L 747 1050 
z
M 1578 3428 
L 1578 3428 
z
" transform="scale(0.015625)"/>
       <path id="Helvetica-29" d="M 222 -1306 
Q 719 -338 863 106 
Q 1081 778 1081 1681 
Q 1081 2584 828 3334 
Q 672 3797 213 4666 
L 591 4666 
Q 1072 3897 1173 3717 
Q 1275 3538 1394 3222 
Q 1544 2831 1608 2450 
Q 1672 2069 1672 1716 
Q 1672 791 1378 66 
Q 1194 -400 613 -1306 
L 222 -1306 
z
" transform="scale(0.015625)"/>
      </defs>
      <use xlink:href="#Helvetica-54" transform="translate(0 0.09375)"/>
      <use xlink:href="#Helvetica-69" transform="translate(61.083984 0.09375)"/>
      <use xlink:href="#Helvetica-6d" transform="translate(83.300781 0.09375)"/>
      <use xlink:href="#Helvetica-65" transform="translate(166.601562 0.09375)"/>
      <use xlink:href="#Helvetica-20" transform="translate(222.216797 0.09375)"/>
      <use xlink:href="#DejaVuSans-Oblique-74" transform="translate(250 0.09375)"/>
      <use xlink:href="#Helvetica-20" transform="translate(289.208984 0.09375)"/>
      <use xlink:href="#Helvetica-28" transform="translate(316.992188 0.09375)"/>
      <use xlink:href="#Helvetica-79" transform="translate(350.292969 0.09375)"/>
      <use xlink:href="#Helvetica-65" transform="translate(400.292969 0.09375)"/>
      <use xlink:href="#Helvetica-61" transform="translate(455.908203 0.09375)"/>
      <use xlink:href="#Helvetica-72" transform="translate(511.523438 0.09375)"/>
      <use xlink:href="#Helvetica-73" transform="translate(544.824219 0.09375)"/>
      <use xlink:href="#Helvetica-29" transform="translate(594.824219 0.09375)"/>
     </g>
    </g>
   </g>
   <g id="matplotlib.axis_2">
    <g id="ytick_1">
     <g id="line2d_7">
      <path d="M 38.972344 269.90633 
L 462.808344 269.90633 
" clip-path="url(#pb8b03c9409)" style="fill: none; stroke: #e1e0d9; stroke-linecap: square"/>
     </g>
     <g id="line2d_8"/>
     <g id="text_8">
      <!-- 50 -->
      <g style="fill: #898781" transform="translate(25.462656 273.134377) scale(0.09 -0.09)">
       <defs>
        <path id="Helvetica-35" d="M 791 1141 
Q 847 659 1238 475 
Q 1438 381 1700 381 
Q 2200 381 2440 700 
Q 2681 1019 2681 1406 
Q 2681 1875 2395 2131 
Q 2109 2388 1709 2388 
Q 1419 2388 1211 2275 
Q 1003 2163 856 1963 
L 369 1991 
L 709 4400 
L 3034 4400 
L 3034 3856 
L 1131 3856 
L 941 2613 
Q 1097 2731 1238 2791 
Q 1488 2894 1816 2894 
Q 2431 2894 2859 2497 
Q 3288 2100 3288 1491 
Q 3288 856 2895 371 
Q 2503 -113 1644 -113 
Q 1097 -113 676 195 
Q 256 503 206 1141 
L 791 1141 
z
" transform="scale(0.015625)"/>
       </defs>
       <use xlink:href="#Helvetica-35"/>
       <use xlink:href="#Helvetica-30" transform="translate(55.615234 0)"/>
      </g>
     </g>
    </g>
    <g id="ytick_2">
     <g id="line2d_9">
      <path d="M 38.972344 237.015369 
L 462.808344 237.015369 
" clip-path="url(#pb8b03c9409)" style="fill: none; stroke: #e1e0d9; stroke-linecap: square"/>
     </g>
     <g id="line2d_10"/>
     <g id="text_9">
      <!-- 60 -->
      <g style="fill: #898781" transform="translate(25.462656 240.243416) scale(0.09 -0.09)">
       <use xlink:href="#Helvetica-36"/>
       <use xlink:href="#Helvetica-30" transform="translate(55.615234 0)"/>
      </g>
     </g>
    </g>
    <g id="ytick_3">
     <g id="line2d_11">
      <path d="M 38.972344 204.124408 
L 462.808344 204.124408 
" clip-path="url(#pb8b03c9409)" style="fill: none; stroke: #e1e0d9; stroke-linecap: square"/>
     </g>
     <g id="line2d_12"/>
     <g id="text_10">
      <!-- 70 -->
      <g style="fill: #898781" transform="translate(25.462656 207.352455) scale(0.09 -0.09)">
       <defs>
        <path id="Helvetica-37" d="M 3347 4400 
L 3347 3909 
Q 3131 3700 2773 3181 
Q 2416 2663 2141 2063 
Q 1869 1478 1728 997 
Q 1638 688 1494 0 
L 872 0 
Q 1084 1281 1809 2550 
Q 2238 3294 2709 3834 
L 234 3834 
L 234 4400 
L 3347 4400 
z
" transform="scale(0.015625)"/>
       </defs>
       <use xlink:href="#Helvetica-37"/>
       <use xlink:href="#Helvetica-30" transform="translate(55.615234 0)"/>
      </g>
     </g>
    </g>
    <g id="ytick_4">
     <g id="line2d_13">
      <path d="M 38.972344 171.233447 
L 462.808344 171.233447 
" clip-path="url(#pb8b03c9409)" style="fill: none; stroke: #e1e0d9; stroke-linecap: square"/>
     </g>
     <g id="line2d_14"/>
     <g id="text_11">
      <!-- 80 -->
      <g style="fill: #898781" transform="translate(25.462656 174.461494) scale(0.09 -0.09)">
       <use xlink:href="#Helvetica-38"/>
       <use xlink:href="#Helvetica-30" transform="translate(55.615234 0)"/>
      </g>
     </g>
    </g>
    <g id="ytick_5">
     <g id="line2d_15">
      <path d="M 38.972344 138.342487 
L 462.808344 138.342487 
" clip-path="url(#pb8b03c9409)" style="fill: none; stroke: #e1e0d9; stroke-linecap: square"/>
     </g>
     <g id="line2d_16"/>
     <g id="text_12">
      <!-- 90 -->
      <g style="fill: #898781" transform="translate(25.462656 141.570533) scale(0.09 -0.09)">
       <defs>
        <path id="Helvetica-39" d="M 850 1081 
Q 875 616 1209 438 
Q 1381 344 1597 344 
Q 2000 344 2284 680 
Q 2569 1016 2688 2044 
Q 2500 1747 2223 1626 
Q 1947 1506 1628 1506 
Q 981 1506 604 1909 
Q 228 2313 228 2947 
Q 228 3556 600 4018 
Q 972 4481 1697 4481 
Q 2675 4481 3047 3600 
Q 3253 3116 3253 2388 
Q 3253 1566 3006 931 
Q 2597 -125 1619 -125 
Q 963 -125 622 219 
Q 281 563 281 1081 
L 850 1081 
z
M 1703 2000 
Q 2038 2000 2314 2220 
Q 2591 2441 2591 2991 
Q 2591 3484 2342 3726 
Q 2094 3969 1709 3969 
Q 1297 3969 1055 3692 
Q 813 3416 813 2953 
Q 813 2516 1025 2258 
Q 1238 2000 1703 2000 
z
" transform="scale(0.015625)"/>
       </defs>
       <use xlink:href="#Helvetica-39"/>
       <use xlink:href="#Helvetica-30" transform="translate(55.615234 0)"/>
      </g>
     </g>
    </g>
    <g id="ytick_6">
     <g id="line2d_17">
      <path d="M 38.972344 105.451526 
L 462.808344 105.451526 
" clip-path="url(#pb8b03c9409)" style="fill: none; stroke: #e1e0d9; stroke-linecap: square"/>
     </g>
     <g id="line2d_18"/>
     <g id="text_13">
      <!-- 100 -->
      <g style="fill: #898781" transform="translate(20.457813 108.679572) scale(0.09 -0.09)">
       <use xlink:href="#Helvetica-31"/>
       <use xlink:href="#Helvetica-30" transform="translate(55.615234 0)"/>
       <use xlink:href="#Helvetica-30" transform="translate(111.230469 0)"/>
      </g>
     </g>
    </g>
    <g id="ytick_7">
     <g id="line2d_19">
      <path d="M 38.972344 72.560565 
L 462.808344 72.560565 
" clip-path="url(#pb8b03c9409)" style="fill: none; stroke: #e1e0d9; stroke-linecap: square"/>
     </g>
     <g id="line2d_20"/>
     <g id="text_14">
      <!-- 110 -->
      <g style="fill: #898781" transform="translate(20.457813 75.788612) scale(0.09 -0.09)">
       <use xlink:href="#Helvetica-31"/>
       <use xlink:href="#Helvetica-31" transform="translate(55.615234 0)"/>
       <use xlink:href="#Helvetica-30" transform="translate(111.230469 0)"/>
      </g>
     </g>
    </g>
    <g id="ytick_8">
     <g id="line2d_21">
      <path d="M 38.972344 39.669604 
L 462.808344 39.669604 
" clip-path="url(#pb8b03c9409)" style="fill: none; stroke: #e1e0d9; stroke-linecap: square"/>
     </g>
     <g id="line2d_22"/>
     <g id="text_15">
      <!-- 120 -->
      <g style="fill: #898781" transform="translate(20.457813 42.897651) scale(0.09 -0.09)">
       <use xlink:href="#Helvetica-31"/>
       <use xlink:href="#Helvetica-32" transform="translate(55.615234 0)"/>
       <use xlink:href="#Helvetica-30" transform="translate(111.230469 0)"/>
      </g>
     </g>
    </g>
    <g id="text_16">
     <!-- $S_t$ -->
     <g style="fill: #52514e" transform="translate(14.373438 147.37) rotate(-90) scale(0.1 -0.1)">
      <defs>
       <path id="DejaVuSans-Oblique-53" d="M 3859 4513 
L 3738 3897 
Q 3422 4066 3111 4152 
Q 2800 4238 2509 4238 
Q 1944 4238 1609 3991 
Q 1275 3744 1275 3334 
Q 1275 3109 1398 2989 
Q 1522 2869 2034 2731 
L 2413 2638 
Q 3053 2472 3303 2217 
Q 3553 1963 3553 1503 
Q 3553 797 2998 353 
Q 2444 -91 1538 -91 
Q 1166 -91 791 -17 
Q 416 56 38 206 
L 166 856 
Q 513 641 861 531 
Q 1209 422 1556 422 
Q 2147 422 2503 684 
Q 2859 947 2859 1369 
Q 2859 1650 2717 1795 
Q 2575 1941 2106 2059 
L 1728 2156 
Q 1081 2325 845 2545 
Q 609 2766 609 3163 
Q 609 3859 1145 4304 
Q 1681 4750 2541 4750 
Q 2875 4750 3203 4690 
Q 3531 4631 3859 4513 
z
" transform="scale(0.015625)"/>
      </defs>
      <use xlink:href="#DejaVuSans-Oblique-53" transform="translate(0 0.78125)"/>
      <use xlink:href="#DejaVuSans-Oblique-74" transform="translate(63.476562 -15.625) scale(0.7)"/>
     </g>
    </g>
   </g>
   <g id="line2d_23">
    <path d="M 38.972344 105.451526 
L 462.808344 105.451526 
" clip-path="url(#pb8b03c9409)" style="fill: none; stroke-dasharray: 3,2; stroke-dashoffset: 0; stroke: #c3c2b7"/>
   </g>
   <g id="patch_3">
    <path d="M 38.972344 278.14 
L 38.972344 7.2 
" style="fill: none; stroke: #c3c2b7; stroke-linejoin: miter; stroke-linecap: square"/>
   </g>
   <g id="patch_4">
    <path d="M 38.972344 278.14 
L 462.808344 278.14 
" style="fill: none; stroke: #c3c2b7; stroke-linejoin: miter; stroke-linecap: square"/>
   </g>
   <g id="line2d_24">
    <path d="M 38.972344 105.451526 
L 39.757225 105.414931 
L 40.542107 104.282208 
L 41.326988 105.26025 
L 42.11187 108.489116 
L 42.896751 110.109829 
L 43.681633 113.653663 
L 44.466514 113.406647 
L 45.251396 108.529466 
L 46.036277 110.286009 
L 46.821159 112.494997 
L 47.60604 110.695873 
L 48.390922 109.370146 
L 49.175803 108.955171 
L 49.960684 112.291405 
L 50.745566 112.365326 
L 51.530447 109.820823 
L 52.315329 114.630627 
L 53.10021 116.23127 
L 53.885092 122.891808 
L 54.669973 127.320256 
L 55.454855 133.548628 
L 56.239736 134.308992 
L 57.024618 138.502046 
L 57.809499 137.57446 
L 58.594381 137.024887 
L 59.379262 137.616725 
L 60.164144 145.822075 
L 60.949025 147.526692 
L 61.733907 147.654235 
L 62.518788 147.262804 
L 63.30367 152.105029 
L 64.088551 153.58129 
L 64.873433 156.60925 
L 65.658314 159.08282 
L 66.443196 155.771085 
L 67.228077 158.248098 
L 68.012959 158.321563 
L 68.79784 155.551424 
L 69.582722 157.337685 
L 70.367603 157.656457 
L 71.152484 157.287495 
L 71.937366 157.062807 
L 72.722247 160.808273 
L 73.507129 160.54861 
L 74.29201 156.329956 
L 75.076892 161.071229 
L 75.861773 158.405848 
L 76.646655 158.010419 
L 77.431536 159.958524 
L 78.216418 153.724913 
L 79.001299 151.295422 
L 79.786181 155.038332 
L 80.571062 154.778268 
L 81.355944 152.942373 
L 82.140825 153.508341 
L 82.925707 151.328181 
L 83.710588 151.511014 
L 84.49547 149.365261 
L 85.280351 144.716326 
L 86.065233 146.868069 
L 86.850114 146.186289 
L 87.634996 147.647203 
L 88.419877 147.210951 
L 89.204759 150.969551 
L 89.98964 152.771633 
L 90.774522 153.361238 
L 91.559403 150.495704 
L 92.344284 146.809696 
L 93.129166 151.005783 
L 93.914047 153.484683 
L 94.698929 151.418267 
L 95.48381 157.624419 
L 96.268692 159.026924 
L 97.053573 159.299425 
L 97.838455 155.379257 
L 98.623336 153.193208 
L 100.977981 156.069902 
L 101.762862 151.261404 
L 102.547744 152.585459 
L 103.332625 153.513155 
L 104.117507 152.376356 
L 104.902388 152.729393 
L 105.68727 153.322505 
L 106.472151 156.77425 
L 107.257033 156.782942 
L 108.041914 158.129221 
L 108.826796 154.476924 
L 109.611677 152.398309 
L 110.396559 152.446925 
L 111.18144 150.304672 
L 111.966322 151.354406 
L 112.751203 147.977783 
L 113.536084 147.967149 
L 114.320966 146.064957 
L 115.105847 150.168238 
L 115.890729 149.036751 
L 116.67561 154.344355 
L 117.460492 160.617684 
L 118.245373 161.521364 
L 119.030255 164.226439 
L 119.815136 163.704125 
L 120.600018 156.79839 
L 121.384899 159.340655 
L 122.169781 161.225865 
L 122.954662 160.5712 
L 123.739544 159.031044 
L 125.309307 160.152007 
L 126.094188 157.963003 
L 126.87907 156.324586 
L 127.663951 159.492517 
L 128.448833 159.708967 
L 129.233714 159.573799 
L 130.018596 162.767903 
L 130.803477 161.951194 
L 131.588359 164.525417 
L 132.37324 161.550241 
L 133.158122 160.935052 
L 133.943003 160.635219 
L 134.727884 162.411495 
L 135.512766 162.745407 
L 136.297647 168.718927 
L 137.082529 172.032434 
L 137.86741 170.940409 
L 138.652292 177.110236 
L 139.437173 174.638378 
L 140.222055 179.634668 
L 141.006936 177.445341 
L 141.791818 179.837694 
L 142.576699 177.586235 
L 143.361581 177.184948 
L 144.146462 181.54144 
L 144.931344 177.960815 
L 145.716225 173.769061 
L 146.501107 173.935323 
L 147.285988 174.706336 
L 148.07087 175.144748 
L 148.855751 177.930513 
L 149.640633 174.73615 
L 150.425514 176.282066 
L 151.210396 176.40458 
L 151.995277 178.657434 
L 152.780159 180.416277 
L 153.56504 183.993783 
L 154.349922 180.425404 
L 155.134803 180.837778 
L 155.919684 178.06007 
L 156.704566 177.996891 
L 157.489447 179.954708 
L 158.274329 180.857505 
L 159.05921 182.415818 
L 159.844092 182.368829 
L 160.628973 183.399408 
L 161.413855 184.215143 
L 162.198736 188.017049 
L 162.983618 190.205475 
L 163.768499 185.624064 
L 164.553381 187.459682 
L 165.338262 190.328576 
L 166.123144 189.382604 
L 166.908025 185.473418 
L 167.692907 189.462871 
L 168.477788 190.009326 
L 169.26267 191.706309 
L 170.047551 196.413966 
L 170.832433 194.427371 
L 171.617314 194.466864 
L 172.402196 194.251764 
L 173.187077 196.239662 
L 173.971959 195.00248 
L 174.75684 196.418159 
L 175.541722 196.774855 
L 177.111484 202.824371 
L 177.896366 199.318278 
L 178.681247 200.624319 
L 179.466129 199.837974 
L 180.25101 199.903699 
L 181.820773 202.33321 
L 182.605655 200.670126 
L 183.390536 201.43479 
L 184.175418 201.806172 
L 184.960299 201.725707 
L 185.745181 198.622478 
L 186.530062 196.798896 
L 187.314944 195.75726 
L 188.099825 197.232839 
L 188.884707 200.845753 
L 190.45447 195.743069 
L 191.239351 196.09493 
L 192.024233 194.623653 
L 193.593996 190.214447 
L 194.378877 187.662348 
L 195.163759 188.891895 
L 195.94864 184.674403 
L 196.733522 188.106224 
L 197.518403 185.698007 
L 198.303284 184.296629 
L 199.088166 181.81757 
L 199.873047 176.43088 
L 200.657929 172.088823 
L 201.44281 175.400164 
L 202.227692 180.218685 
L 203.012573 177.861938 
L 203.797455 180.731557 
L 204.582336 180.742005 
L 205.367218 178.324743 
L 206.152099 182.962749 
L 206.936981 188.799965 
L 207.721862 188.063025 
L 208.506744 187.916742 
L 209.291625 188.569118 
L 210.076507 188.439224 
L 210.861388 190.77011 
L 211.64627 194.833976 
L 212.431151 195.256549 
L 213.216033 197.817068 
L 214.000914 202.101157 
L 214.785796 200.761538 
L 215.570677 200.899078 
L 216.355559 199.81268 
L 217.14044 202.370027 
L 217.925322 204.048142 
L 219.495084 208.808934 
L 220.279966 208.293585 
L 221.064847 210.242075 
L 222.63461 208.447686 
L 223.419492 203.251676 
L 224.204373 206.800418 
L 224.989255 204.507752 
L 225.774136 204.715217 
L 226.559018 204.728848 
L 227.343899 208.399143 
L 228.128781 209.53684 
L 228.913662 207.638844 
L 229.698544 207.82573 
L 230.483425 207.598239 
L 231.268307 208.312054 
L 232.053188 205.352861 
L 232.83807 205.385509 
L 233.622951 210.928119 
L 234.407833 212.628666 
L 235.192714 217.434926 
L 235.977596 225.158661 
L 236.762477 226.374632 
L 237.547359 223.229808 
L 238.33224 223.097954 
L 239.117122 225.829095 
L 239.902003 227.990685 
L 240.686884 225.345095 
L 241.471766 224.956002 
L 242.256647 224.823166 
L 243.041529 224.927955 
L 243.82641 224.81759 
L 244.611292 222.901575 
L 245.396173 221.570411 
L 246.181055 221.035816 
L 246.965936 223.488106 
L 247.750818 222.258971 
L 248.535699 223.854862 
L 249.320581 221.243878 
L 250.105462 224.230536 
L 250.890344 224.533148 
L 251.675225 224.529951 
L 252.460107 227.594491 
L 254.02987 220.063492 
L 254.814751 221.150541 
L 255.599633 219.28201 
L 256.384514 218.348433 
L 257.169396 224.548645 
L 257.954277 223.939929 
L 258.739159 224.063694 
L 259.52404 223.847418 
L 260.308922 226.34649 
L 261.093803 226.95174 
L 261.878684 227.34451 
L 262.663566 224.555847 
L 263.448447 223.749382 
L 264.233329 223.741927 
L 265.01821 220.089677 
L 265.803092 221.394961 
L 266.587973 222.299518 
L 267.372855 226.543188 
L 268.157736 222.84462 
L 269.727499 218.306716 
L 270.512381 216.663669 
L 271.297262 216.374157 
L 272.082144 215.827035 
L 273.651907 216.894981 
L 274.436788 216.741693 
L 275.22167 213.010479 
L 276.006551 211.609278 
L 276.791433 211.733116 
L 278.361196 214.692545 
L 279.146077 210.699067 
L 279.930959 209.406508 
L 280.71584 209.214599 
L 281.500722 210.06246 
L 282.285603 212.8049 
L 283.070484 212.948873 
L 283.855366 210.753766 
L 284.640247 211.711254 
L 286.21001 212.781155 
L 286.994892 212.487854 
L 287.779773 216.383273 
L 288.564655 216.935002 
L 289.349536 218.981063 
L 290.134418 216.819185 
L 290.919299 218.66435 
L 291.704181 217.247099 
L 292.489062 213.493418 
L 293.273944 214.244989 
L 294.058825 215.699166 
L 294.843707 215.209301 
L 295.628588 215.192905 
L 296.41347 217.59303 
L 297.198351 216.451845 
L 297.983233 211.463968 
L 299.552996 212.56658 
L 300.337877 215.121286 
L 301.122759 214.316294 
L 302.692522 219.989984 
L 303.477403 216.879702 
L 304.262284 219.049228 
L 305.047166 216.40907 
L 305.832047 212.641098 
L 306.616929 211.975638 
L 307.40181 210.573632 
L 308.186692 205.613061 
L 308.971573 206.093382 
L 309.756455 207.579683 
L 310.541336 210.963187 
L 311.326218 210.837199 
L 312.111099 207.087817 
L 312.895981 204.613966 
L 314.465744 209.141034 
L 315.250625 210.385148 
L 316.035507 209.630164 
L 316.820388 210.123569 
L 317.60527 209.56336 
L 318.390151 208.79433 
L 319.175033 209.524634 
L 319.959914 209.603686 
L 320.744796 209.061981 
L 321.529677 209.251448 
L 322.314559 207.958538 
L 323.09944 203.150452 
L 323.884322 201.592426 
L 324.669203 201.424427 
L 325.454084 205.752186 
L 326.238966 204.736056 
L 327.023847 209.657836 
L 327.808729 213.148391 
L 328.59361 211.002761 
L 329.378492 209.210203 
L 330.163373 209.565406 
L 330.948255 213.800838 
L 331.733136 214.693246 
L 332.518018 216.332636 
L 333.302899 214.753301 
L 334.087781 209.117402 
L 334.872662 208.548427 
L 335.657544 210.485551 
L 336.442425 213.374814 
L 337.227307 213.491829 
L 338.012188 213.906476 
L 338.79707 216.70528 
L 339.581951 216.400699 
L 340.366833 219.16638 
L 342.721477 211.114226 
L 343.506359 212.272662 
L 344.29124 210.969633 
L 345.076122 211.277496 
L 346.645884 213.042611 
L 348.215647 219.686447 
L 349.000529 217.750375 
L 349.78541 218.191935 
L 350.570292 217.647108 
L 351.355173 215.185016 
L 352.140055 219.370151 
L 352.924936 221.225926 
L 353.709818 220.786884 
L 354.494699 219.827656 
L 355.279581 220.709357 
L 356.064462 218.215685 
L 356.849344 217.685526 
L 357.634225 220.584262 
L 358.419107 222.776715 
L 359.203988 220.841882 
L 359.98887 219.710812 
L 360.773751 224.199768 
L 361.558633 220.988301 
L 362.343514 219.535934 
L 363.128396 216.263854 
L 363.913277 217.176292 
L 364.698159 217.872034 
L 365.48304 220.560593 
L 366.267922 214.388145 
L 367.052803 214.797823 
L 367.837684 210.844176 
L 368.622566 212.434281 
L 369.407447 212.005704 
L 370.192329 216.100843 
L 370.97721 217.011937 
L 371.762092 214.586754 
L 372.546973 217.619925 
L 373.331855 214.984636 
L 374.116736 214.134459 
L 374.901618 216.668718 
L 376.471381 218.95234 
L 377.256262 219.050574 
L 378.041144 220.316476 
L 378.826025 222.266446 
L 379.610907 222.966873 
L 380.395788 225.35963 
L 381.18067 228.331173 
L 381.965551 228.422038 
L 382.750433 226.358903 
L 383.535314 229.865339 
L 384.320196 229.837378 
L 385.105077 231.298413 
L 385.889959 233.485178 
L 386.67484 231.539527 
L 387.459722 232.691478 
L 388.244603 229.264754 
L 389.029484 231.025365 
L 389.814366 230.124893 
L 390.599247 230.623355 
L 391.384129 232.313991 
L 392.16901 230.962258 
L 392.953892 231.294596 
L 393.738773 229.900533 
L 394.523655 229.988685 
L 395.308536 232.435038 
L 396.093418 232.645672 
L 396.878299 232.508787 
L 397.663181 230.314224 
L 398.448062 232.351574 
L 399.232944 232.420695 
L 400.017825 236.251792 
L 400.802707 234.784055 
L 401.587588 237.163454 
L 402.37247 241.087213 
L 403.157351 241.196298 
L 403.942233 238.774517 
L 404.727114 242.061068 
L 405.511996 244.367628 
L 406.296877 245.921573 
L 407.081759 248.268112 
L 407.86664 247.458782 
L 409.436403 250.590601 
L 410.221284 249.370179 
L 411.006166 250.908314 
L 411.791047 250.000529 
L 412.575929 251.974147 
L 413.36081 254.41166 
L 414.145692 258.049573 
L 414.930573 254.324735 
L 415.715455 254.95073 
L 416.500336 254.443223 
L 417.285218 254.488133 
L 418.070099 254.148585 
L 418.854981 254.030866 
L 419.639862 250.124312 
L 420.424744 252.234187 
L 421.209625 255.360652 
L 421.994507 257.357202 
L 422.779388 259.96193 
L 424.349151 256.844318 
L 425.134033 258.724899 
L 425.918914 261.417286 
L 426.703796 262.085156 
L 427.488677 259.3677 
L 428.273559 264.781572 
L 429.05844 263.763532 
L 429.843322 265.786638 
L 430.628203 263.79776 
L 431.413084 265.824545 
L 431.413084 265.824545 
" clip-path="url(#pb8b03c9409)" style="fill: none; stroke: #cde2fb; stroke-opacity: 0.9; stroke-width: 1.6; stroke-linecap: square"/>
   </g>
   <g id="line2d_25">
    <path d="M 38.972344 105.451526 
L 39.757225 106.46745 
L 40.542107 111.911739 
L 41.326988 115.38457 
L 42.11187 110.372224 
L 42.896751 107.354279 
L 43.681633 108.787762 
L 44.466514 111.908413 
L 45.251396 118.633281 
L 46.036277 119.989164 
L 46.821159 120.067122 
L 48.390922 120.630266 
L 49.175803 124.510363 
L 50.745566 124.813356 
L 51.530447 120.283915 
L 52.315329 113.628747 
L 53.10021 114.088375 
L 53.885092 116.789649 
L 54.669973 116.989345 
L 55.454855 119.10734 
L 56.239736 121.68284 
L 57.024618 121.857337 
L 57.809499 125.451243 
L 58.594381 123.320488 
L 59.379262 123.651355 
L 60.164144 122.751271 
L 60.949025 123.357644 
L 61.733907 125.846067 
L 62.518788 129.068836 
L 63.30367 129.847961 
L 64.088551 131.68102 
L 64.873433 130.858856 
L 65.658314 130.844302 
L 66.443196 135.403008 
L 67.228077 135.149403 
L 68.012959 139.579365 
L 68.79784 141.575596 
L 69.582722 142.509107 
L 70.367603 149.174976 
L 71.152484 148.855221 
L 71.937366 148.344982 
L 72.722247 148.82202 
L 74.29201 151.302803 
L 75.076892 154.349137 
L 75.861773 155.164977 
L 76.646655 156.857586 
L 77.431536 156.545892 
L 78.216418 160.234233 
L 79.001299 159.484438 
L 79.786181 159.017098 
L 80.571062 159.425742 
L 81.355944 160.745815 
L 82.140825 159.024073 
L 82.925707 164.074579 
L 83.710588 162.65306 
L 85.280351 160.99591 
L 86.065233 159.795102 
L 86.850114 161.767731 
L 87.634996 162.530836 
L 88.419877 160.561112 
L 89.204759 159.212844 
L 89.98964 158.549318 
L 90.774522 163.153232 
L 91.559403 161.490735 
L 93.129166 154.706468 
L 93.914047 153.946921 
L 94.698929 158.761292 
L 95.48381 155.814515 
L 96.268692 156.24561 
L 97.053573 163.983494 
L 97.838455 162.814346 
L 98.623336 167.280939 
L 99.408218 171.098584 
L 100.193099 172.935394 
L 100.977981 169.163386 
L 101.762862 170.234915 
L 102.547744 169.407626 
L 104.117507 159.266809 
L 104.902388 159.557712 
L 105.68727 160.272037 
L 106.472151 164.082403 
L 107.257033 166.146647 
L 108.826796 163.620297 
L 109.611677 163.259972 
L 110.396559 160.201165 
L 111.18144 162.531934 
L 111.966322 162.675817 
L 112.751203 160.418829 
L 113.536084 158.596985 
L 114.320966 155.248054 
L 115.105847 153.979031 
L 115.890729 154.920016 
L 116.67561 153.758786 
L 117.460492 156.859539 
L 118.245373 161.873164 
L 119.030255 160.071646 
L 119.815136 160.213962 
L 120.600018 159.240214 
L 121.384899 164.38663 
L 122.169781 165.46023 
L 122.954662 167.231565 
L 123.739544 169.774395 
L 124.524425 176.336568 
L 125.309307 177.275741 
L 126.094188 174.658317 
L 126.87907 173.524275 
L 127.663951 175.245646 
L 128.448833 175.263477 
L 129.233714 173.0364 
L 130.018596 180.953621 
L 130.803477 181.281536 
L 131.588359 179.715039 
L 132.37324 177.740555 
L 133.158122 172.788791 
L 133.943003 169.422405 
L 135.512766 167.543785 
L 136.297647 165.159638 
L 137.082529 166.75191 
L 137.86741 166.846043 
L 138.652292 164.095436 
L 139.437173 158.088566 
L 140.222055 158.553187 
L 141.006936 158.675518 
L 141.791818 158.036131 
L 142.576699 153.827761 
L 143.361581 153.895477 
L 144.146462 149.222153 
L 144.931344 152.259712 
L 146.501107 153.414101 
L 147.285988 150.905092 
L 148.07087 147.545126 
L 148.855751 152.31735 
L 149.640633 155.161099 
L 150.425514 154.080288 
L 151.210396 156.109684 
L 151.995277 160.779121 
L 152.780159 157.557182 
L 154.349922 154.430693 
L 155.134803 155.887606 
L 155.919684 152.638115 
L 156.704566 153.365523 
L 157.489447 149.871997 
L 159.05921 155.378979 
L 159.844092 154.712616 
L 160.628973 156.872851 
L 161.413855 154.742128 
L 162.198736 153.900506 
L 162.983618 156.752669 
L 163.768499 156.49933 
L 164.553381 157.561479 
L 165.338262 154.685411 
L 166.123144 156.629266 
L 166.908025 157.962669 
L 167.692907 154.166893 
L 169.26267 140.515107 
L 170.047551 140.278656 
L 170.832433 139.529449 
L 171.617314 134.401856 
L 172.402196 134.78967 
L 173.187077 138.013091 
L 173.971959 137.596664 
L 174.75684 136.065694 
L 175.541722 138.78935 
L 177.111484 148.74801 
L 177.896366 146.587146 
L 178.681247 148.989017 
L 179.466129 149.411856 
L 180.25101 148.706025 
L 181.035892 146.693755 
L 181.820773 147.740918 
L 182.605655 146.110211 
L 183.390536 148.936594 
L 184.175418 150.060827 
L 184.960299 153.271027 
L 185.745181 149.663886 
L 186.530062 149.722329 
L 187.314944 152.037848 
L 188.099825 153.120492 
L 188.884707 153.789469 
L 189.669588 151.555818 
L 190.45447 156.529172 
L 191.239351 159.705613 
L 192.024233 160.837565 
L 192.809114 152.955453 
L 193.593996 149.904831 
L 194.378877 150.231361 
L 195.163759 147.932623 
L 195.94864 141.239014 
L 196.733522 141.975534 
L 197.518403 143.142486 
L 198.303284 139.140853 
L 199.088166 137.476287 
L 199.873047 135.210399 
L 200.657929 136.87638 
L 202.227692 124.481164 
L 203.012573 122.483779 
L 203.797455 120.057939 
L 204.582336 127.071682 
L 205.367218 124.84276 
L 206.152099 125.483635 
L 206.936981 123.9513 
L 207.721862 121.543276 
L 208.506744 122.704254 
L 209.291625 128.509484 
L 210.076507 127.218993 
L 210.861388 129.724647 
L 211.64627 130.817601 
L 212.431151 132.832823 
L 213.216033 133.95285 
L 214.000914 141.581926 
L 214.785796 137.542246 
L 215.570677 136.671292 
L 216.355559 132.919785 
L 217.14044 126.142842 
L 217.925322 126.034917 
L 218.710203 132.15661 
L 219.495084 135.132614 
L 220.279966 139.114381 
L 221.064847 140.737782 
L 221.849729 140.447541 
L 222.63461 146.92572 
L 223.419492 145.794889 
L 224.204373 150.599128 
L 224.989255 149.62639 
L 225.774136 149.947005 
L 226.559018 150.914924 
L 227.343899 151.11869 
L 228.913662 154.689638 
L 229.698544 159.875371 
L 230.483425 159.939522 
L 232.053188 147.890236 
L 232.83807 143.596877 
L 233.622951 141.264775 
L 234.407833 143.444819 
L 235.192714 138.685331 
L 236.762477 139.04069 
L 237.547359 139.971994 
L 238.33224 139.640424 
L 239.117122 141.04241 
L 239.902003 141.288464 
L 240.686884 144.792626 
L 241.471766 145.971712 
L 242.256647 138.495142 
L 243.041529 138.696435 
L 243.82641 139.455556 
L 244.611292 137.66608 
L 245.396173 135.278651 
L 246.181055 138.951027 
L 246.965936 139.605699 
L 247.750818 136.534928 
L 248.535699 135.605939 
L 249.320581 135.169143 
L 250.105462 129.895742 
L 250.890344 132.164716 
L 251.675225 131.855524 
L 252.460107 133.579994 
L 253.244988 128.496527 
L 254.02987 135.069764 
L 254.814751 137.274834 
L 255.599633 138.998458 
L 257.169396 134.716872 
L 257.954277 129.976476 
L 258.739159 135.257085 
L 259.52404 132.707465 
L 260.308922 133.665642 
L 261.093803 135.865985 
L 261.878684 134.030572 
L 262.663566 137.075393 
L 263.448447 143.870693 
L 264.233329 145.042389 
L 265.01821 149.819121 
L 265.803092 151.848487 
L 267.372855 149.625631 
L 268.157736 144.500492 
L 268.942618 145.1186 
L 269.727499 150.007149 
L 270.512381 152.373289 
L 271.297262 155.22979 
L 272.082144 158.977753 
L 272.867025 157.60706 
L 273.651907 159.569566 
L 274.436788 165.551708 
L 275.22167 163.422593 
L 276.006551 163.733529 
L 276.791433 162.625194 
L 277.576314 162.277285 
L 278.361196 160.322279 
L 279.146077 160.179039 
L 279.930959 156.336109 
L 282.285603 152.413606 
L 283.070484 156.941086 
L 283.855366 157.424259 
L 284.640247 158.19908 
L 285.425129 157.530528 
L 286.21001 161.677404 
L 286.994892 156.622617 
L 287.779773 156.271166 
L 288.564655 159.985185 
L 289.349536 165.151386 
L 290.134418 165.970524 
L 290.919299 166.213335 
L 291.704181 168.332202 
L 292.489062 168.032122 
L 293.273944 169.908709 
L 294.058825 168.246653 
L 294.843707 170.3679 
L 295.628588 170.455781 
L 296.41347 167.525789 
L 297.198351 159.715569 
L 297.983233 162.765826 
L 298.768114 164.146316 
L 299.552996 166.645562 
L 300.337877 164.261292 
L 301.122759 167.680175 
L 301.90764 169.094561 
L 302.692522 169.156481 
L 304.262284 174.78459 
L 305.047166 176.136082 
L 305.832047 182.104902 
L 306.616929 186.124632 
L 307.40181 187.244219 
L 308.186692 186.810205 
L 308.971573 187.299713 
L 309.756455 192.127933 
L 310.541336 193.357235 
L 311.326218 191.172499 
L 312.111099 189.632573 
L 312.895981 189.824103 
L 313.680862 192.214575 
L 314.465744 190.475873 
L 315.250625 192.025726 
L 316.035507 195.14974 
L 316.820388 197.262451 
L 317.60527 193.368364 
L 318.390151 192.750828 
L 319.175033 189.575125 
L 319.959914 190.859719 
L 320.744796 188.26824 
L 321.529677 189.893833 
L 322.314559 190.299944 
L 323.09944 183.395827 
L 323.884322 181.209363 
L 324.669203 182.599325 
L 325.454084 182.813434 
L 326.238966 181.869675 
L 327.023847 178.404444 
L 327.808729 179.775547 
L 328.59361 184.659676 
L 329.378492 185.414875 
L 330.163373 185.347771 
L 330.948255 185.018315 
L 331.733136 181.295906 
L 332.518018 180.373535 
L 333.302899 178.029607 
L 334.087781 181.141227 
L 334.872662 178.647234 
L 335.657544 172.557904 
L 336.442425 170.260009 
L 337.227307 169.484438 
L 338.012188 169.002152 
L 338.79707 163.620331 
L 339.581951 166.386263 
L 340.366833 166.692828 
L 341.151714 165.285817 
L 341.936596 163.011809 
L 342.721477 164.308998 
L 343.506359 163.353092 
L 344.29124 164.167534 
L 345.076122 163.776982 
L 345.861003 164.149949 
L 346.645884 167.550835 
L 347.430766 167.587801 
L 348.215647 164.932456 
L 349.000529 167.803731 
L 349.78541 168.495345 
L 350.570292 166.485828 
L 351.355173 169.645111 
L 352.140055 169.078156 
L 352.924936 172.17833 
L 353.709818 168.80532 
L 355.279581 155.563088 
L 356.064462 156.218332 
L 356.849344 153.879615 
L 358.419107 153.12428 
L 359.203988 148.187379 
L 359.98887 152.349653 
L 360.773751 148.974795 
L 361.558633 149.10321 
L 362.343514 144.547165 
L 363.128396 143.911535 
L 363.913277 146.059618 
L 364.698159 145.136726 
L 365.48304 142.718631 
L 366.267922 142.573546 
L 367.052803 140.948469 
L 367.837684 142.626376 
L 368.622566 149.476308 
L 369.407447 146.567105 
L 370.192329 144.280367 
L 370.97721 143.771065 
L 371.762092 143.520366 
L 372.546973 140.102359 
L 373.331855 141.573818 
L 374.116736 143.849196 
L 374.901618 144.432699 
L 375.686499 140.523859 
L 376.471381 145.01744 
L 377.256262 141.107524 
L 378.041144 143.167564 
L 378.826025 146.701186 
L 379.610907 142.591529 
L 380.395788 142.879003 
L 381.18067 147.057636 
L 381.965551 148.179732 
L 382.750433 145.156976 
L 383.535314 141.248145 
L 384.320196 142.616012 
L 385.105077 141.25908 
L 385.889959 138.880864 
L 386.67484 140.974173 
L 387.459722 139.778561 
L 388.244603 139.854821 
L 389.814366 143.164102 
L 390.599247 142.917363 
L 391.384129 142.791644 
L 392.16901 144.600989 
L 392.953892 145.949489 
L 393.738773 142.308578 
L 394.523655 141.581 
L 395.308536 138.640534 
L 396.093418 134.610961 
L 396.878299 132.601639 
L 397.663181 124.811915 
L 398.448062 127.625139 
L 399.232944 124.810022 
L 400.017825 125.879051 
L 401.587588 113.304175 
L 402.37247 120.212163 
L 403.157351 123.566439 
L 403.942233 121.218967 
L 405.511996 115.766894 
L 406.296877 115.988176 
L 407.081759 114.332836 
L 407.86664 111.956325 
L 408.651522 112.205489 
L 409.436403 108.452238 
L 410.221284 116.551224 
L 411.006166 114.260008 
L 411.791047 117.908554 
L 412.575929 114.467276 
L 413.36081 115.253015 
L 414.145692 118.377464 
L 414.930573 117.022837 
L 416.500336 123.368473 
L 417.285218 128.740697 
L 418.070099 128.802152 
L 418.854981 127.070195 
L 419.639862 123.504985 
L 420.424744 123.966905 
L 421.209625 120.278513 
L 421.994507 120.184806 
L 422.779388 120.481718 
L 423.56427 118.431657 
L 424.349151 114.639825 
L 425.134033 115.826932 
L 425.918914 116.66289 
L 426.703796 117.202724 
L 427.488677 116.878141 
L 428.273559 120.027521 
L 429.05844 116.362897 
L 429.843322 117.752435 
L 430.628203 116.080211 
L 431.413084 118.973384 
L 431.413084 118.973384 
" clip-path="url(#pb8b03c9409)" style="fill: none; stroke: #9ec5f4; stroke-opacity: 0.9; stroke-width: 1.6; stroke-linecap: square"/>
   </g>
   <g id="line2d_26">
    <path d="M 38.972344 105.451526 
L 40.542107 102.615783 
L 41.326988 104.140243 
L 42.11187 96.561294 
L 42.896751 95.123997 
L 43.681633 88.283353 
L 44.466514 84.51811 
L 45.251396 87.065082 
L 46.036277 88.512185 
L 46.821159 86.787901 
L 48.390922 86.289847 
L 49.175803 87.368019 
L 49.960684 94.280395 
L 50.745566 95.103384 
L 51.530447 103.381021 
L 52.315329 101.969843 
L 53.885092 107.219998 
L 54.669973 107.98931 
L 55.454855 106.960905 
L 56.239736 112.129532 
L 57.024618 118.337155 
L 57.809499 122.051031 
L 58.594381 129.06968 
L 59.379262 132.322572 
L 60.164144 126.872288 
L 60.949025 130.453651 
L 61.733907 128.202385 
L 62.518788 132.832221 
L 63.30367 131.792641 
L 64.088551 132.842915 
L 64.873433 133.015101 
L 65.658314 131.063127 
L 66.443196 125.01875 
L 67.228077 124.314386 
L 68.012959 123.852731 
L 68.79784 127.183596 
L 69.582722 125.143509 
L 70.367603 125.962984 
L 71.152484 123.050491 
L 71.937366 123.172237 
L 72.722247 117.025191 
L 73.507129 123.952753 
L 74.29201 124.950221 
L 75.076892 121.855352 
L 75.861773 123.047892 
L 76.646655 125.762859 
L 77.431536 126.648846 
L 78.216418 131.330276 
L 79.001299 130.897407 
L 79.786181 122.472937 
L 80.571062 118.423725 
L 81.355944 122.286453 
L 82.140825 125.288667 
L 82.925707 126.654058 
L 83.710588 123.14878 
L 84.49547 125.963957 
L 85.280351 128.304867 
L 86.850114 122.19895 
L 87.634996 123.47056 
L 88.419877 127.301639 
L 89.204759 132.546706 
L 89.98964 134.866979 
L 90.774522 142.214943 
L 91.559403 139.726791 
L 92.344284 141.766364 
L 93.129166 140.158976 
L 93.914047 133.919607 
L 94.698929 129.923838 
L 95.48381 133.78756 
L 96.268692 130.822602 
L 97.053573 126.837699 
L 97.838455 129.363422 
L 98.623336 132.567458 
L 99.408218 132.907958 
L 100.193099 138.228411 
L 100.977981 133.289399 
L 101.762862 141.249578 
L 102.547744 144.826104 
L 104.117507 146.37321 
L 104.902388 145.809693 
L 105.68727 144.904421 
L 106.472151 145.566737 
L 107.257033 141.843988 
L 108.041914 148.729831 
L 108.826796 148.702506 
L 109.611677 150.947993 
L 110.396559 150.500118 
L 111.18144 149.770889 
L 111.966322 152.629954 
L 112.751203 154.614357 
L 113.536084 152.096877 
L 114.320966 150.96554 
L 115.105847 153.08528 
L 115.890729 146.568544 
L 116.67561 139.012952 
L 117.460492 143.774542 
L 118.245373 142.763968 
L 119.030255 134.439209 
L 119.815136 131.769563 
L 120.600018 130.991198 
L 121.384899 131.666549 
L 122.169781 133.463208 
L 122.954662 134.14802 
L 123.739544 135.961763 
L 124.524425 133.436879 
L 126.094188 136.189321 
L 126.87907 140.141422 
L 127.663951 140.27583 
L 128.448833 143.172643 
L 129.233714 143.732162 
L 130.018596 140.298497 
L 130.803477 139.064184 
L 131.588359 137.364157 
L 132.37324 136.150316 
L 133.158122 135.923857 
L 133.943003 136.319345 
L 134.727884 137.314296 
L 135.512766 134.753265 
L 136.297647 138.334376 
L 137.082529 133.83429 
L 137.86741 133.690452 
L 138.652292 136.167706 
L 139.437173 137.765105 
L 140.222055 139.972859 
L 141.006936 139.416333 
L 141.791818 141.745478 
L 142.576699 137.956091 
L 143.361581 140.506437 
L 144.146462 147.850586 
L 144.931344 150.154932 
L 145.716225 156.438831 
L 146.501107 156.535599 
L 147.285988 153.198692 
L 148.07087 151.127459 
L 148.855751 155.304414 
L 149.640633 157.645528 
L 150.425514 152.060237 
L 151.210396 151.025529 
L 151.995277 150.984854 
L 152.780159 147.591201 
L 153.56504 139.589703 
L 154.349922 135.256375 
L 155.134803 134.760585 
L 155.919684 133.540821 
L 156.704566 131.428703 
L 157.489447 133.467417 
L 158.274329 136.979059 
L 159.05921 136.77561 
L 159.844092 139.881745 
L 160.628973 140.055339 
L 161.413855 139.710155 
L 162.198736 131.866776 
L 162.983618 134.702153 
L 163.768499 135.080725 
L 164.553381 135.60086 
L 165.338262 134.107287 
L 166.123144 130.543234 
L 166.908025 132.175281 
L 167.692907 134.908354 
L 168.477788 140.322685 
L 169.26267 143.32345 
L 170.047551 141.544132 
L 170.832433 141.366089 
L 171.617314 144.645375 
L 172.402196 145.82217 
L 173.187077 145.692478 
L 173.971959 144.034006 
L 174.75684 145.925642 
L 175.541722 146.704088 
L 176.326603 152.46583 
L 177.111484 156.044245 
L 177.896366 150.937005 
L 178.681247 157.759643 
L 179.466129 158.775459 
L 180.25101 158.072313 
L 181.035892 159.199435 
L 181.820773 161.647865 
L 182.605655 161.807459 
L 183.390536 161.796016 
L 184.175418 162.019591 
L 184.960299 167.651383 
L 185.745181 168.064602 
L 186.530062 170.572668 
L 187.314944 172.157575 
L 188.099825 171.465717 
L 188.884707 169.549869 
L 189.669588 166.855363 
L 190.45447 168.309987 
L 191.239351 165.521045 
L 192.809114 158.432459 
L 193.593996 154.08425 
L 195.163759 155.030163 
L 195.94864 152.414108 
L 196.733522 156.661939 
L 197.518403 155.983807 
L 198.303284 157.603224 
L 199.088166 158.715125 
L 199.873047 164.003881 
L 200.657929 166.656261 
L 201.44281 166.691496 
L 203.012573 160.95713 
L 203.797455 161.175924 
L 204.582336 161.726876 
L 205.367218 164.220847 
L 206.152099 162.976429 
L 206.936981 163.700197 
L 207.721862 161.833947 
L 208.506744 156.416946 
L 209.291625 156.490442 
L 210.076507 161.076891 
L 210.861388 163.668134 
L 211.64627 168.019386 
L 212.431151 171.534755 
L 213.216033 167.645105 
L 214.000914 166.942283 
L 214.785796 171.42331 
L 215.570677 169.468941 
L 216.355559 165.683616 
L 217.14044 166.736381 
L 217.925322 168.725515 
L 218.710203 169.699801 
L 219.495084 168.83042 
L 220.279966 166.897636 
L 222.63461 155.893365 
L 223.419492 151.593192 
L 224.204373 149.466728 
L 224.989255 154.274195 
L 225.774136 154.656735 
L 226.559018 153.645953 
L 227.343899 154.818566 
L 228.128781 151.928435 
L 228.913662 153.036165 
L 229.698544 155.905761 
L 230.483425 151.345239 
L 231.268307 149.202192 
L 232.053188 148.474443 
L 232.83807 145.468829 
L 233.622951 141.987964 
L 234.407833 140.842431 
L 235.192714 148.769947 
L 235.977596 150.891346 
L 236.762477 152.307191 
L 237.547359 155.366614 
L 238.33224 154.718936 
L 239.117122 150.938937 
L 239.902003 152.443842 
L 240.686884 155.971019 
L 241.471766 149.558895 
L 242.256647 150.965105 
L 243.041529 154.817653 
L 243.82641 154.046501 
L 244.611292 152.681764 
L 245.396173 154.866181 
L 246.181055 152.357692 
L 246.965936 153.862633 
L 247.750818 156.715119 
L 248.535699 156.133062 
L 249.320581 153.697719 
L 250.105462 155.652486 
L 250.890344 154.593055 
L 251.675225 154.858084 
L 252.460107 145.862938 
L 253.244988 148.111466 
L 254.02987 143.618807 
L 254.814751 143.760581 
L 255.599633 144.143846 
L 256.384514 141.76424 
L 257.169396 138.796219 
L 257.954277 134.55032 
L 258.739159 133.417317 
L 260.308922 137.164231 
L 261.878684 133.459731 
L 262.663566 128.689684 
L 263.448447 127.2264 
L 264.233329 123.533954 
L 265.01821 118.187169 
L 265.803092 117.573188 
L 266.587973 122.760902 
L 267.372855 126.812314 
L 268.157736 131.687165 
L 268.942618 126.222979 
L 269.727499 129.09883 
L 270.512381 124.835372 
L 271.297262 122.771356 
L 272.082144 116.707273 
L 272.867025 113.093434 
L 273.651907 113.429637 
L 274.436788 114.115346 
L 275.22167 113.779006 
L 276.006551 113.118898 
L 276.791433 114.988333 
L 277.576314 115.073689 
L 278.361196 109.24514 
L 279.146077 115.342652 
L 279.930959 114.388164 
L 280.71584 117.585424 
L 281.500722 116.891357 
L 282.285603 113.86507 
L 283.070484 114.040206 
L 283.855366 111.228409 
L 284.640247 116.890378 
L 285.425129 112.905441 
L 286.21001 115.034653 
L 286.994892 112.773442 
L 287.779773 112.085368 
L 288.564655 121.23765 
L 289.349536 123.84307 
L 290.134418 123.046235 
L 290.919299 117.55931 
L 292.489062 115.561021 
L 293.273944 120.526089 
L 294.058825 115.433023 
L 294.843707 108.89222 
L 295.628588 108.756478 
L 296.41347 109.523823 
L 297.198351 115.31987 
L 297.983233 112.122046 
L 298.768114 102.205485 
L 299.552996 99.499053 
L 300.337877 94.701214 
L 301.122759 92.603059 
L 301.90764 96.31317 
L 302.692522 91.189832 
L 303.477403 95.861071 
L 304.262284 96.624476 
L 305.047166 95.536852 
L 305.832047 92.142313 
L 307.40181 88.989457 
L 308.186692 91.883975 
L 308.971573 96.752662 
L 309.756455 96.487578 
L 310.541336 99.127061 
L 312.111099 108.572499 
L 312.895981 110.321282 
L 313.680862 116.932967 
L 314.465744 121.648743 
L 315.250625 127.283682 
L 316.035507 126.627302 
L 316.820388 125.190256 
L 317.60527 118.14304 
L 318.390151 123.363049 
L 319.175033 125.687003 
L 319.959914 122.490978 
L 320.744796 123.215577 
L 321.529677 124.320805 
L 322.314559 118.308431 
L 323.09944 119.471256 
L 324.669203 127.999107 
L 326.238966 125.735693 
L 327.023847 130.403059 
L 327.808729 133.704094 
L 329.378492 129.883534 
L 330.163373 132.035837 
L 331.733136 127.912946 
L 332.518018 133.932349 
L 333.302899 134.949521 
L 334.087781 133.527319 
L 334.872662 135.419508 
L 335.657544 142.455133 
L 336.442425 143.34895 
L 337.227307 140.862996 
L 338.012188 135.601824 
L 338.79707 142.802226 
L 339.581951 134.128569 
L 340.366833 137.859383 
L 341.151714 134.640781 
L 341.936596 130.446717 
L 342.721477 127.058173 
L 343.506359 126.513677 
L 344.29124 130.455619 
L 345.076122 128.289404 
L 345.861003 130.697556 
L 346.645884 139.113822 
L 347.430766 129.596771 
L 348.215647 127.144478 
L 349.000529 120.805301 
L 349.78541 123.954647 
L 351.355173 113.09812 
L 352.140055 107.433764 
L 352.924936 107.479398 
L 353.709818 111.813119 
L 354.494699 112.420523 
L 355.279581 120.221719 
L 356.064462 126.112933 
L 356.849344 125.765833 
L 357.634225 129.137711 
L 358.419107 129.668665 
L 359.203988 130.010081 
L 359.98887 123.338558 
L 360.773751 118.762612 
L 361.558633 118.890148 
L 362.343514 114.566147 
L 363.128396 117.31092 
L 363.913277 118.472085 
L 364.698159 115.209874 
L 365.48304 119.579091 
L 366.267922 120.528801 
L 367.052803 125.099118 
L 367.837684 124.662478 
L 368.622566 118.927178 
L 369.407447 121.537948 
L 370.192329 120.716364 
L 370.97721 123.816954 
L 372.546973 131.9306 
L 373.331855 126.94149 
L 374.116736 118.682705 
L 374.901618 116.942296 
L 375.686499 119.443458 
L 376.471381 116.92086 
L 377.256262 118.074353 
L 378.041144 115.196603 
L 379.610907 113.09099 
L 380.395788 110.870749 
L 381.18067 112.92851 
L 381.965551 114.347217 
L 382.750433 120.416114 
L 383.535314 121.932796 
L 384.320196 126.831805 
L 385.105077 127.298921 
L 385.889959 130.539367 
L 386.67484 130.165639 
L 387.459722 128.590444 
L 388.244603 133.377621 
L 389.029484 136.072899 
L 389.814366 139.173499 
L 390.599247 136.670516 
L 391.384129 130.907156 
L 392.16901 127.974465 
L 392.953892 129.139309 
L 393.738773 124.068579 
L 394.523655 129.247329 
L 395.308536 124.059241 
L 396.093418 126.297467 
L 396.878299 135.697088 
L 397.663181 126.683144 
L 398.448062 121.17613 
L 399.232944 124.738338 
L 400.017825 124.122482 
L 400.802707 124.835421 
L 401.587588 124.451258 
L 402.37247 129.518593 
L 403.157351 131.802966 
L 403.942233 130.186188 
L 404.727114 129.398171 
L 405.511996 125.251589 
L 406.296877 124.945686 
L 407.081759 116.680221 
L 407.86664 119.181469 
L 408.651522 118.235483 
L 409.436403 124.906291 
L 410.221284 129.18191 
L 411.006166 124.584936 
L 411.791047 127.803204 
L 412.575929 125.948882 
L 413.36081 126.131753 
L 414.145692 129.68074 
L 414.930573 130.835128 
L 416.500336 134.156586 
L 418.070099 129.340905 
L 418.854981 131.274167 
L 419.639862 134.303201 
L 420.424744 133.325184 
L 421.209625 133.632296 
L 421.994507 130.125341 
L 422.779388 120.927508 
L 423.56427 117.928839 
L 424.349151 118.020843 
L 425.134033 118.597956 
L 426.703796 124.701898 
L 427.488677 128.126549 
L 429.05844 130.870474 
L 429.843322 128.30654 
L 430.628203 129.639083 
L 431.413084 130.281385 
L 431.413084 130.281385 
" clip-path="url(#pb8b03c9409)" style="fill: none; stroke: #6da7ec; stroke-opacity: 0.9; stroke-width: 1.6; stroke-linecap: square"/>
   </g>
   <g id="line2d_27">
    <path d="M 38.972344 105.451526 
L 39.757225 109.869502 
L 40.542107 103.815686 
L 41.326988 101.904328 
L 42.11187 95.155113 
L 42.896751 92.0861 
L 43.681633 86.303965 
L 44.466514 87.235744 
L 45.251396 84.40715 
L 46.036277 73.624679 
L 46.821159 78.49109 
L 47.60604 73.744944 
L 48.390922 66.797925 
L 49.175803 65.02722 
L 49.960684 61.817569 
L 50.745566 56.412524 
L 51.530447 59.197756 
L 52.315329 57.406099 
L 53.10021 61.093674 
L 54.669973 66.501752 
L 55.454855 67.067022 
L 56.239736 66.415584 
L 57.024618 64.469777 
L 57.809499 70.386135 
L 58.594381 62.007989 
L 59.379262 57.011385 
L 60.164144 53.824193 
L 60.949025 55.343465 
L 61.733907 55.693265 
L 62.518788 53.272869 
L 63.30367 51.43567 
L 64.088551 58.696883 
L 64.873433 55.457353 
L 65.658314 42.546279 
L 66.443196 50.715502 
L 67.228077 46.278948 
L 68.012959 44.595189 
L 68.79784 45.055504 
L 69.582722 38.844387 
L 70.367603 44.136635 
L 71.152484 43.368825 
L 71.937366 36.708934 
L 72.722247 37.567742 
L 73.507129 39.429008 
L 74.29201 38.86918 
L 75.076892 40.845317 
L 75.861773 33.752006 
L 76.646655 37.865379 
L 77.431536 33.830269 
L 78.216418 39.512389 
L 79.001299 36.426577 
L 79.786181 36.867139 
L 80.571062 48.455946 
L 81.355944 48.444825 
L 82.140825 53.111024 
L 82.925707 55.016111 
L 83.710588 48.211121 
L 85.280351 57.682126 
L 86.065233 51.356281 
L 86.850114 50.80813 
L 87.634996 43.913776 
L 88.419877 42.420919 
L 89.204759 46.337782 
L 89.98964 46.59559 
L 90.774522 41.037891 
L 91.559403 36.721436 
L 92.344284 36.678612 
L 93.129166 36.416801 
L 93.914047 36.892486 
L 94.698929 39.487825 
L 95.48381 30.583108 
L 96.268692 30.510357 
L 97.053573 35.688256 
L 97.838455 37.829552 
L 99.408218 31.466735 
L 100.193099 32.062142 
L 100.977981 35.102543 
L 101.762862 34.953856 
L 102.547744 42.525962 
L 103.332625 48.30819 
L 104.117507 44.708544 
L 104.902388 46.811579 
L 105.68727 45.099746 
L 106.472151 39.571529 
L 107.257033 36.573625 
L 108.041914 36.44058 
L 108.826796 26.5467 
L 109.611677 23.364492 
L 110.396559 24.995899 
L 111.18144 21.496136 
L 111.966322 19.515455 
L 112.751203 23.536866 
L 113.536084 23.152074 
L 114.320966 23.891156 
L 115.105847 33.025268 
L 115.890729 33.780765 
L 116.67561 35.043243 
L 117.460492 37.011327 
L 118.245373 44.415441 
L 119.030255 45.964111 
L 119.815136 46.103397 
L 120.600018 45.610327 
L 121.384899 50.613719 
L 122.169781 47.776114 
L 122.954662 53.102655 
L 123.739544 54.04489 
L 124.524425 48.259426 
L 125.309307 51.282362 
L 126.094188 53.487199 
L 126.87907 48.722093 
L 127.663951 50.382744 
L 128.448833 51.653667 
L 129.233714 50.642197 
L 130.018596 45.94979 
L 130.803477 55.623709 
L 131.588359 59.174245 
L 133.943003 71.55354 
L 134.727884 74.996435 
L 135.512766 73.71675 
L 136.297647 77.341067 
L 137.082529 76.804572 
L 137.86741 75.121063 
L 138.652292 78.078298 
L 139.437173 77.50983 
L 140.222055 70.71839 
L 141.006936 69.33844 
L 141.791818 71.958263 
L 142.576699 72.19238 
L 143.361581 75.935478 
L 144.146462 74.788126 
L 144.931344 71.187583 
L 145.716225 74.539007 
L 146.501107 75.363659 
L 147.285988 70.734281 
L 148.07087 72.760396 
L 148.855751 71.947592 
L 149.640633 76.126798 
L 150.425514 79.428044 
L 151.210396 81.464816 
L 151.995277 72.73757 
L 152.780159 74.352515 
L 154.349922 78.656339 
L 155.134803 79.279695 
L 155.919684 76.631249 
L 156.704566 75.837616 
L 157.489447 67.45765 
L 158.274329 66.543733 
L 159.05921 60.506669 
L 159.844092 59.311709 
L 160.628973 56.726964 
L 161.413855 62.736802 
L 162.198736 63.228161 
L 162.983618 63.477982 
L 163.768499 64.447996 
L 164.553381 73.210261 
L 165.338262 69.60136 
L 166.908025 72.880769 
L 168.477788 74.758432 
L 169.26267 73.082747 
L 170.047551 78.145684 
L 170.832433 81.800057 
L 171.617314 80.6181 
L 172.402196 80.007309 
L 173.187077 81.461995 
L 173.971959 83.684946 
L 174.75684 86.907369 
L 175.541722 87.100129 
L 176.326603 82.451238 
L 177.111484 86.555675 
L 177.896366 80.546901 
L 178.681247 77.157683 
L 179.466129 78.927438 
L 180.25101 75.766978 
L 181.035892 81.561789 
L 181.820773 88.292413 
L 182.605655 93.213726 
L 183.390536 94.739872 
L 184.175418 95.940241 
L 184.960299 97.850954 
L 185.745181 97.443841 
L 186.530062 105.35933 
L 187.314944 103.499949 
L 188.099825 108.676952 
L 188.884707 111.042891 
L 189.669588 112.500447 
L 190.45447 116.603329 
L 191.239351 121.406346 
L 192.024233 124.876669 
L 192.809114 124.887752 
L 194.378877 120.807123 
L 195.163759 124.243906 
L 195.94864 126.946394 
L 196.733522 130.064613 
L 197.518403 128.500615 
L 198.303284 135.359922 
L 199.088166 131.161884 
L 199.873047 132.77146 
L 200.657929 135.37272 
L 201.44281 134.206577 
L 202.227692 130.691596 
L 203.012573 129.496528 
L 203.797455 125.856982 
L 204.582336 125.36308 
L 206.152099 116.632054 
L 206.936981 116.954292 
L 207.721862 111.774196 
L 208.506744 111.148003 
L 209.291625 110.802305 
L 210.076507 114.087396 
L 210.861388 115.088656 
L 211.64627 112.269513 
L 212.431151 116.931013 
L 213.216033 114.585943 
L 214.000914 113.30584 
L 214.785796 112.276582 
L 215.570677 120.094348 
L 216.355559 120.426287 
L 217.14044 118.111862 
L 217.925322 120.767452 
L 218.710203 120.420061 
L 219.495084 128.627228 
L 220.279966 126.293596 
L 221.064847 128.536969 
L 221.849729 125.512938 
L 222.63461 131.781528 
L 223.419492 129.400808 
L 224.204373 130.177942 
L 224.989255 127.389019 
L 225.774136 130.520097 
L 226.559018 132.584355 
L 227.343899 124.892585 
L 228.128781 127.721011 
L 228.913662 130.102321 
L 229.698544 131.012146 
L 230.483425 134.431209 
L 231.268307 130.382908 
L 232.053188 124.433197 
L 232.83807 126.833434 
L 233.622951 132.681681 
L 235.192714 124.831039 
L 235.977596 121.944003 
L 236.762477 117.847301 
L 237.547359 120.871837 
L 238.33224 121.431338 
L 239.902003 131.024403 
L 240.686884 127.64887 
L 241.471766 129.914644 
L 242.256647 122.02523 
L 243.041529 121.735604 
L 243.82641 123.935795 
L 244.611292 121.123679 
L 245.396173 114.720364 
L 246.181055 112.947016 
L 246.965936 117.260309 
L 247.750818 115.911216 
L 248.535699 110.944179 
L 249.320581 112.691424 
L 250.105462 115.43064 
L 250.890344 111.754114 
L 251.675225 111.21737 
L 252.460107 115.145125 
L 253.244988 116.466553 
L 254.02987 119.110257 
L 254.814751 118.033453 
L 255.599633 117.614418 
L 256.384514 113.4827 
L 257.169396 110.895092 
L 257.954277 116.469422 
L 258.739159 114.988489 
L 259.52404 111.738251 
L 260.308922 110.058063 
L 261.093803 106.269678 
L 261.878684 108.247647 
L 262.663566 111.664613 
L 263.448447 108.259753 
L 264.233329 112.089891 
L 265.01821 119.747069 
L 265.803092 116.088804 
L 266.587973 118.624552 
L 267.372855 119.672451 
L 268.942618 129.05069 
L 269.727499 132.943874 
L 270.512381 134.127527 
L 271.297262 132.853578 
L 272.082144 140.472098 
L 272.867025 137.961304 
L 274.436788 145.262637 
L 275.22167 143.034933 
L 276.006551 143.249542 
L 276.791433 148.179607 
L 277.576314 142.187871 
L 278.361196 144.957477 
L 279.930959 143.450137 
L 280.71584 138.794595 
L 281.500722 140.267866 
L 282.285603 136.905454 
L 283.070484 139.333755 
L 283.855366 135.57996 
L 284.640247 138.088966 
L 285.425129 139.257559 
L 286.21001 132.905924 
L 286.994892 131.80622 
L 287.779773 131.405177 
L 288.564655 123.684748 
L 289.349536 122.396634 
L 290.134418 125.200124 
L 290.919299 122.620014 
L 291.704181 126.681527 
L 293.273944 118.484352 
L 294.843707 122.636201 
L 295.628588 121.989988 
L 296.41347 121.910086 
L 297.198351 125.276718 
L 297.983233 123.277018 
L 298.768114 130.268619 
L 300.337877 133.041602 
L 301.122759 133.931499 
L 301.90764 132.868394 
L 302.692522 136.950519 
L 303.477403 134.957974 
L 304.262284 135.531286 
L 305.047166 137.666867 
L 305.832047 142.137867 
L 306.616929 145.949697 
L 307.40181 144.757238 
L 308.186692 147.833366 
L 308.971573 147.599675 
L 310.541336 140.747615 
L 311.326218 135.551226 
L 312.111099 136.510405 
L 312.895981 140.073506 
L 313.680862 136.667484 
L 314.465744 135.606112 
L 315.250625 131.798726 
L 316.035507 131.731819 
L 316.820388 127.629287 
L 318.390151 122.161876 
L 319.175033 120.368763 
L 319.959914 118.938764 
L 321.529677 117.254302 
L 322.314559 113.692935 
L 323.09944 115.492143 
L 323.884322 109.212185 
L 324.669203 109.566511 
L 325.454084 105.936475 
L 326.238966 106.235674 
L 327.023847 107.107429 
L 327.808729 99.554091 
L 328.59361 100.677515 
L 329.378492 105.376489 
L 330.163373 107.960718 
L 330.948255 109.084604 
L 331.733136 101.119132 
L 332.518018 100.31535 
L 333.302899 96.773216 
L 334.087781 100.499965 
L 334.872662 99.148511 
L 335.657544 96.589549 
L 336.442425 89.683294 
L 337.227307 92.322689 
L 338.012188 89.973502 
L 338.79707 88.772775 
L 339.581951 92.664696 
L 340.366833 92.705707 
L 341.151714 93.677438 
L 341.936596 102.38815 
L 343.506359 98.068397 
L 344.29124 99.682061 
L 345.076122 104.621286 
L 345.861003 99.08748 
L 346.645884 98.056117 
L 347.430766 94.17834 
L 348.215647 88.73817 
L 349.000529 90.711695 
L 349.78541 87.543279 
L 350.570292 88.443359 
L 352.140055 88.948558 
L 352.924936 88.919973 
L 353.709818 84.556685 
L 354.494699 84.037913 
L 355.279581 84.605427 
L 356.064462 85.651127 
L 356.849344 84.283774 
L 357.634225 87.735016 
L 358.419107 89.643945 
L 359.203988 89.811787 
L 359.98887 91.951272 
L 360.773751 92.371186 
L 361.558633 94.665456 
L 362.343514 86.934826 
L 363.128396 81.699367 
L 363.913277 79.886231 
L 364.698159 80.064123 
L 365.48304 71.243601 
L 366.267922 69.894581 
L 367.052803 70.212789 
L 368.622566 67.65312 
L 369.407447 61.788779 
L 370.192329 61.831448 
L 370.97721 52.947136 
L 371.762092 56.653064 
L 372.546973 53.67364 
L 373.331855 57.877134 
L 374.116736 50.112873 
L 374.901618 51.493042 
L 375.686499 51.704739 
L 376.471381 47.692444 
L 377.256262 42.188998 
L 378.041144 46.99621 
L 378.826025 48.454859 
L 379.610907 54.38961 
L 380.395788 53.768755 
L 381.18067 54.162799 
L 381.965551 55.606213 
L 382.750433 58.456928 
L 383.535314 60.038803 
L 384.320196 63.113313 
L 385.105077 60.874845 
L 385.889959 54.453699 
L 386.67484 62.530309 
L 387.459722 62.975888 
L 388.244603 64.672131 
L 389.029484 62.595192 
L 389.814366 66.494344 
L 390.599247 67.060313 
L 391.384129 71.269335 
L 392.16901 68.394373 
L 392.953892 67.952229 
L 393.738773 68.577463 
L 394.523655 67.024597 
L 395.308536 67.999779 
L 396.093418 74.274228 
L 396.878299 71.832531 
L 397.663181 70.626769 
L 398.448062 71.217416 
L 399.232944 67.160653 
L 400.017825 62.087685 
L 400.802707 66.570417 
L 401.587588 69.732689 
L 403.157351 57.364486 
L 403.942233 60.427509 
L 404.727114 65.295289 
L 405.511996 67.880988 
L 406.296877 69.880749 
L 407.081759 76.2441 
L 407.86664 76.084359 
L 409.436403 85.85515 
L 410.221284 82.232945 
L 411.006166 84.878283 
L 411.791047 85.123385 
L 412.575929 82.624066 
L 413.36081 79.376837 
L 414.145692 80.677419 
L 414.930573 80.468419 
L 415.715455 83.685042 
L 416.500336 76.731903 
L 417.285218 74.088543 
L 418.070099 78.470368 
L 418.854981 78.419519 
L 419.639862 75.533564 
L 420.424744 73.569918 
L 421.209625 66.079599 
L 421.994507 60.349022 
L 422.779388 62.561143 
L 423.56427 62.895452 
L 424.349151 68.144185 
L 425.134033 67.085584 
L 425.918914 66.429056 
L 426.703796 55.101239 
L 427.488677 54.65025 
L 428.273559 63.397381 
L 429.05844 66.138513 
L 429.843322 65.639749 
L 430.628203 70.745948 
L 431.413084 74.219295 
L 431.413084 74.219295 
" clip-path="url(#pb8b03c9409)" style="fill: none; stroke: #3987e5; stroke-opacity: 0.9; stroke-width: 1.6; stroke-linecap: square"/>
   </g>
   <g id="line2d_28">
    <path d="M 38.972344 105.451526 
L 39.757225 106.761402 
L 40.542107 105.474997 
L 41.326988 106.050399 
L 42.11187 109.266571 
L 42.896751 106.358989 
L 44.466514 110.083717 
L 45.251396 115.016173 
L 46.036277 117.779392 
L 46.821159 115.432932 
L 47.60604 121.118659 
L 48.390922 121.337303 
L 49.175803 118.7846 
L 49.960684 120.081692 
L 50.745566 119.207272 
L 51.530447 123.087513 
L 52.315329 118.463194 
L 53.10021 114.519236 
L 53.885092 113.644728 
L 54.669973 119.84594 
L 55.454855 123.472216 
L 56.239736 120.028099 
L 57.024618 113.918324 
L 57.809499 112.82254 
L 58.594381 108.275336 
L 59.379262 110.451993 
L 60.164144 111.105601 
L 60.949025 111.069933 
L 61.733907 109.505352 
L 62.518788 114.979662 
L 63.30367 111.57154 
L 64.088551 106.7312 
L 64.873433 110.88059 
L 65.658314 115.714324 
L 66.443196 114.431783 
L 67.228077 116.732697 
L 68.012959 125.011208 
L 68.79784 122.171495 
L 69.582722 121.597445 
L 70.367603 123.229419 
L 71.152484 115.759072 
L 71.937366 115.232786 
L 72.722247 117.878851 
L 73.507129 117.489842 
L 74.29201 121.122645 
L 75.076892 123.748618 
L 75.861773 122.373556 
L 76.646655 124.270461 
L 77.431536 125.799933 
L 78.216418 119.957671 
L 79.786181 113.996731 
L 81.355944 110.284506 
L 82.140825 104.931555 
L 82.925707 104.971424 
L 83.710588 98.03398 
L 84.49547 101.560084 
L 85.280351 102.475327 
L 86.065233 107.519655 
L 86.850114 108.741713 
L 87.634996 106.81689 
L 88.419877 101.426533 
L 89.204759 103.854296 
L 89.98964 103.802467 
L 90.774522 105.095257 
L 91.559403 107.771232 
L 92.344284 112.053944 
L 93.129166 111.80383 
L 93.914047 117.959237 
L 94.698929 117.537062 
L 95.48381 117.431938 
L 96.268692 119.72337 
L 97.053573 123.229129 
L 97.838455 127.977584 
L 98.623336 121.469368 
L 99.408218 126.098807 
L 100.193099 120.652614 
L 100.977981 118.509743 
L 101.762862 119.761936 
L 102.547744 123.77526 
L 103.332625 120.10343 
L 104.117507 113.935906 
L 104.902388 117.233685 
L 105.68727 118.260329 
L 106.472151 114.49065 
L 107.257033 113.256238 
L 108.041914 105.963362 
L 108.826796 108.018229 
L 109.611677 106.001588 
L 110.396559 110.530422 
L 111.18144 102.820239 
L 111.966322 105.484335 
L 112.751203 113.472257 
L 114.320966 114.359878 
L 115.105847 107.400702 
L 115.890729 108.605164 
L 116.67561 108.619452 
L 117.460492 106.419047 
L 118.245373 100.518551 
L 119.030255 100.721942 
L 119.815136 96.788951 
L 120.600018 94.794831 
L 121.384899 95.884619 
L 122.169781 95.557972 
L 122.954662 95.416294 
L 123.739544 98.837159 
L 124.524425 94.220121 
L 125.309307 99.416224 
L 126.094188 94.968504 
L 126.87907 91.294097 
L 127.663951 91.617396 
L 128.448833 94.504923 
L 129.233714 95.33113 
L 130.018596 93.501115 
L 130.803477 90.624062 
L 131.588359 89.486011 
L 132.37324 85.605213 
L 133.158122 87.738214 
L 133.943003 86.794066 
L 134.727884 92.802108 
L 135.512766 89.839939 
L 136.297647 89.215769 
L 137.082529 90.782187 
L 137.86741 86.257284 
L 138.652292 83.521284 
L 139.437173 94.363348 
L 140.222055 94.17854 
L 141.006936 99.635112 
L 141.791818 95.58637 
L 142.576699 85.992339 
L 143.361581 87.972351 
L 144.146462 87.649602 
L 144.931344 88.587621 
L 145.716225 87.194915 
L 146.501107 84.650008 
L 147.285988 79.546241 
L 148.07087 83.407534 
L 148.855751 77.15146 
L 149.640633 80.817897 
L 150.425514 79.686361 
L 151.210396 75.027242 
L 151.995277 72.115213 
L 152.780159 75.861645 
L 153.56504 78.629365 
L 154.349922 80.428897 
L 155.134803 80.59683 
L 155.919684 75.996245 
L 156.704566 81.100431 
L 157.489447 79.217717 
L 159.05921 74.478394 
L 159.844092 72.561985 
L 160.628973 66.332026 
L 161.413855 64.283281 
L 162.198736 60.684058 
L 162.983618 58.285554 
L 163.768499 50.632644 
L 164.553381 58.660635 
L 165.338262 53.199245 
L 166.908025 55.42705 
L 167.692907 59.475618 
L 168.477788 67.19092 
L 169.26267 68.719642 
L 170.047551 71.483148 
L 170.832433 69.437108 
L 171.617314 75.359733 
L 172.402196 69.531783 
L 173.187077 68.385219 
L 173.971959 69.362581 
L 175.541722 75.349228 
L 176.326603 79.822156 
L 177.111484 81.939016 
L 177.896366 81.880811 
L 178.681247 82.54478 
L 179.466129 88.031036 
L 180.25101 89.025149 
L 181.035892 92.423206 
L 181.820773 91.778033 
L 182.605655 84.526978 
L 183.390536 82.039438 
L 184.175418 83.236452 
L 184.960299 89.524033 
L 185.745181 94.90235 
L 186.530062 101.211448 
L 187.314944 98.463662 
L 188.099825 101.292114 
L 188.884707 101.026422 
L 189.669588 103.304223 
L 190.45447 102.93419 
L 191.239351 97.666586 
L 192.024233 100.202543 
L 192.809114 101.441471 
L 193.593996 104.39715 
L 194.378877 101.122433 
L 195.94864 109.005433 
L 197.518403 118.957785 
L 198.303284 117.261968 
L 199.088166 107.989817 
L 199.873047 111.570282 
L 200.657929 108.086096 
L 201.44281 107.136901 
L 202.227692 111.112375 
L 203.797455 112.886226 
L 204.582336 115.328081 
L 205.367218 108.33516 
L 206.152099 115.178494 
L 207.721862 112.56277 
L 208.506744 114.610205 
L 209.291625 114.044068 
L 210.076507 110.854131 
L 210.861388 110.269632 
L 211.64627 108.722191 
L 212.431151 106.157674 
L 213.216033 113.498807 
L 214.000914 108.119468 
L 214.785796 99.669997 
L 216.355559 92.056233 
L 217.14044 97.370653 
L 217.925322 97.783742 
L 218.710203 100.793152 
L 219.495084 102.943552 
L 220.279966 99.308224 
L 221.064847 102.273771 
L 221.849729 102.724133 
L 222.63461 109.694174 
L 223.419492 110.237155 
L 224.204373 109.879151 
L 225.774136 114.944396 
L 226.559018 108.104273 
L 228.128781 116.183959 
L 228.913662 119.018155 
L 229.698544 114.731934 
L 230.483425 107.101111 
L 231.268307 105.851432 
L 232.053188 108.443722 
L 232.83807 109.966974 
L 233.622951 106.049986 
L 234.407833 109.345517 
L 235.977596 98.683762 
L 236.762477 98.387413 
L 237.547359 95.918571 
L 238.33224 93.036404 
L 239.117122 87.019646 
L 239.902003 91.045472 
L 240.686884 86.447562 
L 241.471766 87.870283 
L 242.256647 90.798276 
L 243.041529 90.370132 
L 243.82641 91.160039 
L 244.611292 94.895217 
L 245.396173 100.87131 
L 246.181055 104.333328 
L 246.965936 98.897935 
L 247.750818 91.422352 
L 248.535699 88.88693 
L 249.320581 84.241634 
L 250.105462 86.224977 
L 250.890344 86.491228 
L 251.675225 85.355704 
L 253.244988 93.278293 
L 254.02987 92.87422 
L 254.814751 94.061756 
L 255.599633 98.051479 
L 256.384514 96.562018 
L 257.169396 97.522045 
L 257.954277 93.620386 
L 258.739159 93.606901 
L 259.52404 94.715961 
L 260.308922 94.197631 
L 261.093803 94.817976 
L 261.878684 97.31171 
L 262.663566 98.790297 
L 264.233329 93.445476 
L 265.01821 88.473808 
L 265.803092 94.926183 
L 267.372855 97.911876 
L 268.157736 97.232244 
L 269.727499 100.786214 
L 270.512381 97.820494 
L 271.297262 97.116868 
L 272.082144 101.453643 
L 272.867025 96.416397 
L 273.651907 92.595949 
L 274.436788 94.748946 
L 275.22167 91.544455 
L 276.006551 94.317493 
L 276.791433 89.977188 
L 277.576314 90.781392 
L 278.361196 93.81838 
L 279.146077 95.202907 
L 279.930959 98.061678 
L 281.500722 96.612165 
L 282.285603 96.443995 
L 283.070484 98.507631 
L 283.855366 111.945847 
L 284.640247 111.579558 
L 285.425129 118.319862 
L 286.21001 117.424956 
L 286.994892 113.361308 
L 287.779773 112.345462 
L 288.564655 113.71322 
L 289.349536 114.326222 
L 290.134418 114.770821 
L 291.704181 118.732211 
L 292.489062 121.945251 
L 293.273944 117.736543 
L 294.058825 117.760729 
L 294.843707 114.326454 
L 295.628588 115.188793 
L 296.41347 114.900016 
L 297.198351 115.4769 
L 297.983233 113.79125 
L 298.768114 110.783241 
L 299.552996 109.883261 
L 300.337877 112.287128 
L 301.122759 115.05232 
L 301.90764 109.042117 
L 303.477403 111.049795 
L 304.262284 105.678536 
L 305.047166 101.624032 
L 305.832047 99.599518 
L 306.616929 101.058531 
L 307.40181 92.139752 
L 308.186692 90.599352 
L 308.971573 88.456917 
L 309.756455 89.084345 
L 311.326218 99.469884 
L 312.895981 96.399699 
L 313.680862 97.272458 
L 314.465744 101.627023 
L 315.250625 106.915191 
L 316.035507 108.081431 
L 316.820388 113.318961 
L 317.60527 110.044543 
L 318.390151 105.805935 
L 319.175033 95.214718 
L 319.959914 91.834538 
L 320.744796 94.064208 
L 321.529677 97.331609 
L 322.314559 110.058692 
L 323.09944 112.177079 
L 323.884322 112.782579 
L 324.669203 109.252376 
L 326.238966 104.797119 
L 327.023847 103.976827 
L 327.808729 101.494057 
L 328.59361 96.029898 
L 329.378492 100.001482 
L 330.163373 101.674189 
L 330.948255 106.767084 
L 331.733136 100.752063 
L 332.518018 95.846678 
L 333.302899 92.95421 
L 334.087781 97.465774 
L 334.872662 96.780816 
L 335.657544 97.632417 
L 336.442425 97.295124 
L 337.227307 97.970508 
L 338.012188 95.976299 
L 338.79707 97.433939 
L 339.581951 94.166211 
L 340.366833 93.213567 
L 341.151714 94.296418 
L 341.936596 94.688306 
L 342.721477 96.324435 
L 343.506359 93.201171 
L 344.29124 94.20188 
L 345.076122 93.045256 
L 345.861003 94.506269 
L 346.645884 100.070019 
L 347.430766 96.633325 
L 348.215647 100.572635 
L 349.000529 97.995654 
L 349.78541 96.378925 
L 350.570292 102.546746 
L 351.355173 106.000867 
L 352.140055 107.850976 
L 352.924936 110.801753 
L 353.709818 115.018632 
L 354.494699 112.333867 
L 355.279581 113.163707 
L 356.064462 111.744211 
L 356.849344 113.262004 
L 357.634225 112.132586 
L 358.419107 114.796214 
L 359.203988 114.85979 
L 359.98887 112.743228 
L 360.773751 112.549739 
L 361.558633 114.15899 
L 362.343514 117.994842 
L 363.128396 117.370449 
L 363.913277 116.114553 
L 364.698159 117.001555 
L 365.48304 119.688863 
L 366.267922 117.743308 
L 367.052803 108.80349 
L 367.837684 109.870909 
L 369.407447 107.205941 
L 370.192329 116.428917 
L 370.97721 115.95729 
L 371.762092 118.43169 
L 372.546973 113.471357 
L 373.331855 114.350079 
L 374.116736 117.088982 
L 374.901618 117.832239 
L 375.686499 117.211326 
L 376.471381 119.159732 
L 377.256262 119.314548 
L 378.041144 124.018161 
L 378.826025 124.768564 
L 379.610907 122.041563 
L 380.395788 115.058151 
L 381.18067 112.494584 
L 381.965551 111.48304 
L 383.535314 103.36764 
L 384.320196 97.119885 
L 385.105077 92.979673 
L 385.889959 93.395991 
L 386.67484 92.375995 
L 387.459722 91.656871 
L 388.244603 90.463724 
L 389.029484 89.659042 
L 389.814366 92.627965 
L 390.599247 100.538986 
L 391.384129 103.00416 
L 392.16901 110.39402 
L 392.953892 110.116162 
L 393.738773 110.068099 
L 394.523655 116.055657 
L 395.308536 113.565907 
L 396.093418 110.410136 
L 396.878299 110.031165 
L 397.663181 103.895063 
L 398.448062 96.874012 
L 399.232944 101.361487 
L 400.017825 97.44648 
L 401.587588 94.128217 
L 402.37247 90.521498 
L 403.157351 93.241812 
L 403.942233 95.460514 
L 405.511996 101.335533 
L 406.296877 101.669688 
L 407.081759 106.99439 
L 407.86664 110.76799 
L 408.651522 108.640045 
L 409.436403 108.866631 
L 410.221284 107.438144 
L 411.006166 114.23997 
L 411.791047 117.002232 
L 412.575929 118.936113 
L 413.36081 118.790589 
L 414.145692 120.821776 
L 414.930573 117.502396 
L 415.715455 117.677902 
L 417.285218 117.507928 
L 418.070099 114.958779 
L 418.854981 116.607537 
L 419.639862 112.563631 
L 420.424744 110.872627 
L 421.209625 110.283444 
L 421.994507 110.100571 
L 422.779388 108.176992 
L 424.349151 100.881827 
L 425.134033 99.444864 
L 425.918914 96.11289 
L 426.703796 95.631971 
L 427.488677 90.821796 
L 428.273559 90.890487 
L 429.05844 98.734816 
L 429.843322 93.64357 
L 430.628203 93.19922 
L 431.413084 97.604124 
L 431.413084 97.604124 
" clip-path="url(#pb8b03c9409)" style="fill: none; stroke: #1c5cab; stroke-opacity: 0.9; stroke-width: 1.6; stroke-linecap: square"/>
   </g>
   <g id="text_17">
    <!-- $S_0=100$ -->
    <g style="fill: #898781" transform="translate(46.821159 98.537725) scale(0.095 -0.095)">
     <defs>
      <path id="DejaVuSans-30" d="M 2034 4250 
Q 1547 4250 1301 3770 
Q 1056 3291 1056 2328 
Q 1056 1369 1301 889 
Q 1547 409 2034 409 
Q 2525 409 2770 889 
Q 3016 1369 3016 2328 
Q 3016 3291 2770 3770 
Q 2525 4250 2034 4250 
z
M 2034 4750 
Q 2819 4750 3233 4129 
Q 3647 3509 3647 2328 
Q 3647 1150 3233 529 
Q 2819 -91 2034 -91 
Q 1250 -91 836 529 
Q 422 1150 422 2328 
Q 422 3509 836 4129 
Q 1250 4750 2034 4750 
z
" transform="scale(0.015625)"/>
      <path id="DejaVuSans-3d" d="M 678 2906 
L 4684 2906 
L 4684 2381 
L 678 2381 
L 678 2906 
z
M 678 1631 
L 4684 1631 
L 4684 1100 
L 678 1100 
L 678 1631 
z
" transform="scale(0.015625)"/>
      <path id="DejaVuSans-31" d="M 794 531 
L 1825 531 
L 1825 4091 
L 703 3866 
L 703 4441 
L 1819 4666 
L 2450 4666 
L 2450 531 
L 3481 531 
L 3481 0 
L 794 0 
L 794 531 
z
" transform="scale(0.015625)"/>
     </defs>
     <use xlink:href="#DejaVuSans-Oblique-53" transform="translate(0 0.78125)"/>
     <use xlink:href="#DejaVuSans-30" transform="translate(63.476562 -15.625) scale(0.7)"/>
     <use xlink:href="#DejaVuSans-3d" transform="translate(130.229492 0.78125)"/>
     <use xlink:href="#DejaVuSans-31" transform="translate(233.500977 0.78125)"/>
     <use xlink:href="#DejaVuSans-30" transform="translate(297.124023 0.78125)"/>
     <use xlink:href="#DejaVuSans-30" transform="translate(360.74707 0.78125)"/>
    </g>
   </g>
   <g id="text_18">
    <!-- 5 sample paths -->
    <g style="fill: #52514e" transform="translate(439.261899 139.808984) scale(0.095 -0.095)">
     <defs>
      <path id="Helvetica-70" d="M 1825 378 
Q 2219 378 2480 708 
Q 2741 1038 2741 1694 
Q 2741 2094 2625 2381 
Q 2406 2934 1825 2934 
Q 1241 2934 1025 2350 
Q 909 2038 909 1556 
Q 909 1169 1025 897 
Q 1244 378 1825 378 
z
M 369 3331 
L 916 3331 
L 916 2888 
Q 1084 3116 1284 3241 
Q 1569 3428 1953 3428 
Q 2522 3428 2919 2992 
Q 3316 2556 3316 1747 
Q 3316 653 2744 184 
Q 2381 -113 1900 -113 
Q 1522 -113 1266 53 
Q 1116 147 931 375 
L 931 -1334 
L 369 -1334 
L 369 3331 
z
" transform="scale(0.015625)"/>
      <path id="Helvetica-6c" d="M 428 4591 
L 991 4591 
L 991 0 
L 428 0 
L 428 4591 
z
" transform="scale(0.015625)"/>
      <path id="Helvetica-74" d="M 525 4281 
L 1094 4281 
L 1094 3347 
L 1628 3347 
L 1628 2888 
L 1094 2888 
L 1094 703 
Q 1094 528 1213 469 
Q 1278 434 1431 434 
Q 1472 434 1519 436 
Q 1566 438 1628 444 
L 1628 0 
Q 1531 -28 1426 -40 
Q 1322 -53 1200 -53 
Q 806 -53 665 148 
Q 525 350 525 672 
L 525 2888 
L 72 2888 
L 72 3347 
L 525 3347 
L 525 4281 
z
" transform="scale(0.015625)"/>
      <path id="Helvetica-68" d="M 413 4606 
L 975 4606 
L 975 2894 
Q 1175 3147 1334 3250 
Q 1606 3428 2013 3428 
Q 2741 3428 3000 2919 
Q 3141 2641 3141 2147 
L 3141 0 
L 2563 0 
L 2563 2109 
Q 2563 2478 2469 2650 
Q 2316 2925 1894 2925 
Q 1544 2925 1259 2684 
Q 975 2444 975 1775 
L 975 0 
L 413 0 
L 413 4606 
z
" transform="scale(0.015625)"/>
     </defs>
     <use xlink:href="#Helvetica-35"/>
     <use xlink:href="#Helvetica-20" transform="translate(55.615234 0)"/>
     <use xlink:href="#Helvetica-73" transform="translate(83.398438 0)"/>
     <use xlink:href="#Helvetica-61" transform="translate(133.398438 0)"/>
     <use xlink:href="#Helvetica-6d" transform="translate(189.013672 0)"/>
     <use xlink:href="#Helvetica-70" transform="translate(272.314453 0)"/>
     <use xlink:href="#Helvetica-6c" transform="translate(327.929688 0)"/>
     <use xlink:href="#Helvetica-65" transform="translate(350.146484 0)"/>
     <use xlink:href="#Helvetica-20" transform="translate(405.761719 0)"/>
     <use xlink:href="#Helvetica-70" transform="translate(433.544922 0)"/>
     <use xlink:href="#Helvetica-61" transform="translate(489.160156 0)"/>
     <use xlink:href="#Helvetica-74" transform="translate(544.775391 0)"/>
     <use xlink:href="#Helvetica-68" transform="translate(572.558594 0)"/>
     <use xlink:href="#Helvetica-73" transform="translate(628.173828 0)"/>
    </g>
   </g>
  </g>
 </g>
 <defs>
  <clipPath id="pb8b03c9409">
   <rect x="38.972344" y="7.2" width="423.836" height="270.94"/>
  </clipPath>
 </defs>
</svg>
